{
.appVersion = "3109";
.formatVersion = 3;
DisplayStrings = (
"̣ḷ",
"Bellota/A.ss01",
"The quick brown fox jumps over a lazy dog
THW THE QUICK BROWN FOX JUMPS OVER A LAZY DOG",
"ADJUSTING@QUIVER.COM AND BOW, ZOMPYC† KILLED $7 THE FOX. Amazingly, C.J. quaffed six vodkas without burping. Back ›home after‹ jiving, sheUSA expired (with quizzicality). Bo rocked a £3,500 xylophone, making quiet waves of jazz. Chip required 44% booze to fix my Volkswagen® Jetta. Cozy sphinx©waves.com quart §28.2 jug of bad milk. Even while I adjust [my expectations higher,] you keep NYSE amazing me. I request: be my wife. \"Exquisite farm wench\" gives body* jolt to prize stinker. Five wine¶ experts MTA jokingly quizzed sample; chablis. French wine: ‘Ze bouquet is exceptional, avec just un peu of monkey dung.’ GQ Magazine© backers enjoyed; the Pixies’ „Wave of Mutilation.” 


glyphs = (
{
glyphname = A;
kernLeft = A;
kernRight = A;
layers = (
{
anchors = (
{
name = bottom;
pos = (414,0);
},
{
name = ogonek;
pos = (715,0);
},
{
name = top;
pos = (414,684);
}
);
hints = (
{
name = _corner.caps_diag;
options = 1;
origin = (0,0);
scale = (-1,1);
type = Corner;
}
);
layerId = "873CAA12-270D-4223-A88E-AE8E101FDBE8";
shapes = (
{
closed = 1;
nodes = (
(196,41,l,{
"Letterink-NibData" = {
AngleInDegrees = 21.94173;
};
}),
(281,252,l,{
"Letterink-NibData" = {
AngleInDegrees = 235.95406;
};
}),
(244,227,l,{
"Letterink-NibData" = {
AngleInDegrees = 90;
};
}),
(583,227,l,{
"Letterink-NibData" = {
AngleInDegrees = 304.04594;
};
}),
(546,252,l,{
"Letterink-NibData" = {
AngleInDegrees = 157.38014;
};
}),
(651,0,l,{
"Letterink-NibData" = {
AngleInDegrees = 90;
};
}),
(715,0,l,{
"Letterink-NibData" = {
AngleInDegrees = 337.22181;
};
}),
(424,693,l,{
"Letterink-NibData" = {
AngleInDegrees = 270;
};
}),
(404,693,l,{
"Letterink-NibData" = {
AngleInDegrees = 202.60001;
};
}),
(142,64,l,{
"Letterink-NibData" = {
AngleInDegrees = 202.61986;
};
})
);
},
{
closed = 1;
nodes = (
(403,552,l,{
"Letterink-NibData" = {
AngleInDegrees = 14.03624;
};
}),
(413,592,l,{
"Letterink-NibData" = {
AngleInDegrees = 164.62375;
};
}),
(424,552,l,{
"Letterink-NibData" = {
AngleInDegrees = 158.13142;
};
}),
(542,258,l,{
"Letterink-NibData" = {
AngleInDegrees = 34.2157;
};
}),
(559,283,l,{
"Letterink-NibData" = {
AngleInDegrees = 270;
};
}),
(268,283,l,{
"Letterink-NibData" = {
AngleInDegrees = 145.7843;
};
}),
(285,258,l,{
"Letterink-NibData" = {
AngleInDegrees = 21.86858;
};
})
);
}
);
width = 748;
},
{
anchors = (
{
name = bottom;
pos = (415,11);
},
{
name = ogonek;
pos = (724,-1);
},
{
name = top;
pos = (413,684);
}
);
hints = (
{
name = _corner.caps_diag;
options = 1;
origin = (0,0);
scale = (-1,1);
type = Corner;
}
);
layerId = "0CAF3BED-C4AC-4024-B3E1-4C69D1EF7EC0";
shapes = (
{
closed = 1;
nodes = (
(214,50,l,{
"Letterink-NibData" = {
AngleInDegrees = 22.71999;
};
}),
(299,253,l,{
"Letterink-NibData" = {
AngleInDegrees = 236.57519;
};
}),
(249,220,l,{
"Letterink-NibData" = {
AngleInDegrees = 90;
};
}),
(581,220,l,{
"Letterink-NibData" = {
AngleInDegrees = 303.42481;
};
}),
(531,253,l,{
"Letterink-NibData" = {
AngleInDegrees = 157.34811;
};
}),
(637,-1,l,{
"Letterink-NibData" = {
AngleInDegrees = 90;
};
}),
(724,-1,l,{
"Letterink-NibData" = {
AngleInDegrees = 336.96218;
};
}),
(431,688,l,{
"Letterink-NibData" = {
AngleInDegrees = 270;
};
}),
(397,688,l,{
"Letterink-NibData" = {
AngleInDegrees = 202.82503;
};
}),
(139,80,l,{
"Letterink-NibData" = {
AngleInDegrees = 202.38014;
};
})
);
},
{
closed = 1;
nodes = (
(411,548,l,{
"Letterink-NibData" = {
AngleInDegrees = 8.1301;
};
}),
(414,569,l,{
"Letterink-NibData" = {
AngleInDegrees = 171.8699;
};
}),
(417,548,l,{
"Letterink-NibData" = {
AngleInDegrees = 159.79358;
};
}),
(523,260,l,{
"Letterink-NibData" = {
AngleInDegrees = 35.21759;
};
}),
(547,294,l,{
"Letterink-NibData" = {
AngleInDegrees = 270;
};
}),
(279,294,l,{
"Letterink-NibData" = {
AngleInDegrees = 145.92281;
};
}),
(302,260,l,{
"Letterink-NibData" = {
AngleInDegrees = 20.73026;
};
})
);
}
);
width = 754;
},
{
anchors = (
{
name = bottom;
pos = (421,-8);
},
{
name = ogonek;
pos = (714,1);
},
{
name = top;
pos = (421,684);
}
);
hints = (
{
name = _corner.caps_diag;
options = 1;
origin = (0,0);
scale = (-1,1);
type = Corner;
}
);
layerId = "49C16FD3-6177-408B-A733-AEB3898BB77C";
shapes = (
{
closed = 1;
nodes = (
(191,42,l,{
"Letterink-NibData" = {
AngleInDegrees = 22.1315;
};
}),
(275,251,l,{
"Letterink-NibData" = {
AngleInDegrees = 235.7843;
};
}),
(250,234,l,{
"Letterink-NibData" = {
AngleInDegrees = 90;
};
}),
(590,234,l,{
"Letterink-NibData" = {
AngleInDegrees = 304.2157;
};
}),
(565,251,l,{
"Letterink-NibData" = {
AngleInDegrees = 157.41269;
};
}),
(669,1,l,{
"Letterink-NibData" = {
AngleInDegrees = 90;
};
}),
(714,1,l,{
"Letterink-NibData" = {
AngleInDegrees = 337.30364;
};
}),
(425,692,l,{
"Letterink-NibData" = {
AngleInDegrees = 270;
};
}),
(417,692,l,{
"Letterink-NibData" = {
AngleInDegrees = 202.68401;
};
}),
(154,61,l,{
"Letterink-NibData" = {
AngleInDegrees = 202.61986;
};
})
);
},
{
closed = 1;
nodes = (
(401,560,l,{
"Letterink-NibData" = {
AngleInDegrees = 16.29405;
};
}),
(420,625,l,{
"Letterink-NibData" = {
AngleInDegrees = 163.21735;
};
}),
(439,562,l,{
"Letterink-NibData" = {
AngleInDegrees = 158.19859;
};
}),
(561,257,l,{
"Letterink-NibData" = {
AngleInDegrees = 32.90524;
};
}),
(572,274,l,{
"Letterink-NibData" = {
AngleInDegrees = 270;
};
}),
(267,274,l,{
"Letterink-NibData" = {
AngleInDegrees = 147.09476;
};
}),
(278,257,l,{
"Letterink-NibData" = {
AngleInDegrees = 22.09423;
};
})
);
}
);
width = 752;
},
{
anchors = (
{
name = bottom;
pos = (421,-8);
},
{
name = ogonek;
pos = (714,1);
},
{
name = top;
pos = (421,684);
}
);
associatedMasterId = "49C16FD3-6177-408B-A733-AEB3898BB77C";
layerId = "E63F2094-54D6-44F3-A00F-83DE5DFBC8F4";
name = "6 Jan 22, 16:48";
shapes = (
{
closed = 1;
nodes = (
(148,-9,o),
(176,8,o),
(190,42,cs,{
"Letterink-NibData" = {
AngleInDegrees = 22.1315;
};
}),
(275,251,l,{
"Letterink-NibData" = {
AngleInDegrees = 235.7843;
};
}),
(250,234,l,{
"Letterink-NibData" = {
AngleInDegrees = 90;
};
}),
(590,234,l,{
"Letterink-NibData" = {
AngleInDegrees = 304.2157;
};
}),
(565,251,l,{
"Letterink-NibData" = {
AngleInDegrees = 157.41269;
};
}),
(669,1,l,{
"Letterink-NibData" = {
AngleInDegrees = 90;
};
}),
(714,1,l,{
"Letterink-NibData" = {
AngleInDegrees = 337.30364;
};
}),
(425,692,l,{
"Letterink-NibData" = {
AngleInDegrees = 270;
};
}),
(417,692,l,{
"Letterink-NibData" = {
AngleInDegrees = 202.68401;
};
}),
(152,58,ls,{
"Letterink-NibData" = {
AngleInDegrees = 202.61986;
};
}),
(147,46,o),
(132,31,o),
(115,31,cs,{
"Letterink-NibData" = {
AngleInDegrees = 270;
};
}),
(96,31,o),
(80,45,o),
(75,59,c,{
"Letterink-NibData" = {
AngleInDegrees = 261.25384;
};
}),
(36,53,l,{
"Letterink-NibData" = {
AngleInDegrees = 163.85566;
};
}),
(47,15,o),
(76,-9,o),
(114,-9,cs,{
"Letterink-NibData" = {
AngleInDegrees = 90;
};
})
);
},
{
closed = 1;
nodes = (
(401,560,l,{
"Letterink-NibData" = {
AngleInDegrees = 16.29405;
};
}),
(420,625,l,{
"Letterink-NibData" = {
AngleInDegrees = 163.21735;
};
}),
(439,562,l,{
"Letterink-NibData" = {
AngleInDegrees = 158.19859;
};
}),
(561,257,l,{
"Letterink-NibData" = {
AngleInDegrees = 32.90524;
};
}),
(572,274,l,{
"Letterink-NibData" = {
AngleInDegrees = 270;
};
}),
(267,274,l,{
"Letterink-NibData" = {
AngleInDegrees = 147.09476;
};
}),
(278,257,l,{
"Letterink-NibData" = {
AngleInDegrees = 22.09423;
};
})
);
}
);
width = 752;
}
);
unicode = 65;
userData = {
position = 666;
width = 20;
};
},
{
glyphname = A.ss01;
kernLeft = Atext;
kernRight = A;
layers = (
{
anchors = (
{
name = bottom;
pos = (336,0);
},
{
name = ogonek;
pos = (638,0);
},
{
name = top;
pos = (335,684);
}
);
layerId = "873CAA12-270D-4223-A88E-AE8E101FDBE8";
shapes = (
{
closed = 1;
nodes = (
(97,0,l,{
"Letterink-NibData" = {
AngleInDegrees = 22.61986;
};
}),
(202,252,l,{
"Letterink-NibData" = {
AngleInDegrees = 235.95406;
};
}),
(165,227,l,{
"Letterink-NibData" = {
AngleInDegrees = 90;
};
}),
(504,227,l,{
"Letterink-NibData" = {
AngleInDegrees = 303.34071;
};
}),
(466,252,l,{
"Letterink-NibData" = {
AngleInDegrees = 156.80141;
};
}),
(574,0,l,{
"Letterink-NibData" = {
AngleInDegrees = 90;
};
}),
(638,0,l,{
"Letterink-NibData" = {
AngleInDegrees = 337.30494;
};
}),
(344,703,l,{
"Letterink-NibData" = {
AngleInDegrees = 270;
};
}),
(325,703,l,{
"Letterink-NibData" = {
AngleInDegrees = 202.55618;
};
}),
(33,0,l,{
"Letterink-NibData" = {
AngleInDegrees = 90;
};
})
);
},
{
closed = 1;
nodes = (
(310,517,ls,{
"Letterink-NibData" = {
AngleInDegrees = 21.80141;
};
}),
(320,542,o),
(326,565,o),
(334,595,c,{
"Letterink-NibData" = {
AngleInDegrees = 166.6075;
};
}),
(339,574,o),
(349,542,o),
(359,517,cs,{
"Letterink-NibData" = {
AngleInDegrees = 158.12235;
};
}),
(463,258,l,{
"Letterink-NibData" = {
AngleInDegrees = 34.2157;
};
}),
(480,283,l,{
"Letterink-NibData" = {
AngleInDegrees = 270;
};
}),
(189,283,l,{
"Letterink-NibData" = {
AngleInDegrees = 145.7843;
};
}),
(206,258,l,{
"Letterink-NibData" = {
AngleInDegrees = 21.87765;
};
})
);
}
);
width = 671;
},
{
anchors = (
{
name = bottom;
pos = (341,0);
},
{
name = ogonek;
pos = (651,-1);
},
{
name = top;
pos = (340,684);
}
);
layerId = "0CAF3BED-C4AC-4024-B3E1-4C69D1EF7EC0";
shapes = (
{
closed = 1;
nodes = (
(117,-1,l,{
"Letterink-NibData" = {
AngleInDegrees = 22.65189;
};
}),
(223,253,l,{
"Letterink-NibData" = {
AngleInDegrees = 236.57519;
};
}),
(173,220,l,{
"Letterink-NibData" = {
AngleInDegrees = 90;
};
}),
(506,220,l,{
"Letterink-NibData" = {
AngleInDegrees = 303.42481;
};
}),
(456,253,l,{
"Letterink-NibData" = {
AngleInDegrees = 156.96496;
};
}),
(564,-1,l,{
"Letterink-NibData" = {
AngleInDegrees = 90;
};
}),
(651,-1,l,{
"Letterink-NibData" = {
AngleInDegrees = 337.32254;
};
}),
(356,705,l,{
"Letterink-NibData" = {
AngleInDegrees = 270;
};
}),
(323,705,l,{
"Letterink-NibData" = {
AngleInDegrees = 202.53914;
};
}),
(30,-1,l,{
"Letterink-NibData" = {
AngleInDegrees = 90;
};
})
);
},
{
closed = 1;
nodes = (
(324,508,ls,{
"Letterink-NibData" = {
AngleInDegrees = 19.98311;
};
}),
(328,519,o),
(335,545,o),
(339,557,c,{
"Letterink-NibData" = {
AngleInDegrees = 161.56505;
};
}),
(343,545,o),
(349,519,o),
(353,508,cs,{
"Letterink-NibData" = {
AngleInDegrees = 158.35875;
};
}),
(451,261,l,{
"Letterink-NibData" = {
AngleInDegrees = 34.87533;
};
}),
(474,294,l,{
"Letterink-NibData" = {
AngleInDegrees = 270;
};
}),
(204,294,l,{
"Letterink-NibData" = {
AngleInDegrees = 145.92281;
};
}),
(227,260,l,{
"Letterink-NibData" = {
AngleInDegrees = 21.36191;
};
})
);
}
);
width = 681;
},
{
anchors = (
{
name = bottom;
pos = (340,0);
},
{
name = ogonek;
pos = (642,1);
},
{
name = top;
pos = (339,684);
}
);
layerId = "49C16FD3-6177-408B-A733-AEB3898BB77C";
shapes = (
{
closed = 1;
nodes = (
(84,1,l,{
"Letterink-NibData" = {
AngleInDegrees = 22.78241;
};
}),
(189,251,l,{
"Letterink-NibData" = {
AngleInDegrees = 235.7843;
};
}),
(164,234,l,{
"Letterink-NibData" = {
AngleInDegrees = 90;
};
}),
(514,234,l,{
"Letterink-NibData" = {
AngleInDegrees = 304.2157;
};
}),
(489,251,l,{
"Letterink-NibData" = {
AngleInDegrees = 157.02305;
};
}),
(595,1,l,{
"Letterink-NibData" = {
AngleInDegrees = 90;
};
}),
(642,1,l,{
"Letterink-NibData" = {
AngleInDegrees = 336.95898;
};
}),
(343,704,l,{
"Letterink-NibData" = {
AngleInDegrees = 270;
};
}),
(335,704,l,{
"Letterink-NibData" = {
AngleInDegrees = 202.90284;
};
}),
(38,1,l,{
"Letterink-NibData" = {
AngleInDegrees = 90;
};
})
);
},
{
closed = 1;
nodes = (
(305,526,ls,{
"Letterink-NibData" = {
AngleInDegrees = 22.61986;
};
}),
(320,562,o),
(333,614,o),
(338,629,c,{
"Letterink-NibData" = {
AngleInDegrees = 160.34617;
};
}),
(343,615,o),
(359,563,o),
(375,526,cs,{
"Letterink-NibData" = {
AngleInDegrees = 157.39526;
};
}),
(487,257,l,{
"Letterink-NibData" = {
AngleInDegrees = 32.90524;
};
}),
(498,274,l,{
"Letterink-NibData" = {
AngleInDegrees = 270;
};
}),
(180,274,l,{
"Letterink-NibData" = {
AngleInDegrees = 147.09476;
};
}),
(191,257,l,{
"Letterink-NibData" = {
AngleInDegrees = 22.96683;
};
})
);
}
);
width = 680;
}
);
userData = {
position = 10;
width = 615;
};
},
{
glyphname = A.swsh;
kernLeft = A;
kernRight = A;
layers = (
{
anchors = (
{
name = bottom;
pos = (428,0);
},
{
name = ogonek;
pos = (729,0);
},
{
name = top;
pos = (428,684);
}
);
hints = (
{
name = _corner.caps_swash_diag;
options = 1;
origin = (0,0);
scale = (-1,1);
type = Corner;
}
);
layerId = "873CAA12-270D-4223-A88E-AE8E101FDBE8";
shapes = (
{
closed = 1;
nodes = (
(222,70,l,{
"Letterink-NibData" = {
AngleInDegrees = 21.85567;
};
}),
(295,252,l,{
"Letterink-NibData" = {
AngleInDegrees = 235.95406;
};
}),
(258,227,l,{
"Letterink-NibData" = {
AngleInDegrees = 90;
};
}),
(597,227,l,{
"Letterink-NibData" = {
AngleInDegrees = 304.04594;
};
}),
(560,252,l,{
"Letterink-NibData" = {
AngleInDegrees = 157.38014;
};
}),
(665,0,l,{
"Letterink-NibData" = {
AngleInDegrees = 90;
};
}),
(729,0,l,{
"Letterink-NibData" = {
AngleInDegrees = 337.15156;
};
}),
(437,693,l,{
"Letterink-NibData" = {
AngleInDegrees = 270;
};
}),
(418,693,l,{
"Letterink-NibData" = {
AngleInDegrees = 202.66723;
};
}),
(167,93,l,{
"Letterink-NibData" = {
AngleInDegrees = 202.61986;
};
})
);
},
{
closed = 1;
nodes = (
(417,552,l,{
"Letterink-NibData" = {
AngleInDegrees = 14.03624;
};
}),
(427,592,l,{
"Letterink-NibData" = {
AngleInDegrees = 164.62375;
};
}),
(438,552,l,{
"Letterink-NibData" = {
AngleInDegrees = 158.13142;
};
}),
(556,258,l,{
"Letterink-NibData" = {
AngleInDegrees = 34.2157;
};
}),
(573,283,l,{
"Letterink-NibData" = {
AngleInDegrees = 270;
};
}),
(282,283,l,{
"Letterink-NibData" = {
AngleInDegrees = 145.7843;
};
}),
(299,258,l,{
"Letterink-NibData" = {
AngleInDegrees = 21.86858;
};
})
);
}
);
width = 762;
},
{
anchors = (
{
name = bottom;
pos = (434,11);
},
{
name = ogonek;
pos = (748,-1);
},
{
name = top;
pos = (432,684);
}
);
hints = (
{
name = _corner.caps_swash_diag;
options = 1;
origin = (0,0);
scale = (-1,1);
type = Corner;
}
);
layerId = "0CAF3BED-C4AC-4024-B3E1-4C69D1EF7EC0";
shapes = (
{
closed = 1;
nodes = (
(236,69,l,{
"Letterink-NibData" = {
AngleInDegrees = 22.79277;
};
}),
(312,253,l,{
"Letterink-NibData" = {
AngleInDegrees = 236.57519;
};
}),
(262,220,l,{
"Letterink-NibData" = {
AngleInDegrees = 90;
};
}),
(605,220,l,{
"Letterink-NibData" = {
AngleInDegrees = 303.42481;
};
}),
(555,253,l,{
"Letterink-NibData" = {
AngleInDegrees = 157.26766;
};
}),
(661,0,l,{
"Letterink-NibData" = {
AngleInDegrees = 90;
};
}),
(748,0,l,{
"Letterink-NibData" = {
AngleInDegrees = 336.58066;
};
}),
(450,688,l,{
"Letterink-NibData" = {
AngleInDegrees = 270;
};
}),
(416,688,l,{
"Letterink-NibData" = {
AngleInDegrees = 203.31771;
};
}),
(166,108,l,{
"Letterink-NibData" = {
AngleInDegrees = 202.9321;
};
})
);
},
{
closed = 1;
nodes = (
(420,518,l,{
"Letterink-NibData" = {
AngleInDegrees = 15.78075;
};
}),
(433,564,l,{
"Letterink-NibData" = {
AngleInDegrees = 164.21925;
};
}),
(446,518,l,{
"Letterink-NibData" = {
AngleInDegrees = 158.35251;
};
}),
(548,261,l,{
"Letterink-NibData" = {
AngleInDegrees = 34.87533;
};
}),
(571,294,l,{
"Letterink-NibData" = {
AngleInDegrees = 270;
};
}),
(292,294,l,{
"Letterink-NibData" = {
AngleInDegrees = 146.30993;
};
}),
(314,261,l,{
"Letterink-NibData" = {
AngleInDegrees = 22.41376;
};
})
);
}
);
width = 778;
},
{
anchors = (
{
name = bottom;
pos = (424,-6);
},
{
name = ogonek;
pos = (720,0);
},
{
name = top;
pos = (424,684);
}
);
hints = (
{
name = _corner.caps_swash_diag;
options = 1;
origin = (0,0);
scale = (-1,1);
type = Corner;
}
);
layerId = "49C16FD3-6177-408B-A733-AEB3898BB77C";
shapes = (
{
closed = 1;
nodes = (
(211,69,l,{
"Letterink-NibData" = {
AngleInDegrees = 21.9487;
};
}),
(285,250,l,{
"Letterink-NibData" = {
AngleInDegrees = 235.7843;
};
}),
(260,233,l,{
"Letterink-NibData" = {
AngleInDegrees = 90;
};
}),
(587,233,l,{
"Letterink-NibData" = {
AngleInDegrees = 304.2157;
};
}),
(562,250,l,{
"Letterink-NibData" = {
AngleInDegrees = 157.41269;
};
}),
(666,0,l,{
"Letterink-NibData" = {
AngleInDegrees = 90;
};
}),
(715,0,l,{
"Letterink-NibData" = {
AngleInDegrees = 337.54495;
};
}),
(429,692,l,{
"Letterink-NibData" = {
AngleInDegrees = 270;
};
}),
(419,692,l,{
"Letterink-NibData" = {
AngleInDegrees = 202.29205;
};
}),
(172,85,l,{
"Letterink-NibData" = {
AngleInDegrees = 202.47943;
};
})
);
},
{
closed = 1;
nodes = (
(410,569,l,{
"Letterink-NibData" = {
AngleInDegrees = 15.64224;
};
}),
(424,619,l,{
"Letterink-NibData" = {
AngleInDegrees = 165.42579;
};
}),
(437,569,l,{
"Letterink-NibData" = {
AngleInDegrees = 158.93765;
};
}),
(556,260,l,{
"Letterink-NibData" = {
AngleInDegrees = 35.21759;
};
}),
(568,277,l,{
"Letterink-NibData" = {
AngleInDegrees = 270;
};
}),
(279,277,l,{
"Letterink-NibData" = {
AngleInDegrees = 144.78241;
};
}),
(291,260,l,{
"Letterink-NibData" = {
AngleInDegrees = 21.06235;
};
})
);
}
);
width = 753;
},
{
anchors = (
{
name = bottom;
pos = (424,-6);
},
{
name = ogonek;
pos = (720,0);
},
{
name = top;
pos = (424,684);
}
);
associatedMasterId = "49C16FD3-6177-408B-A733-AEB3898BB77C";
layerId = "58617E73-3A60-467D-AD5A-D66EDA6AE7B6";
name = "6 Jan 22, 16:52";
shapes = (
{
closed = 1;
nodes = (
(162,-11,o),
(188,10,o),
(204,49,cs,{
"Letterink-NibData" = {
AngleInDegrees = 21.9487;
};
}),
(285,250,l,{
"Letterink-NibData" = {
AngleInDegrees = 235.7843;
};
}),
(260,233,l,{
"Letterink-NibData" = {
AngleInDegrees = 90;
};
}),
(587,233,l,{
"Letterink-NibData" = {
AngleInDegrees = 304.2157;
};
}),
(562,250,l,{
"Letterink-NibData" = {
AngleInDegrees = 157.41269;
};
}),
(666,0,l,{
"Letterink-NibData" = {
AngleInDegrees = 90;
};
}),
(715,0,l,{
"Letterink-NibData" = {
AngleInDegrees = 337.54495;
};
}),
(429,692,l,{
"Letterink-NibData" = {
AngleInDegrees = 270;
};
}),
(419,692,l,{
"Letterink-NibData" = {
AngleInDegrees = 202.29205;
};
}),
(164,70,ls,{
"Letterink-NibData" = {
AngleInDegrees = 202.47943;
};
}),
(152,41,o),
(141,30,o),
(121,30,cs,{
"Letterink-NibData" = {
AngleInDegrees = 270;
};
}),
(101,30,o),
(84,48,o),
(84,67,cs),
(84,72,o),
(85,77,o),
(87,82,c,{
"Letterink-NibData" = {
AngleInDegrees = 304.43899;
};
}),
(52,106,l,{
"Letterink-NibData" = {
AngleInDegrees = 213.69007;
};
}),
(44,94,o),
(40,76,o),
(40,66,cs,{
"Letterink-NibData" = {
AngleInDegrees = 180;
};
}),
(40,21,o),
(81,-11,o),
(123,-11,cs,{
"Letterink-NibData" = {
AngleInDegrees = 90;
};
})
);
},
{
closed = 1;
nodes = (
(410,569,l,{
"Letterink-NibData" = {
AngleInDegrees = 15.64224;
};
}),
(424,619,l,{
"Letterink-NibData" = {
AngleInDegrees = 165.42579;
};
}),
(437,569,l,{
"Letterink-NibData" = {
AngleInDegrees = 158.93765;
};
}),
(556,260,l,{
"Letterink-NibData" = {
AngleInDegrees = 35.21759;
};
}),
(568,277,l,{
"Letterink-NibData" = {
AngleInDegrees = 270;
};
}),
(279,277,l,{
"Letterink-NibData" = {
AngleInDegrees = 144.78241;
};
}),
(291,260,l,{
"Letterink-NibData" = {
AngleInDegrees = 21.06235;
};
})
);
}
);
width = 753;
},
{
anchors = (
{
name = bottom;
pos = (428,0);
},
{
name = ogonek;
pos = (729,0);
},
{
name = top;
pos = (428,684);
}
);
associatedMasterId = "873CAA12-270D-4223-A88E-AE8E101FDBE8";
layerId = "C1E53CD0-1AF8-4A71-8E4B-82556DFB914A";
name = "6 Jan 22, 16:55";
shapes = (
{
closed = 1;
nodes = (
(175,-11,o),
(197,9,o),
(222,70,cs,{
"Letterink-NibData" = {
AngleInDegrees = 21.85567;
};
}),
(295,252,l,{
"Letterink-NibData" = {
AngleInDegrees = 235.95406;
};
}),
(258,227,l,{
"Letterink-NibData" = {
AngleInDegrees = 90;
};
}),
(597,227,l,{
"Letterink-NibData" = {
AngleInDegrees = 304.04594;
};
}),
(560,252,l,{
"Letterink-NibData" = {
AngleInDegrees = 157.38014;
};
}),
(665,0,l,{
"Letterink-NibData" = {
AngleInDegrees = 90;
};
}),
(729,0,l,{
"Letterink-NibData" = {
AngleInDegrees = 337.15156;
};
}),
(437,693,l,{
"Letterink-NibData" = {
AngleInDegrees = 270;
};
}),
(418,693,l,{
"Letterink-NibData" = {
AngleInDegrees = 202.66723;
};
}),
(167,92,ls,{
"Letterink-NibData" = {
AngleInDegrees = 202.61986;
};
}),
(152,56,o),
(148,43,o),
(120,43,cs,{
"Letterink-NibData" = {
AngleInDegrees = 270;
};
}),
(109,43,o),
(92,55,o),
(92,71,cs),
(92,75,o),
(92,79,o),
(94,83,c,{
"Letterink-NibData" = {
AngleInDegrees = 302.55;
};
}),
(47,113,l,{
"Letterink-NibData" = {
AngleInDegrees = 213.69007;
};
}),
(39,101,o),
(36,83,o),
(36,71,cs,{
"Letterink-NibData" = {
AngleInDegrees = 180;
};
}),
(36,25,o),
(76,-13,o),
(127,-12,cs,{
"Letterink-NibData" = {
AngleInDegrees = 88.80651;
};
})
);
},
{
closed = 1;
nodes = (
(417,552,l,{
"Letterink-NibData" = {
AngleInDegrees = 14.03624;
};
}),
(427,592,l,{
"Letterink-NibData" = {
AngleInDegrees = 164.62375;
};
}),
(438,552,l,{
"Letterink-NibData" = {
AngleInDegrees = 158.13142;
};
}),
(556,258,l,{
"Letterink-NibData" = {
AngleInDegrees = 34.2157;
};
}),
(573,283,l,{
"Letterink-NibData" = {
AngleInDegrees = 270;
};
}),
(282,283,l,{
"Letterink-NibData" = {
AngleInDegrees = 145.7843;
};
}),
(299,258,l,{
"Letterink-NibData" = {
AngleInDegrees = 21.86858;
};
})
);
}
);
width = 762;
}
);
userData = {
position = 666;
width = 20;
};
},
{
glyphname = AE;
kernLeft = AE;
kernRight = E;
layers = (
{
anchors = (
{
name = bottom;
pos = (545,0);
},
{
name = top;
pos = (555,682);
}
);
layerId = "873CAA12-270D-4223-A88E-AE8E101FDBE8";
shapes = (
{
closed = 1;
nodes = (
(126,-14,o),
(158,1,o),
(173,31,cs,{
"Letterink-NibData" = {
AngleInDegrees = 26.79844;
};
}),
(272,227,l,{
"Letterink-NibData" = {
AngleInDegrees = 90;
};
}),
(494,227,l,{
"Letterink-NibData" = {
AngleInDegrees = 180;
};
}),
(494,0,l,{
"Letterink-NibData" = {
AngleInDegrees = 90;
};
}),
(922,0,l),
(922,56,l,{
"Letterink-NibData" = {
AngleInDegrees = 270;
};
}),
(555,56,l),
(555,334,l,{
"Letterink-NibData" = {
AngleInDegrees = 90;
};
}),
(802,334,l),
(802,390,l,{
"Letterink-NibData" = {
AngleInDegrees = 270;
};
}),
(555,390,l),
(555,628,l,{
"Letterink-NibData" = {
AngleInDegrees = 90;
};
}),
(902,628,l),
(902,684,l,{
"Letterink-NibData" = {
AngleInDegrees = 270;
};
}),
(465,684,l,{
"Letterink-NibData" = {
AngleInDegrees = 208.73294;
};
}),
(124,62,ls,{
"Letterink-NibData" = {
AngleInDegrees = 209.0546;
};
}),
(119,53,o),
(109,43,o),
(95,43,cs,{
"Letterink-NibData" = {
AngleInDegrees = 270;
};
}),
(81,43,o),
(71,45,o),
(58,64,c,{
"Letterink-NibData" = {
AngleInDegrees = 225;
};
}),
(18,24,l,{
"Letterink-NibData" = {
AngleInDegrees = 140.19443;
};
}),
(38,0,o),
(64,-14,o),
(91,-14,cs,{
"Letterink-NibData" = {
AngleInDegrees = 90;
};
})
);
},
{
closed = 1;
nodes = (
(477,592,l,{
"Letterink-NibData" = {
AngleInDegrees = 25.34617;
};
}),
(495,630,l,{
"Letterink-NibData" = {
AngleInDegrees = 180.16512;
};
}),
(494,283,l,{
"Letterink-NibData" = {
AngleInDegrees = 270;
};
}),
(307,283,l,{
"Letterink-NibData" = {
AngleInDegrees = 28.81791;
};
})
);
}
);
width = 963;
},
{
anchors = (
{
name = bottom;
pos = (543,0);
},
{
name = top;
pos = (554,673);
}
);
layerId = "0CAF3BED-C4AC-4024-B3E1-4C69D1EF7EC0";
shapes = (
{
closed = 1;
nodes = (
(142,-12,o),
(179,8,o),
(197,44,cs,{
"Letterink-NibData" = {
AngleInDegrees = 26.8249;
};
}),
(286,220,l,{
"Letterink-NibData" = {
AngleInDegrees = 90;
};
}),
(483,220,l,{
"Letterink-NibData" = {
AngleInDegrees = 180;
};
}),
(483,-1,l,{
"Letterink-NibData" = {
AngleInDegrees = 90;
};
}),
(920,-1,l),
(920,75,l,{
"Letterink-NibData" = {
AngleInDegrees = 270;
};
}),
(565,75,l),
(565,325,l,{
"Letterink-NibData" = {
AngleInDegrees = 90;
};
}),
(802,325,l),
(802,401,l,{
"Letterink-NibData" = {
AngleInDegrees = 270;
};
}),
(565,401,l),
(565,610,l,{
"Letterink-NibData" = {
AngleInDegrees = 90;
};
}),
(900,610,l),
(900,686,l,{
"Letterink-NibData" = {
AngleInDegrees = 270;
};
}),
(456,686,l,{
"Letterink-NibData" = {
AngleInDegrees = 208.5766;
};
}),
(133,93,ls,{
"Letterink-NibData" = {
AngleInDegrees = 209.0546;
};
}),
(123,75,o),
(114,67,o),
(99,67,cs,{
"Letterink-NibData" = {
AngleInDegrees = 270;
};
}),
(88,67,o),
(76,72,o),
(66,86,c,{
"Letterink-NibData" = {
AngleInDegrees = 220.6013;
};
}),
(18,30,l,{
"Letterink-NibData" = {
AngleInDegrees = 145.7843;
};
}),
(35,5,o),
(66,-12,o),
(107,-12,cs,{
"Letterink-NibData" = {
AngleInDegrees = 90;
};
})
);
},
{
closed = 1;
nodes = (
(462,537,l,{
"Letterink-NibData" = {
AngleInDegrees = 23.19859;
};
}),
(483,586,l,{
"Letterink-NibData" = {
AngleInDegrees = 180;
};
}),
(483,296,l,{
"Letterink-NibData" = {
AngleInDegrees = 270;
};
}),
(330,296,l,{
"Letterink-NibData" = {
AngleInDegrees = 28.71031;
};
})
);
}
);
width = 962;
},
{
anchors = (
{
name = bottom;
pos = (553,0);
},
{
name = top;
pos = (561,692);
}
);
layerId = "49C16FD3-6177-408B-A733-AEB3898BB77C";
shapes = (
{
closed = 1;
nodes = (
(144,-2,o),
(156,26,o),
(187,71,c,{
"Letterink-NibData" = {
AngleInDegrees = 29.29136;
};
}),
(279,235,l,{
"Letterink-NibData" = {
AngleInDegrees = 90;
};
}),
(507,235,l,{
"Letterink-NibData" = {
AngleInDegrees = 180;
};
}),
(507,1,l,{
"Letterink-NibData" = {
AngleInDegrees = 90;
};
}),
(926,1,l),
(926,41,l,{
"Letterink-NibData" = {
AngleInDegrees = 270;
};
}),
(549,41,l),
(549,344,l,{
"Letterink-NibData" = {
AngleInDegrees = 90;
};
}),
(803,344,l),
(803,384,l,{
"Letterink-NibData" = {
AngleInDegrees = 270;
};
}),
(549,384,l),
(549,645,l,{
"Letterink-NibData" = {
AngleInDegrees = 90;
};
}),
(906,645,l),
(906,685,l,{
"Letterink-NibData" = {
AngleInDegrees = 270;
};
}),
(479,685,l,{
"Letterink-NibData" = {
AngleInDegrees = 208.82166;
};
}),
(145,78,l,{
"Letterink-NibData" = {
AngleInDegrees = 213.69007;
};
}),
(131,57,o),
(122,38,o),
(98,38,cs,{
"Letterink-NibData" = {
AngleInDegrees = 270;
};
}),
(84,38,o),
(67,47,o),
(59,56,c,{
"Letterink-NibData" = {
AngleInDegrees = 244.0577;
};
}),
(22,38,l,{
"Letterink-NibData" = {
AngleInDegrees = 146.82149;
};
}),
(39,12,o),
(66,-2,o),
(97,-2,cs,{
"Letterink-NibData" = {
AngleInDegrees = 90;
};
})
);
},
{
closed = 1;
nodes = (
(475,596,l,{
"Letterink-NibData" = {
AngleInDegrees = 27.32389;
};
}),
(506,656,l,{
"Letterink-NibData" = {
AngleInDegrees = 179.84962;
};
}),
(507,275,l,{
"Letterink-NibData" = {
AngleInDegrees = 270;
};
}),
(300,275,l,{
"Letterink-NibData" = {
AngleInDegrees = 28.59795;
};
})
);
}
);
width = 971;
}
);
metricLeft = "=A*.6";
unicode = 198;
userData = {
position = 422;
width = 61;
};
},
{
glyphname = AE.ss01;
kernLeft = AE;
kernRight = E;
layers = (
{
anchors = (
{
name = bottom;
pos = (478,0);
},
{
name = top;
pos = (488,682);
}
);
layerId = "873CAA12-270D-4223-A88E-AE8E101FDBE8";
shapes = (
{
closed = 1;
nodes = (
(83,0,l,{
"Letterink-NibData" = {
AngleInDegrees = 28.83986;
};
}),
(208,227,l,{
"Letterink-NibData" = {
AngleInDegrees = 90;
};
}),
(427,227,l,{
"Letterink-NibData" = {
AngleInDegrees = 180;
};
}),
(427,0,l,{
"Letterink-NibData" = {
AngleInDegrees = 90;
};
}),
(844,0,l),
(844,56,l,{
"Letterink-NibData" = {
AngleInDegrees = 270;
};
}),
(487,56,l),
(487,334,l,{
"Letterink-NibData" = {
AngleInDegrees = 90;
};
}),
(724,334,l),
(724,390,l,{
"Letterink-NibData" = {
AngleInDegrees = 270;
};
}),
(487,390,l),
(487,628,l,{
"Letterink-NibData" = {
AngleInDegrees = 90;
};
}),
(824,628,l),
(824,684,l,{
"Letterink-NibData" = {
AngleInDegrees = 270;
};
}),
(404,684,l,{
"Letterink-NibData" = {
AngleInDegrees = 209.62747;
};
}),
(15,0,l,{
"Letterink-NibData" = {
AngleInDegrees = 90;
};
})
);
},
{
closed = 1;
nodes = (
(408,587,l,{
"Letterink-NibData" = {
AngleInDegrees = 23.35556;
};
}),
(427,631,l,{
"Letterink-NibData" = {
AngleInDegrees = 180;
};
}),
(427,283,l,{
"Letterink-NibData" = {
AngleInDegrees = 270;
};
}),
(236,283,l,{
"Letterink-NibData" = {
AngleInDegrees = 29.50073;
};
})
);
}
);
width = 885;
},
{
anchors = (
{
name = bottom;
pos = (484,0);
},
{
name = top;
pos = (495,673);
}
);
layerId = "0CAF3BED-C4AC-4024-B3E1-4C69D1EF7EC0";
shapes = (
{
closed = 1;
nodes = (
(106,0,l,{
"Letterink-NibData" = {
AngleInDegrees = 28.81079;
};
}),
(227,220,l,{
"Letterink-NibData" = {
AngleInDegrees = 90;
};
}),
(424,220,l,{
"Letterink-NibData" = {
AngleInDegrees = 180;
};
}),
(424,-1,l,{
"Letterink-NibData" = {
AngleInDegrees = 90;
};
}),
(851,-1,l),
(851,75,l,{
"Letterink-NibData" = {
AngleInDegrees = 270;
};
}),
(506,75,l),
(506,325,l,{
"Letterink-NibData" = {
AngleInDegrees = 90;
};
}),
(733,325,l),
(733,401,l,{
"Letterink-NibData" = {
AngleInDegrees = 270;
};
}),
(506,401,l),
(506,610,l,{
"Letterink-NibData" = {
AngleInDegrees = 90;
};
}),
(831,610,l),
(831,686,l,{
"Letterink-NibData" = {
AngleInDegrees = 270;
};
}),
(407,686,l,{
"Letterink-NibData" = {
AngleInDegrees = 209.70894;
};
}),
(15,-1,l,{
"Letterink-NibData" = {
AngleInDegrees = 89.3704;
};
})
);
},
{
closed = 1;
nodes = (
(410,561,l,{
"Letterink-NibData" = {
AngleInDegrees = 23.62938;
};
}),
(424,593,l,{
"Letterink-NibData" = {
AngleInDegrees = 180;
};
}),
(424,296,l,{
"Letterink-NibData" = {
AngleInDegrees = 270;
};
}),
(265,296,l,{
"Letterink-NibData" = {
AngleInDegrees = 28.68615;
};
})
);
}
);
width = 894;
},
{
anchors = (
{
name = bottom;
pos = (468,0);
},
{
name = top;
pos = (475,692);
}
);
layerId = "49C16FD3-6177-408B-A733-AEB3898BB77C";
shapes = (
{
closed = 1;
nodes = (
(70,1,l,{
"Letterink-NibData" = {
AngleInDegrees = 28.2127;
};
}),
(195,234,l,{
"Letterink-NibData" = {
AngleInDegrees = 90;
};
}),
(422,234,l,{
"Letterink-NibData" = {
AngleInDegrees = 180;
};
}),
(422,1,l,{
"Letterink-NibData" = {
AngleInDegrees = 90;
};
}),
(842,1,l),
(842,41,l,{
"Letterink-NibData" = {
AngleInDegrees = 270;
};
}),
(464,41,l),
(464,344,l,{
"Letterink-NibData" = {
AngleInDegrees = 90;
};
}),
(720,344,l),
(720,384,l,{
"Letterink-NibData" = {
AngleInDegrees = 270;
};
}),
(464,384,l),
(464,645,l,{
"Letterink-NibData" = {
AngleInDegrees = 90;
};
}),
(822,645,l),
(822,685,l,{
"Letterink-NibData" = {
AngleInDegrees = 270;
};
}),
(395,685,l,{
"Letterink-NibData" = {
AngleInDegrees = 208.86222;
};
}),
(18,1,l,{
"Letterink-NibData" = {
AngleInDegrees = 90;
};
})
);
},
{
closed = 1;
nodes = (
(392,598,l,{
"Letterink-NibData" = {
AngleInDegrees = 32.55;
};
}),
(422,645,l,{
"Letterink-NibData" = {
AngleInDegrees = 180;
};
}),
(422,274,l,{
"Letterink-NibData" = {
AngleInDegrees = 270;
};
}),
(213,274,l,{
"Letterink-NibData" = {
AngleInDegrees = 28.9193;
};
})
);
}
);
width = 886;
}
);
metricLeft = "=A*.5";
userData = {
position = 422;
width = 61;
};
},
{
glyphname = B;
kernLeft = E;
kernRight = B;
layers = (
{
anchors = (
{
name = bottom;
pos = (316,0);
},
{
name = top;
pos = (316,684);
}
);
hints = (
{
name = _corner.caps_left;
origin = (0,22);
type = Corner;
}
);
layerId = "873CAA12-270D-4223-A88E-AE8E101FDBE8";
shapes = (
{
closed = 1;
nodes = (
(203,-5,ls,{
"Letterink-NibData" = {
AngleInDegrees = 96.00901;
};
}),
(222,-7,o),
(278,-10,o),
(327,-10,cs,{
"Letterink-NibData" = {
AngleInDegrees = 90;
};
}),
(499,-10,o),
(605,47,o),
(605,181,cs),
(605,263,o),
(565,328,o),
(499,358,cs,{
"Letterink-NibData" = {
AngleInDegrees = 294.77514;
};
}),
(486,364,o),
(481,364,o),
(467,368,c,{
"Letterink-NibData" = {
AngleInDegrees = 72.89727;
};
}),
(493,376,o),
(494,378,o),
(497,379,cs,{
"Letterink-NibData" = {
AngleInDegrees = 71.56505;
};
}),
(545,395,o),
(573,449,o),
(573,514,cs),
(573,625,o),
(484,695,o),
(371,695,cs,{
"Letterink-NibData" = {
AngleInDegrees = 270;
};
}),
(150,695,l,{
"Letterink-NibData" = {
AngleInDegrees = 180;
};
}),
(150,1,l,{
"Letterink-NibData" = {
AngleInDegrees = 96.45882;
};
})
);
},
{
closed = 1;
nodes = (
(324,45,o),
(264,45,o),
(210,50,c),
(210,639,l,{
"Letterink-NibData" = {
AngleInDegrees = 90;
};
}),
(385,639,l,{
"Letterink-NibData" = {
AngleInDegrees = 93.05288;
};
}),
(460,635,o),
(513,595,o),
(513,515,cs,{
"Letterink-NibData" = {
AngleInDegrees = 180;
};
}),
(513,476,o),
(500,445,o),
(474,423,cs,{
"Letterink-NibData" = {
AngleInDegrees = 229.96974;
};
}),
(449,402,o),
(412,390,o),
(370,390,cs,{
"Letterink-NibData" = {
AngleInDegrees = 270;
};
}),
(282,390,l,{
"Letterink-NibData" = {
AngleInDegrees = 180;
};
}),
(282,335,l,{
"Letterink-NibData" = {
AngleInDegrees = 90;
};
}),
(377,335,ls,{
"Letterink-NibData" = {
AngleInDegrees = 90;
};
}),
(469,335,o),
(545,281,o),
(545,183,cs,{
"Letterink-NibData" = {
AngleInDegrees = 180;
};
}),
(545,81,o),
(464,45,o),
(344,45,cs,{
"Letterink-NibData" = {
AngleInDegrees = 270;
};
})
);
}
);
width = 662;
},
{
anchors = (
{
name = bottom;
pos = (329,0);
},
{
name = top;
pos = (329,684);
}
);
hints = (
{
name = _corner.caps_left;
origin = (0,22);
type = Corner;
}
);
layerId = "0CAF3BED-C4AC-4024-B3E1-4C69D1EF7EC0";
shapes = (
{
closed = 1;
nodes = (
(218,-5,ls,{
"Letterink-NibData" = {
AngleInDegrees = 96.65443;
};
}),
(278,-12,o),
(333,-10,o),
(352,-10,cs,{
"Letterink-NibData" = {
AngleInDegrees = 90;
};
}),
(505,-10,o),
(619,50,o),
(619,188,cs),
(619,269,o),
(589,318,o),
(552,338,cs,{
"Letterink-NibData" = {
AngleInDegrees = 298.7398;
};
}),
(521,355,o),
(490,364,o),
(474,364,c,{
"Letterink-NibData" = {
AngleInDegrees = 77.90524;
};
}),
(488,367,o),
(499,370,o),
(509,375,cs,{
"Letterink-NibData" = {
AngleInDegrees = 63.90458;
};
}),
(558,399,o),
(589,446,o),
(589,511,cs),
(589,620,o),
(499,697,o),
(382,697,cs,{
"Letterink-NibData" = {
AngleInDegrees = 270;
};
}),
(156,697,l,{
"Letterink-NibData" = {
AngleInDegrees = 180;
};
}),
(156,2,l,{
"Letterink-NibData" = {
AngleInDegrees = 96.4416;
};
})
);
},
{
closed = 1;
nodes = (
(338,66,o),
(307,66,o),
(238,71,c),
(238,621,l,{
"Letterink-NibData" = {
AngleInDegrees = 90;
};
}),
(395,621,ls,{
"Letterink-NibData" = {
AngleInDegrees = 90;
};
}),
(462,621,o),
(508,580,o),
(508,511,cs,{
"Letterink-NibData" = {
AngleInDegrees = 180;
};
}),
(508,475,o),
(497,450,o),
(474,430,cs,{
"Letterink-NibData" = {
AngleInDegrees = 229.18492;
};
}),
(452,411,o),
(420,400,o),
(381,400,cs,{
"Letterink-NibData" = {
AngleInDegrees = 269.3338;
};
}),
(295,399,l,{
"Letterink-NibData" = {
AngleInDegrees = 180.77422;
};
}),
(294,325,l,{
"Letterink-NibData" = {
AngleInDegrees = 90;
};
}),
(388,325,ls,{
"Letterink-NibData" = {
AngleInDegrees = 90;
};
}),
(471,325,o),
(539,276,o),
(539,189,cs,{
"Letterink-NibData" = {
AngleInDegrees = 180;
};
}),
(539,99,o),
(468,66,o),
(356,66,cs,{
"Letterink-NibData" = {
AngleInDegrees = 270;
};
})
);
}
);
width = 674;
},
{
anchors = (
{
name = bottom;
pos = (307,0);
},
{
name = top;
pos = (307,684);
}
);
hints = (
{
name = _corner.caps_left;
origin = (0,22);
type = Corner;
}
);
layerId = "49C16FD3-6177-408B-A733-AEB3898BB77C";
shapes = (
{
closed = 1;
nodes = (
(186,-4,ls,{
"Letterink-NibData" = {
AngleInDegrees = 96.84277;
};
}),
(211,-7,o),
(266,-9,o),
(325,-9,cs,{
"Letterink-NibData" = {
AngleInDegrees = 90;
};
}),
(482,-9,o),
(586,46,o),
(586,180,cs),
(586,261,o),
(548,312,o),
(485,347,cs,{
"Letterink-NibData" = {
AngleInDegrees = 297.89727;
};
}),
(468,356,o),
(449,362,o),
(424,366,c,{
"Letterink-NibData" = {
AngleInDegrees = 83.65981;
};
}),
(451,369,o),
(469,375,o),
(483,385,cs,{
"Letterink-NibData" = {
AngleInDegrees = 55.30485;
};
}),
(522,412,o),
(555,458,o),
(555,520,cs),
(555,626,o),
(471,696,o),
(357,696,cs,{
"Letterink-NibData" = {
AngleInDegrees = 270;
};
}),
(142,696,l,{
"Letterink-NibData" = {
AngleInDegrees = 180;
};
}),
(142,1,l,{
"Letterink-NibData" = {
AngleInDegrees = 96.48307;
};
})
);
},
{
closed = 1;
nodes = (
(306,30,o),
(303,31,o),
(184,35,c),
(184,657,l,{
"Letterink-NibData" = {
AngleInDegrees = 90;
};
}),
(371,657,l,{
"Letterink-NibData" = {
AngleInDegrees = 93.01279;
};
}),
(447,653,o),
(511,609,o),
(511,520,cs,{
"Letterink-NibData" = {
AngleInDegrees = 180;
};
}),
(511,479,o),
(496,444,o),
(467,419,cs,{
"Letterink-NibData" = {
AngleInDegrees = 229.76364;
};
}),
(441,397,o),
(400,384,o),
(356,384,cs,{
"Letterink-NibData" = {
AngleInDegrees = 270;
};
}),
(274,384,l,{
"Letterink-NibData" = {
AngleInDegrees = 180;
};
}),
(274,345,l,{
"Letterink-NibData" = {
AngleInDegrees = 90;
};
}),
(363,345,ls,{
"Letterink-NibData" = {
AngleInDegrees = 90;
};
}),
(460,345,o),
(543,284,o),
(543,181,cs,{
"Letterink-NibData" = {
AngleInDegrees = 180;
};
}),
(543,70,o),
(453,30,o),
(329,30,cs,{
"Letterink-NibData" = {
AngleInDegrees = 270;
};
})
);
}
);
width = 647;
}
);
unicode = 66;
userData = {
position = 514;
width = 59;
};
},
{
glyphname = B.ss01;
kernLeft = L;
kernRight = B;
layers = (
{
anchors = (
{
name = bottom;
pos = (295,0);
},
{
name = top;
pos = (295,684);
}
);
layerId = "873CAA12-270D-4223-A88E-AE8E101FDBE8";
shapes = (
{
closed = 1;
nodes = (
(353,-10,o),
(388,-6,o),
(419,4,cs,{
"Letterink-NibData" = {
AngleInDegrees = 72.13991;
};
}),
(509,33,o),
(553,106,o),
(553,185,cs),
(553,261,o),
(511,320,o),
(448,358,cs,{
"Letterink-NibData" = {
AngleInDegrees = 300.96376;
};
}),
(443,361,o),
(437,363,o),
(416,368,c,{
"Letterink-NibData" = {
AngleInDegrees = 73.07249;
};
}),
(439,375,o),
(444,378,o),
(446,379,cs,{
"Letterink-NibData" = {
AngleInDegrees = 63.43495;
};
}),
(500,406,o),
(522,456,o),
(522,514,cs),
(522,629,o),
(431,695,o),
(320,695,cs,{
"Letterink-NibData" = {
AngleInDegrees = 270;
};
}),
(100,695,l,{
"Letterink-NibData" = {
AngleInDegrees = 180;
};
}),
(100,639,l,{
"Letterink-NibData" = {
AngleInDegrees = 90;
};
}),
(334,639,l,{
"Letterink-NibData" = {
AngleInDegrees = 94.23639;
};
}),
(415,633,o),
(462,592,o),
(462,518,cs,{
"Letterink-NibData" = {
AngleInDegrees = 180;
};
}),
(462,433,o),
(401,390,o),
(319,390,cs,{
"Letterink-NibData" = {
AngleInDegrees = 270;
};
}),
(141,390,l,{
"Letterink-NibData" = {
AngleInDegrees = 180;
};
}),
(141,335,l,{
"Letterink-NibData" = {
AngleInDegrees = 90;
};
}),
(326,335,ls,{
"Letterink-NibData" = {
AngleInDegrees = 90;
};
}),
(435,335,o),
(493,270,o),
(493,185,cs,{
"Letterink-NibData" = {
AngleInDegrees = 180;
};
}),
(493,92,o),
(423,45,o),
(312,45,cs,{
"Letterink-NibData" = {
AngleInDegrees = 270;
};
}),
(299,45,o),
(267,46,o),
(160,50,c),
(160,652,l,{
"Letterink-NibData" = {
AngleInDegrees = 270;
};
}),
(100,652,l,{
"Letterink-NibData" = {
AngleInDegrees = 180;
};
}),
(100,1,l,{
"Letterink-NibData" = {
AngleInDegrees = 96.58194;
};
}),
(152,-5,ls,{
"Letterink-NibData" = {
AngleInDegrees = 96.48307;
};
}),
(196,-10,o),
(275,-10,o),
(302,-10,cs,{
"Letterink-NibData" = {
AngleInDegrees = 90;
};
})
);
}
);
width = 609;
},
{
anchors = (
{
name = bottom;
pos = (298,0);
},
{
name = top;
pos = (298,684);
}
);
layerId = "0CAF3BED-C4AC-4024-B3E1-4C69D1EF7EC0";
shapes = (
{
closed = 1;
nodes = (
(356,-10,o),
(392,-6,o),
(423,4,cs,{
"Letterink-NibData" = {
AngleInDegrees = 72.32389;
};
}),
(514,33,o),
(561,111,o),
(561,191,cs),
(561,268,o),
(526,320,o),
(465,357,cs,{
"Letterink-NibData" = {
AngleInDegrees = 300.96376;
};
}),
(455,363,o),
(437,369,o),
(429,369,c,{
"Letterink-NibData" = {
AngleInDegrees = 71.56505;
};
}),
(441,373,o),
(446,375,o),
(450,377,cs,{
"Letterink-NibData" = {
AngleInDegrees = 63.43495;
};
}),
(506,405,o),
(531,451,o),
(531,510,cs),
(531,623,o),
(444,697,o),
(323,697,cs,{
"Letterink-NibData" = {
AngleInDegrees = 270;
};
}),
(97,697,l,{
"Letterink-NibData" = {
AngleInDegrees = 180;
};
}),
(97,619,l,{
"Letterink-NibData" = {
AngleInDegrees = 90;
};
}),
(336,619,l,{
"Letterink-NibData" = {
AngleInDegrees = 93.91825;
};
}),
(409,614,o),
(449,578,o),
(449,514,cs,{
"Letterink-NibData" = {
AngleInDegrees = 180;
};
}),
(449,439,o),
(396,401,o),
(322,401,cs,{
"Letterink-NibData" = {
AngleInDegrees = 270;
};
}),
(137,401,l,{
"Letterink-NibData" = {
AngleInDegrees = 180;
};
}),
(137,324,l,{
"Letterink-NibData" = {
AngleInDegrees = 90;
};
}),
(329,324,ls,{
"Letterink-NibData" = {
AngleInDegrees = 90;
};
}),
(428,324,o),
(480,267,o),
(480,191,cs,{
"Letterink-NibData" = {
AngleInDegrees = 180;
};
}),
(480,109,o),
(418,66,o),
(316,66,cs,{
"Letterink-NibData" = {
AngleInDegrees = 270;
};
}),
(302,66,o),
(269,67,o),
(179,71,c),
(179,655,l,{
"Letterink-NibData" = {
AngleInDegrees = 270;
};
}),
(97,655,l,{
"Letterink-NibData" = {
AngleInDegrees = 180;
};
}),
(97,2,l,{
"Letterink-NibData" = {
AngleInDegrees = 96.54629;
};
}),
(158,-5,ls,{
"Letterink-NibData" = {
AngleInDegrees = 96.70984;
};
}),
(192,-9,o),
(277,-10,o),
(306,-10,cs,{
"Letterink-NibData" = {
AngleInDegrees = 90;
};
})
);
}
);
width = 615;
},
{
anchors = (
{
name = bottom;
pos = (294,0);
},
{
name = top;
pos = (294,684);
}
);
layerId = "49C16FD3-6177-408B-A733-AEB3898BB77C";
shapes = (
{
closed = 1;
nodes = (
(351,-9,o),
(389,-5,o),
(420,5,cs,{
"Letterink-NibData" = {
AngleInDegrees = 71.95218;
};
}),
(509,34,o),
(552,104,o),
(552,182,cs),
(552,256,o),
(513,319,o),
(447,352,c,{
"Letterink-NibData" = {
AngleInDegrees = 305.53768;
};
}),
(440,357,o),
(429,358,o),
(386,369,c,{
"Letterink-NibData" = {
AngleInDegrees = 75.67728;
};
}),
(433,381,o),
(443,386,o),
(447,389,cs,{
"Letterink-NibData" = {
AngleInDegrees = 53.1301;
};
}),
(491,422,o),
(519,460,o),
(519,519,cs),
(519,635,o),
(429,696,o),
(321,696,cs,{
"Letterink-NibData" = {
AngleInDegrees = 270;
};
}),
(104,696,l,{
"Letterink-NibData" = {
AngleInDegrees = 180;
};
}),
(104,656,l,{
"Letterink-NibData" = {
AngleInDegrees = 90;
};
}),
(336,656,l,{
"Letterink-NibData" = {
AngleInDegrees = 93.81407;
};
}),
(426,650,o),
(476,600,o),
(476,523,cs,{
"Letterink-NibData" = {
AngleInDegrees = 180;
};
}),
(476,432,o),
(407,384,o),
(320,384,cs,{
"Letterink-NibData" = {
AngleInDegrees = 270;
};
}),
(147,384,l,{
"Letterink-NibData" = {
AngleInDegrees = 180;
};
}),
(147,345,l,{
"Letterink-NibData" = {
AngleInDegrees = 90;
};
}),
(327,345,ls,{
"Letterink-NibData" = {
AngleInDegrees = 90;
};
}),
(444,345,o),
(509,272,o),
(509,182,cs,{
"Letterink-NibData" = {
AngleInDegrees = 180;
};
}),
(509,82,o),
(429,30,o),
(313,30,cs,{
"Letterink-NibData" = {
AngleInDegrees = 270;
};
}),
(298,30,o),
(271,31,o),
(149,34,c),
(149,664,l,{
"Letterink-NibData" = {
AngleInDegrees = 270;
};
}),
(104,664,l,{
"Letterink-NibData" = {
AngleInDegrees = 179.91332;
};
}),
(105,3,l,{
"Letterink-NibData" = {
AngleInDegrees = 98.65254;
};
}),
(151,-4,ls,{
"Letterink-NibData" = {
AngleInDegrees = 99.21103;
};
}),
(188,-10,o),
(277,-9,o),
(303,-9,cs,{
"Letterink-NibData" = {
AngleInDegrees = 90;
};
})
);
}
);
width = 612;
}
);
userData = {
position = 494;
width = 59;
};
},
{
glyphname = B.swsh;
kernLeft = E.swsh;
kernRight = B;
layers = (
{
hints = (
{
name = _corner.caps_swash;
origin = (0,18);
type = Corner;
}
);
layerId = "873CAA12-270D-4223-A88E-AE8E101FDBE8";
shapes = (
{
closed = 1;
nodes = (
(515,-14,o),
(608,48,o),
(608,181,cs),
(608,267,o),
(575,326,o),
(503,358,cs,{
"Letterink-NibData" = {
AngleInDegrees = 288.43495;
};
}),
(500,359,o),
(494,362,o),
(471,368,c,{
"Letterink-NibData" = {
AngleInDegrees = 74.0546;
};
}),
(492,374,o),
(495,376,o),
(501,379,cs,{
"Letterink-NibData" = {
AngleInDegrees = 58.86103;
};
}),
(549,408,o),
(577,450,o),
(577,511,cs),
(577,632,o),
(481,687,o),
(375,687,cs,{
"Letterink-NibData" = {
AngleInDegrees = 270;
};
}),
(143,687,l,{
"Letterink-NibData" = {
AngleInDegrees = 180;
};
}),
(143,631,l,{
"Letterink-NibData" = {
AngleInDegrees = 90;
};
}),
(389,631,l,{
"Letterink-NibData" = {
AngleInDegrees = 93.62148;
};
}),
(468,626,o),
(517,585,o),
(517,514,cs,{
"Letterink-NibData" = {
AngleInDegrees = 180;
};
}),
(517,429,o),
(456,390,o),
(374,390,cs,{
"Letterink-NibData" = {
AngleInDegrees = 270;
};
}),
(286,390,l,{
"Letterink-NibData" = {
AngleInDegrees = 180;
};
}),
(286,335,l,{
"Letterink-NibData" = {
AngleInDegrees = 90;
};
}),
(381,335,ls,{
"Letterink-NibData" = {
AngleInDegrees = 90;
};
}),
(471,335,o),
(549,284,o),
(549,185,cs,{
"Letterink-NibData" = {
AngleInDegrees = 180;
};
}),
(549,89,o),
(477,45,o),
(351,45,cs,{
"Letterink-NibData" = {
AngleInDegrees = 270;
};
}),
(336,45,o),
(283,49,o),
(224,50,c),
(224,582,l,{
"Letterink-NibData" = {
AngleInDegrees = 270;
};
}),
(164,582,l,{
"Letterink-NibData" = {
AngleInDegrees = 180;
};
}),
(164,1,l,{
"Letterink-NibData" = {
AngleInDegrees = 95.38931;
};
}),
(217,-4,ls,{
"Letterink-NibData" = {
AngleInDegrees = 95.90614;
};
}),
(246,-7,o),
(285,-9,o),
(331,-10,cs,{
"Letterink-NibData" = {
AngleInDegrees = 91.24536;
};
})
);
}
);
width = 664;
},
{
hints = (
{
name = _corner.caps_swash;
origin = (0,18);
type = Corner;
}
);
layerId = "0CAF3BED-C4AC-4024-B3E1-4C69D1EF7EC0";
shapes = (
{
closed = 1;
nodes = (
(543,-10,o),
(622,76,o),
(622,187,cs),
(622,254,o),
(594,306,o),
(555,335,cs,{
"Letterink-NibData" = {
AngleInDegrees = 306.46923;
};
}),
(532,352,o),
(493,363,o),
(470,363,c,{
"Letterink-NibData" = {
AngleInDegrees = 78.69007;
};
}),
(490,367,o),
(516,368,o),
(543,393,cs,{
"Letterink-NibData" = {
AngleInDegrees = 47.91084;
};
}),
(574,421,o),
(591,458,o),
(591,506,cs),
(591,621,o),
(502,685,o),
(383,685,cs,{
"Letterink-NibData" = {
AngleInDegrees = 270;
};
}),
(147,685,l,{
"Letterink-NibData" = {
AngleInDegrees = 180;
};
}),
(147,609,l,{
"Letterink-NibData" = {
AngleInDegrees = 90;
};
}),
(396,609,ls,{
"Letterink-NibData" = {
AngleInDegrees = 90;
};
}),
(466,609,o),
(509,571,o),
(509,509,cs,{
"Letterink-NibData" = {
AngleInDegrees = 180;
};
}),
(509,434,o),
(456,401,o),
(382,401,cs,{
"Letterink-NibData" = {
AngleInDegrees = 270;
};
}),
(295,401,l,{
"Letterink-NibData" = {
AngleInDegrees = 180;
};
}),
(295,324,l,{
"Letterink-NibData" = {
AngleInDegrees = 90;
};
}),
(389,324,ls,{
"Letterink-NibData" = {
AngleInDegrees = 90;
};
}),
(470,324,o),
(540,278,o),
(540,191,cs,{
"Letterink-NibData" = {
AngleInDegrees = 180;
};
}),
(540,97,o),
(476,66,o),
(360,66,cs,{
"Letterink-NibData" = {
AngleInDegrees = 270;
};
}),
(341,66,o),
(330,67,o),
(248,71,c),
(248,561,l,{
"Letterink-NibData" = {
AngleInDegrees = 270;
};
}),
(166,561,l,{
"Letterink-NibData" = {
AngleInDegrees = 180;
};
}),
(166,2,l,{
"Letterink-NibData" = {
AngleInDegrees = 96.34019;
};
}),
(229,-5,ls,{
"Letterink-NibData" = {
AngleInDegrees = 97.12502;
};
}),
(253,-8,o),
(307,-10,o),
(354,-10,cs,{
"Letterink-NibData" = {
AngleInDegrees = 90;
};
})
);
}
);
width = 676;
},
{
hints = (
{
name = _corner.caps_swash;
origin = (0,18);
type = Corner;
}
);
layerId = "49C16FD3-6177-408B-A733-AEB3898BB77C";
shapes = (
{
closed = 1;
nodes = (
(517,-9,o),
(611,47,o),
(611,178,cs),
(611,266,o),
(569,319,o),
(505,351,cs,{
"Letterink-NibData" = {
AngleInDegrees = 296.56505;
};
}),
(497,355,o),
(466,362,o),
(451,365,c,{
"Letterink-NibData" = {
AngleInDegrees = 80.83765;
};
}),
(482,370,o),
(500,380,o),
(502,381,cs,{
"Letterink-NibData" = {
AngleInDegrees = 63.43495;
};
}),
(552,406,o),
(580,452,o),
(580,514,cs),
(580,620,o),
(489,685,o),
(382,685,cs,{
"Letterink-NibData" = {
AngleInDegrees = 270;
};
}),
(144,685,l,{
"Letterink-NibData" = {
AngleInDegrees = 180;
};
}),
(144,645,l,{
"Letterink-NibData" = {
AngleInDegrees = 90;
};
}),
(396,645,l,{
"Letterink-NibData" = {
AngleInDegrees = 93.40644;
};
}),
(480,640,o),
(537,593,o),
(537,517,cs,{
"Letterink-NibData" = {
AngleInDegrees = 180;
};
}),
(537,425,o),
(467,383,o),
(381,383,cs,{
"Letterink-NibData" = {
AngleInDegrees = 270;
};
}),
(299,383,l,{
"Letterink-NibData" = {
AngleInDegrees = 180;
};
}),
(299,345,l,{
"Letterink-NibData" = {
AngleInDegrees = 90;
};
}),
(388,345,ls,{
"Letterink-NibData" = {
AngleInDegrees = 90;
};
}),
(483,345,o),
(569,289,o),
(569,182,cs,{
"Letterink-NibData" = {
AngleInDegrees = 180;
};
}),
(569,78,o),
(489,29,o),
(356,29,cs,{
"Letterink-NibData" = {
AngleInDegrees = 270;
};
}),
(338,29,o),
(293,31,o),
(217,34,c),
(217,591,l,{
"Letterink-NibData" = {
AngleInDegrees = 270;
};
}),
(175,591,l,{
"Letterink-NibData" = {
AngleInDegrees = 180;
};
}),
(175,1,l,{
"Letterink-NibData" = {
AngleInDegrees = 94.96974;
};
}),
(221,-3,ls,{
"Letterink-NibData" = {
AngleInDegrees = 94.92711;
};
}),
(279,-8,o),
(307,-9,o),
(336,-9,cs,{
"Letterink-NibData" = {
AngleInDegrees = 90;
};
})
);
}
);
width = 672;
}
);
userData = {
position = 514;
width = 59;
};
},
{
glyphname = C;
kernLeft = O;
kernRight = C;
layers = (
{
anchors = (
{
name = bottom;
pos = (377,-8);
},
{
name = top;
pos = (377,700);
}
);
background = {
shapes = (
{
closed = 1;
nodes = (
(596,-17,o),
(740,130,o),
(740,330,cs),
(740,349,ls),
(740,548,o),
(592,700,o),
(398,700,cs,{
"Letterink-NibData" = {
AngleInDegrees = "270";
};
}),
(205,700,o),
(57,548,o),
(57,349,cs,{
"Letterink-NibData" = {
AngleInDegrees = "180";
};
}),
(57,330,ls,{
"Letterink-NibData" = {
AngleInDegrees = "180";
};
}),
(57,133,o),
(206,-17,o),
(402,-17,cs,{
"Letterink-NibData" = {
AngleInDegrees = "90";
};
})
);
},
{
closed = 1;
nodes = (
(238,39,o),
(117,163,o),
(117,330,cs),
(117,349,ls),
(117,516,o),
(239,644,o),
(397,644,cs,{
"Letterink-NibData" = {
AngleInDegrees = "90";
};
}),
(557,644,o),
(680,517,o),
(680,349,cs,{
"Letterink-NibData" = {
AngleInDegrees = "180";
};
}),
(680,330,ls,{
"Letterink-NibData" = {
AngleInDegrees = "180";
};
}),
(680,163,o),
(559,39,o),
(399,39,cs,{
"Letterink-NibData" = {
AngleInDegrees = "270";
};
})
);
}
);
};
layerId = "873CAA12-270D-4223-A88E-AE8E101FDBE8";
shapes = (
{
closed = 0;
nodes = (
(513,475,l,{
"Letterink-NibData" = {
AngleInDegrees = -45;
MainAxisWidth = 26;
MinorAxisWidth = -15;
ValidForParentMainAxisWidth = 30;
ValidForParentMinorAxisWidth = 15;
};
"Letterink-NibStyleId" = 8;
}),
(527,465,o),
(543,462,o),
(556,462,cs,{
"Letterink-NibData" = {
AngleInDegrees = -45;
MainAxisWidth = 26;
MinorAxisWidth = -15;
ValidForParentMainAxisWidth = 30;
ValidForParentMinorAxisWidth = 15;
};
"Letterink-NibStyleId" = 8;
}),
(590,462,o),
(616,498,o),
(616,537,cs,{
"Letterink-NibData" = {
AngleInDegrees = -45;
MainAxisWidth = 30;
MinorAxisWidth = -15;
ValidForParentMainAxisWidth = 30;
ValidForParentMinorAxisWidth = 15;
};
"Letterink-NibStyleId" = 8;
}),
(616,612,o),
(526,672,o),
(404,672,cs,{
"Letterink-NibData" = {
AngleInDegrees = -45;
MainAxisWidth = 26;
MinorAxisWidth = -15;
ValidForParentMainAxisWidth = 30;
ValidForParentMinorAxisWidth = 15;
};
"Letterink-NibStyleId" = 8;
}),
(225,672,o),
(87,539,o),
(87,330,cs,{
"Letterink-NibData" = {
AngleInDegrees = -45;
MainAxisWidth = 30;
MinorAxisWidth = -15;
ValidForParentMainAxisWidth = 30;
ValidForParentMinorAxisWidth = 15;
};
"Letterink-NibStyleId" = 8;
}),
(87,144,o),
(223,14,o),
(412,14,cs,{
"Letterink-NibData" = {
AngleInDegrees = -45;
MainAxisWidth = 26;
MinorAxisWidth = -15;
ValidForParentMainAxisWidth = 30;
ValidForParentMinorAxisWidth = 15;
};
"Letterink-NibStyleId" = 8;
}),
(511,14,o),
(605,62,o),
(650,138,c,{
"Letterink-NibData" = {
AngleInDegrees = -45;
MainAxisWidth = 26;
MinorAxisWidth = -15;
ValidForParentMainAxisWidth = 30;
ValidForParentMinorAxisWidth = 15;
};
"Letterink-NibStyleId" = 8;
})
);
}
);
userData = {
"Letterink-ComputationAllowed" = YES;
};
width = 714;
},
{
anchors = (
{
name = bottom;
pos = (390,-9);
},
{
name = top;
pos = (390,703);
}
);
background = {
shapes = (
{
closed = 1;
nodes = (
(593,-25,o),
(739,126,o),
(739,326,cs),
(739,355,ls),
(739,548,o),
(587,702,o),
(397,702,cs,{
"Letterink-NibData" = {
AngleInDegrees = "270";
};
}),
(207,702,o),
(56,548,o),
(56,355,cs,{
"Letterink-NibData" = {
AngleInDegrees = "180";
};
}),
(56,326,ls,{
"Letterink-NibData" = {
AngleInDegrees = "180";
};
}),
(56,126,o),
(200,-19,o),
(401,-22,cs,{
"Letterink-NibData" = {
AngleInDegrees = "90.89517371732774";
};
})
);
},
{
closed = 1;
nodes = (
(250,54,o),
(138,170,o),
(138,326,cs),
(138,355,ls),
(138,504,o),
(252,626,o),
(396,626,cs,{
"Letterink-NibData" = {
AngleInDegrees = "90";
};
}),
(542,626,o),
(657,504,o),
(657,355,cs,{
"Letterink-NibData" = {
AngleInDegrees = "180";
};
}),
(657,326,ls,{
"Letterink-NibData" = {
AngleInDegrees = "180";
};
}),
(657,170,o),
(545,54,o),
(398,54,cs,{
"Letterink-NibData" = {
AngleInDegrees = "270";
};
})
);
}
);
};
layerId = "0CAF3BED-C4AC-4024-B3E1-4C69D1EF7EC0";
shapes = (
{
closed = 0;
nodes = (
(506,472,l,{
"Letterink-NibData" = {
AngleInDegrees = -45;
MainAxisWidth = 42;
MinorAxisWidth = -15;
ValidForParentMainAxisWidth = 30;
ValidForParentMinorAxisWidth = 15;
};
"Letterink-NibStyleId" = 4;
}),
(520,462,o),
(536,459,o),
(548,459,cs,{
"Letterink-NibData" = {
AngleInDegrees = -45;
MainAxisWidth = 44;
MinorAxisWidth = -15;
ValidForParentMainAxisWidth = 30;
ValidForParentMinorAxisWidth = 15;
};
"Letterink-NibStyleId" = 4;
}),
(582,459,o),
(606,495,o),
(606,534,cs,{
"Letterink-NibData" = {
AngleInDegrees = -45;
MainAxisWidth = 50;
MinorAxisWidth = -15;
ValidForParentMainAxisWidth = 30;
ValidForParentMinorAxisWidth = 15;
};
"Letterink-NibStyleId" = 9;
}),
(606,607,o),
(519,665,o),
(401,665,cs,{
"Letterink-NibData" = {
AngleInDegrees = -45;
MainAxisWidth = 46;
MinorAxisWidth = -15;
ValidForParentMainAxisWidth = 30;
ValidForParentMinorAxisWidth = 15;
};
"Letterink-NibStyleId" = 10;
}),
(228,665,o),
(96,535,o),
(96,329,cs,{
"Letterink-NibData" = {
AngleInDegrees = -45;
MainAxisWidth = 50;
MinorAxisWidth = -15;
ValidForParentMainAxisWidth = 30;
ValidForParentMinorAxisWidth = 15;
};
"Letterink-NibStyleId" = 9;
}),
(96,146,o),
(226,18,o),
(409,18,cs,{
"Letterink-NibData" = {
AngleInDegrees = -45;
MainAxisWidth = 44;
MinorAxisWidth = -15;
ValidForParentMainAxisWidth = 30;
ValidForParentMinorAxisWidth = 15;
};
"Letterink-NibStyleId" = 4;
}),
(504,18,o),
(595,66,o),
(640,140,c,{
"Letterink-NibData" = {
AngleInDegrees = -45;
MainAxisWidth = 44;
MinorAxisWidth = -15;
ValidForParentMainAxisWidth = 30;
ValidForParentMinorAxisWidth = 15;
};
"Letterink-NibStyleId" = 3;
})
);
}
);
userData = {
"Letterink-ComputationAllowed" = YES;
};
width = 723;
},
{
anchors = (
{
name = bottom;
pos = (382,-29);
},
{
name = top;
pos = (382,723);
}
);
background = {
shapes = (
{
closed = 1;
nodes = (
(605,-14,o),
(747,131,o),
(747,331,cs),
(747,350,ls),
(747,550,o),
(599,702,o),
(405,702,cs,{
"Letterink-NibData" = {
AngleInDegrees = "270";
};
}),
(211,702,o),
(65,551,o),
(65,350,cs,{
"Letterink-NibData" = {
AngleInDegrees = "180";
};
}),
(65,331,ls,{
"Letterink-NibData" = {
AngleInDegrees = "180";
};
}),
(65,133,o),
(212,-14,o),
(409,-14,cs,{
"Letterink-NibData" = {
AngleInDegrees = "90";
};
})
);
},
{
closed = 1;
nodes = (
(235,24,o),
(107,156,o),
(107,331,cs),
(107,350,ls),
(107,526,o),
(236,662,o),
(404,662,cs,{
"Letterink-NibData" = {
AngleInDegrees = "90";
};
}),
(573,662,o),
(705,526,o),
(705,350,cs,{
"Letterink-NibData" = {
AngleInDegrees = "180";
};
}),
(705,331,ls,{
"Letterink-NibData" = {
AngleInDegrees = "180";
};
}),
(705,156,o),
(576,24,o),
(406,24,cs,{
"Letterink-NibData" = {
AngleInDegrees = "270";
};
})
);
}
);
};
layerId = "49C16FD3-6177-408B-A733-AEB3898BB77C";
shapes = (
{
closed = 0;
nodes = (
(523,477,l,{
"Letterink-NibData" = {
AngleInDegrees = -45;
MainAxisWidth = 8;
MinorAxisWidth = -15;
ValidForParentMainAxisWidth = 30;
ValidForParentMinorAxisWidth = 15;
};
"Letterink-NibStyleId" = 6;
}),
(537,467,o),
(554,463,o),
(567,463,cs,{
"Letterink-NibData" = {
AngleInDegrees = -45;
MainAxisWidth = 8;
MinorAxisWidth = -15;
ValidForParentMainAxisWidth = 30;
ValidForParentMinorAxisWidth = 15;
};
"Letterink-NibStyleId" = 6;
}),
(602,463,o),
(629,500,o),
(629,541,cs,{
"Letterink-NibData" = {
AngleInDegrees = -45;
MainAxisWidth = 8;
MinorAxisWidth = -15;
ValidForParentMainAxisWidth = 30;
ValidForParentMinorAxisWidth = 15;
};
"Letterink-NibStyleId" = 6;
}),
(629,619,o),
(536,680,o),
(411,680,cs,{
"Letterink-NibData" = {
AngleInDegrees = -45;
MainAxisWidth = 8;
MinorAxisWidth = -15;
ValidForParentMainAxisWidth = 30;
ValidForParentMinorAxisWidth = 15;
};
"Letterink-NibStyleId" = 6;
}),
(226,680,o),
(84,543,o),
(84,328,cs,{
"Letterink-NibData" = {
AngleInDegrees = -45;
MainAxisWidth = 12;
MinorAxisWidth = -15;
ValidForParentMainAxisWidth = 30;
ValidForParentMinorAxisWidth = 15;
};
"Letterink-NibStyleId" = 7;
}),
(84,136,o),
(224,2,o),
(419,2,cs,{
"Letterink-NibData" = {
AngleInDegrees = -45;
MainAxisWidth = 8;
MinorAxisWidth = -15;
ValidForParentMainAxisWidth = 30;
ValidForParentMinorAxisWidth = 15;
};
"Letterink-NibStyleId" = 6;
}),
(521,2,o),
(618,51,o),
(664,130,c,{
"Letterink-NibData" = {
AngleInDegrees = -45;
MainAxisWidth = 8;
MinorAxisWidth = -15;
ValidForParentMainAxisWidth = 30;
ValidForParentMinorAxisWidth = 15;
};
"Letterink-NibStyleId" = 6;
})
);
}
);
userData = {
"Letterink-ComputationAllowed" = YES;
};
width = 728;
},
{
anchors = (
{
name = bottom;
pos = (384,-29);
},
{
name = top;
pos = (384,723);
}
);
associatedMasterId = "49C16FD3-6177-408B-A733-AEB3898BB77C";
layerId = "9A6A7639-79A9-4EC5-AE88-1E69E535A513";
name = "3 Jan 22, 15:02";
shapes = (
{
closed = 1;
nodes = (
(504,-22,o),
(607,20,o),
(676,118,c,{
"Letterink-NibData" = {
AngleInDegrees = 307.18471;
};
}),
(647,140,l,{
"Letterink-NibData" = {
AngleInDegrees = 215.75389;
};
}),
(593,65,o),
(500,18,o),
(401,18,cs,{
"Letterink-NibData" = {
AngleInDegrees = 270;
};
}),
(226,18,o),
(102,167,o),
(102,335,cs),
(102,508,o),
(235,665,o),
(405,665,cs,{
"Letterink-NibData" = {
AngleInDegrees = 90;
};
}),
(488,665,o),
(595,637,o),
(595,558,cs,{
"Letterink-NibData" = {
AngleInDegrees = 180;
};
}),
(595,531,o),
(582,510,o),
(559,510,cs,{
"Letterink-NibData" = {
AngleInDegrees = 270;
};
}),
(551,510,o),
(536,515,o),
(529,522,c,{
"Letterink-NibData" = {
AngleInDegrees = 217.99873;
};
}),
(504,490,l,{
"Letterink-NibData" = {
AngleInDegrees = 132.27369;
};
}),
(515,480,o),
(540,472,o),
(556,472,cs,{
"Letterink-NibData" = {
AngleInDegrees = 90;
};
}),
(603,472,o),
(635,510,o),
(635,562,cs),
(635,661,o),
(517,706,o),
(413,706,cs,{
"Letterink-NibData" = {
AngleInDegrees = 270;
};
}),
(211,706,o),
(60,535,o),
(60,335,cs,{
"Letterink-NibData" = {
AngleInDegrees = 180;
};
}),
(60,140,o),
(204,-22,o),
(402,-22,cs,{
"Letterink-NibData" = {
AngleInDegrees = 90;
};
})
);
}
);
width = 720;
},
{
anchors = (
{
name = bottom;
pos = (378,-21);
},
{
name = top;
pos = (378,713);
}
);
associatedMasterId = "873CAA12-270D-4223-A88E-AE8E101FDBE8";
layerId = "15FC93EE-0B6A-4FF9-9488-60D43486AADB";
name = "3 Jan 22, 15:14";
shapes = (
{
closed = 1;
nodes = (
(503,-23,o),
(608,25,o),
(675,124,c,{
"Letterink-NibData" = {
AngleInDegrees = 306.65611;
};
}),
(632,156,l,{
"Letterink-NibData" = {
AngleInDegrees = 214.2157;
};
}),
(581,81,o),
(493,34,o),
(396,34,cs,{
"Letterink-NibData" = {
AngleInDegrees = 270;
};
}),
(228,34,o),
(116,169,o),
(116,332,cs),
(116,502,o),
(236,650,o),
(402,650,cs,{
"Letterink-NibData" = {
AngleInDegrees = 90;
};
}),
(473,650,o),
(577,618,o),
(577,557,cs,{
"Letterink-NibData" = {
AngleInDegrees = 180;
};
}),
(577,534,o),
(563,518,o),
(546,518,cs,{
"Letterink-NibData" = {
AngleInDegrees = 270;
};
}),
(538,518,o),
(531,521,o),
(523,526,c,{
"Letterink-NibData" = {
AngleInDegrees = 218.50065;
};
}),
(488,482,l,{
"Letterink-NibData" = {
AngleInDegrees = 126.8699;
};
}),
(504,470,o),
(524,462,o),
(545,462,cs,{
"Letterink-NibData" = {
AngleInDegrees = 90;
};
}),
(595,462,o),
(638,504,o),
(638,556,cs),
(638,657,o),
(514,707,o),
(401,707,cs,{
"Letterink-NibData" = {
AngleInDegrees = 270;
};
}),
(208,707,o),
(56,535,o),
(56,332,cs,{
"Letterink-NibData" = {
AngleInDegrees = 180;
};
}),
(56,138,o),
(198,-23,o),
(395,-23,cs,{
"Letterink-NibData" = {
AngleInDegrees = 90;
};
})
);
}
);
width = 715;
},
{
anchors = (
{
name = bottom;
pos = (387,-9);
},
{
name = top;
pos = (387,703);
}
);
associatedMasterId = "0CAF3BED-C4AC-4024-B3E1-4C69D1EF7EC0";
layerId = "354B442F-650F-4F84-82F8-D7A6B1A052DE";
name = "3 Jan 22, 15:22";
shapes = (
{
closed = 1;
nodes = (
(533,-19,o),
(637,45,o),
(684,146,c,{
"Letterink-NibData" = {
AngleInDegrees = 296.92768;
};
}),
(621,178,l,{
"Letterink-NibData" = {
AngleInDegrees = 204.38637;
};
}),
(587,103,o),
(498,52,o),
(401,52,cs,{
"Letterink-NibData" = {
AngleInDegrees = 270;
};
}),
(250,52,o),
(135,178,o),
(135,340,cs),
(135,509,o),
(259,632,o),
(399,632,cs,{
"Letterink-NibData" = {
AngleInDegrees = 90;
};
}),
(458,632,o),
(562,610,o),
(562,547,cs,{
"Letterink-NibData" = {
AngleInDegrees = 180;
};
}),
(562,530,o),
(554,517,o),
(538,517,cs,{
"Letterink-NibData" = {
AngleInDegrees = 270;
};
}),
(526,517,o),
(513,525,o),
(506,534,c,{
"Letterink-NibData" = {
AngleInDegrees = 218.25442;
};
}),
(465,482,l,{
"Letterink-NibData" = {
AngleInDegrees = 143.53076;
};
}),
(482,459,o),
(508,445,o),
(538,445,cs,{
"Letterink-NibData" = {
AngleInDegrees = 90;
};
}),
(591,445,o),
(637,490,o),
(637,551,cs),
(637,642,o),
(532,706,o),
(404,706,cs,{
"Letterink-NibData" = {
AngleInDegrees = 270;
};
}),
(197,706,o),
(53,539,o),
(53,341,cs,{
"Letterink-NibData" = {
AngleInDegrees = 180;
};
}),
(53,147,o),
(190,-26,o),
(404,-22,cs,{
"Letterink-NibData" = {
AngleInDegrees = 88.66778;
};
})
);
}
);
width = 720;
},
{
anchors = (
{
name = bottom;
pos = (377,-8);
},
{
name = top;
pos = (377,700);
}
);
associatedMasterId = "873CAA12-270D-4223-A88E-AE8E101FDBE8";
layerId = "7131FED1-46C7-49E8-A5F4-1F9E36BAA80C";
name = "5 Jan 22, 07:42";
shapes = (
{
attr = {
strokeHeight = 54;
strokeWidth = 60;
};
closed = 0;
nodes = (
(515,482,l,{
"Letterink-NibData" = {
AngleInDegrees = 116.56505;
};
}),
(525,477,o),
(534,475,o),
(545,475,cs,{
"Letterink-NibData" = {
AngleInDegrees = 91.50744;
};
}),
(583,474,o),
(608,513,o),
(608,553,cs),
(608,626,o),
(519,685,o),
(399,679,cs,{
"Letterink-NibData" = {
AngleInDegrees = 267.08916;
};
}),
(222,670,o),
(87,529,o),
(87,330,cs,{
"Letterink-NibData" = {
AngleInDegrees = 180;
};
}),
(87,139,o),
(220,5,o),
(407,5,cs,{
"Letterink-NibData" = {
AngleInDegrees = 90;
};
}),
(504,5,o),
(597,56,o),
(643,133,c,{
"Letterink-NibData" = {
AngleInDegrees = 30.8542;
};
})
);
}
);
width = 714;
},
{
anchors = (
{
name = bottom;
pos = (390,-29);
},
{
name = top;
pos = (390,723);
}
);
associatedMasterId = "49C16FD3-6177-408B-A733-AEB3898BB77C";
background = {
shapes = (
{
closed = 1;
nodes = (
(510,-22,o),
(613,20,o),
(682,118,c),
(653,140,l),
(599,65,o),
(506,18,o),
(407,18,cs),
(232,18,o),
(108,167,o),
(108,335,cs),
(108,508,o),
(241,665,o),
(411,665,cs),
(494,665,o),
(601,637,o),
(601,558,cs),
(601,531,o),
(588,510,o),
(565,510,cs),
(557,510,o),
(542,515,o),
(535,522,c),
(510,490,l),
(521,480,o),
(546,472,o),
(562,472,cs),
(609,472,o),
(641,510,o),
(641,562,cs),
(641,661,o),
(523,706,o),
(419,706,cs),
(217,706,o),
(66,535,o),
(66,335,cs),
(66,140,o),
(210,-22,o),
(408,-22,cs)
);
}
);
};
layerId = "4473E775-5B50-49F8-862E-9DFFC95B4874";
name = "5 Jan 22, 07:44";
shapes = (
{
attr = {
strokeHeight = 38;
strokeWidth = 42;
};
closed = 0;
nodes = (
(518,484,l,{
"Letterink-NibData" = {
AngleInDegrees = 116.56505;
};
}),
(528,479,o),
(538,477,o),
(549,477,cs,{
"Letterink-NibData" = {
AngleInDegrees = 91.50744;
};
}),
(587,476,o),
(613,516,o),
(613,556,cs),
(613,630,o),
(519,690,o),
(395,684,cs,{
"Letterink-NibData" = {
AngleInDegrees = 267.08916;
};
}),
(218,675,o),
(84,532,o),
(84,330,cs,{
"Letterink-NibData" = {
AngleInDegrees = 180;
};
}),
(84,136,o),
(219,0,o),
(409,0,cs,{
"Letterink-NibData" = {
AngleInDegrees = 90;
};
}),
(507,0,o),
(602,52,o),
(648,130,c,{
"Letterink-NibData" = {
AngleInDegrees = 30.52971;
};
})
);
}
);
width = 726;
}
);
metricLeft = O;
unicode = 67;
userData = {
position = 570;
width = 54;
};
},
{
glyphname = C.ss01;
kernLeft = O;
kernRight = C;
layers = (
{
anchors = (
{
name = bottom;
pos = (355,0);
},
{
name = top;
pos = (355,684);
}
);
background = {
shapes = (
{
closed = 1;
nodes = (
(593,-17,o),
(737,130,o),
(737,330,cs),
(737,349,ls),
(737,548,o),
(589,700,o),
(395,700,cs,{
"Letterink-NibData" = {
AngleInDegrees = "270";
};
}),
(202,700,o),
(54,548,o),
(54,349,cs,{
"Letterink-NibData" = {
AngleInDegrees = "180";
};
}),
(54,330,ls,{
"Letterink-NibData" = {
AngleInDegrees = "180";
};
}),
(54,133,o),
(203,-17,o),
(399,-17,cs,{
"Letterink-NibData" = {
AngleInDegrees = "90";
};
})
);
},
{
closed = 1;
nodes = (
(235,39,o),
(114,163,o),
(114,330,cs),
(114,349,ls),
(114,516,o),
(236,644,o),
(394,644,cs,{
"Letterink-NibData" = {
AngleInDegrees = "90";
};
}),
(554,644,o),
(677,517,o),
(677,349,cs,{
"Letterink-NibData" = {
AngleInDegrees = "180";
};
}),
(677,330,ls,{
"Letterink-NibData" = {
AngleInDegrees = "180";
};
}),
(677,163,o),
(556,39,o),
(396,39,cs,{
"Letterink-NibData" = {
AngleInDegrees = "270";
};
})
);
}
);
};
layerId = "873CAA12-270D-4223-A88E-AE8E101FDBE8";
shapes = (
{
closed = 0;
nodes = (
(637,522,l,{
"Letterink-NibData" = {
AngleInDegrees = -45;
MainAxisWidth = 24;
MinorAxisWidth = -15;
ValidForParentMainAxisWidth = 30;
ValidForParentMinorAxisWidth = 15;
};
"Letterink-NibStyleId" = 8;
}),
(612,604,o),
(527,673,o),
(394,673,cs,{
"Letterink-NibData" = {
AngleInDegrees = -45;
MainAxisWidth = 24;
MinorAxisWidth = -15;
ValidForParentMainAxisWidth = 30;
ValidForParentMinorAxisWidth = 15;
};
"Letterink-NibStyleId" = 8;
}),
(222,673,o),
(87,534,o),
(87,336,cs,{
"Letterink-NibData" = {
AngleInDegrees = -45;
MainAxisWidth = 30;
MinorAxisWidth = -15;
ValidForParentMainAxisWidth = 30;
ValidForParentMinorAxisWidth = 15;
};
"Letterink-NibStyleId" = 8;
}),
(87,136,o),
(224,9,o),
(398,9,cs,{
"Letterink-NibData" = {
AngleInDegrees = -45;
MainAxisWidth = 24;
MinorAxisWidth = -15;
ValidForParentMainAxisWidth = 30;
ValidForParentMinorAxisWidth = 15;
};
"Letterink-NibStyleId" = 8;
}),
(506,9,o),
(597,54,o),
(645,134,c,{
"Letterink-NibData" = {
AngleInDegrees = -45;
MainAxisWidth = 24;
MinorAxisWidth = -15;
ValidForParentMainAxisWidth = 30;
ValidForParentMinorAxisWidth = 15;
};
"Letterink-NibStyleId" = 8;
})
);
}
);
userData = {
"Letterink-ComputationAllowed" = YES;
};
width = 678;
},
{
anchors = (
{
name = bottom;
pos = (402,0);
},
{
name = top;
pos = (398,702);
}
);
background = {
shapes = (
{
closed = 1;
nodes = (
(594,-25,o),
(740,126,o),
(740,326,cs),
(740,355,ls),
(740,548,o),
(588,702,o),
(398,702,cs,{
"Letterink-NibData" = {
AngleInDegrees = "270";
};
}),
(208,702,o),
(57,548,o),
(57,355,cs,{
"Letterink-NibData" = {
AngleInDegrees = "180";
};
}),
(57,326,ls,{
"Letterink-NibData" = {
AngleInDegrees = "180";
};
}),
(57,126,o),
(201,-19,o),
(402,-22,cs,{
"Letterink-NibData" = {
AngleInDegrees = "90.89517371732774";
};
})
);
},
{
closed = 1;
nodes = (
(251,54,o),
(139,170,o),
(139,326,cs),
(139,355,ls),
(139,504,o),
(253,626,o),
(397,626,cs,{
"Letterink-NibData" = {
AngleInDegrees = "90";
};
}),
(543,626,o),
(658,504,o),
(658,355,cs,{
"Letterink-NibData" = {
AngleInDegrees = "180";
};
}),
(658,326,ls,{
"Letterink-NibData" = {
AngleInDegrees = "180";
};
}),
(658,170,o),
(546,54,o),
(399,54,cs,{
"Letterink-NibData" = {
AngleInDegrees = "270";
};
})
);
}
);
};
layerId = "0CAF3BED-C4AC-4024-B3E1-4C69D1EF7EC0";
shapes = (
{
closed = 0;
nodes = (
(636,519,l,{
"Letterink-NibData" = {
AngleInDegrees = -45;
MainAxisWidth = 46;
MinorAxisWidth = -15;
ValidForParentMainAxisWidth = 30;
ValidForParentMinorAxisWidth = 15;
};
"Letterink-NibStyleId" = 10;
}),
(609,598,o),
(528,667,o),
(398,667,cs,{
"Letterink-NibData" = {
AngleInDegrees = -45;
MainAxisWidth = 46;
MinorAxisWidth = -15;
ValidForParentMainAxisWidth = 30;
ValidForParentMinorAxisWidth = 15;
};
"Letterink-NibStyleId" = 10;
}),
(229,667,o),
(96,530,o),
(96,336,cs,{
"Letterink-NibData" = {
AngleInDegrees = -45;
MainAxisWidth = 50;
MinorAxisWidth = -15;
ValidForParentMainAxisWidth = 30;
ValidForParentMinorAxisWidth = 15;
};
"Letterink-NibStyleId" = 9;
}),
(96,140,o),
(231,15,o),
(402,15,cs,{
"Letterink-NibData" = {
AngleInDegrees = -45;
MainAxisWidth = 46;
MinorAxisWidth = -15;
ValidForParentMainAxisWidth = 30;
ValidForParentMinorAxisWidth = 15;
};
"Letterink-NibStyleId" = 10;
}),
(507,15,o),
(597,60,o),
(644,138,c,{
"Letterink-NibData" = {
AngleInDegrees = -45;
MainAxisWidth = 46;
MinorAxisWidth = -15;
ValidForParentMainAxisWidth = 30;
ValidForParentMinorAxisWidth = 15;
};
"Letterink-NibStyleId" = 10;
})
);
}
);
userData = {
"Letterink-ComputationAllowed" = YES;
};
width = 682;
},
{
anchors = (
{
name = bottom;
pos = (356,0);
},
{
name = top;
pos = (356,684);
}
);
background = {
anchors = (
{
name = bottom;
pos = (387,-27);
},
{
name = top;
pos = (387,721);
}
);
shapes = (
{
attr = {
strokeHeight = 38;
strokeWidth = 42;
};
closed = 0;
nodes = (
(623,537,l,{
"Letterink-NibData" = {
AngleInDegrees = 356.78451;
};
}),
(618,626,o),
(520,691,o),
(396,685,cs,{
"Letterink-NibData" = {
AngleInDegrees = 267.08916;
};
}),
(219,676,o),
(84,532,o),
(84,330,cs,{
"Letterink-NibData" = {
AngleInDegrees = 180;
};
}),
(84,136,o),
(219,0,o),
(409,0,cs,{
"Letterink-NibData" = {
AngleInDegrees = 90;
};
}),
(507,0,o),
(602,52,o),
(648,130,c,{
"Letterink-NibData" = {
AngleInDegrees = 30.52971;
};
})
);
}
);
};
layerId = "49C16FD3-6177-408B-A733-AEB3898BB77C";
shapes = (
{
closed = 0;
nodes = (
(646,526,l,{
"Letterink-NibData" = {
AngleInDegrees = "-45";
MainAxisWidth = "8";
MinorAxisWidth = "-15";
ValidForParentMainAxisWidth = "30";
ValidForParentMinorAxisWidth = "15";
};
"Letterink-NibStyleId" = "6";
}),
(622,609,o),
(533,680,o),
(398,680,cs,{
"Letterink-NibData" = {
AngleInDegrees = "-45";
MainAxisWidth = "8";
MinorAxisWidth = "-15";
ValidForParentMainAxisWidth = "30";
ValidForParentMinorAxisWidth = "15";
};
"Letterink-NibStyleId" = "6";
}),
(222,680,o),
(84,538,o),
(84,336,cs,{
"Letterink-NibData" = {
AngleInDegrees = "-45";
MainAxisWidth = "12";
MinorAxisWidth = "-15";
ValidForParentMainAxisWidth = "30";
ValidForParentMinorAxisWidth = "15";
};
"Letterink-NibStyleId" = "7";
}),
(84,132,o),
(224,2,o),
(402,2,cs,{
"Letterink-NibData" = {
AngleInDegrees = "-45";
MainAxisWidth = "8";
MinorAxisWidth = "-15";
ValidForParentMainAxisWidth = "30";
ValidForParentMinorAxisWidth = "15";
};
"Letterink-NibStyleId" = "6";
}),
(512,2,o),
(605,48,o),
(654,130,c,{
"Letterink-NibData" = {
AngleInDegrees = "-45";
MainAxisWidth = "8";
MinorAxisWidth = "-15";
ValidForParentMainAxisWidth = "30";
ValidForParentMinorAxisWidth = "15";
};
"Letterink-NibStyleId" = "6";
})
);
}
);
userData = {
"Letterink-ComputationAllowed" = YES;
};
width = 686;
},
{
anchors = (
{
name = bottom;
pos = (381,-27);
},
{
name = top;
pos = (381,721);
}
);
associatedMasterId = "49C16FD3-6177-408B-A733-AEB3898BB77C";
layerId = "5C147D22-45CB-49AC-8F59-80A6CB628E42";
name = "3 Jan 22, 15:09";
shapes = (
{
closed = 1;
nodes = (
(508,-20,o),
(606,31,o),
(666,119,c,{
"Letterink-NibData" = {
AngleInDegrees = 304.07719;
};
}),
(632,142,l,{
"Letterink-NibData" = {
AngleInDegrees = 214.03213;
};
}),
(580,65,o),
(492,20,o),
(396,20,cs,{
"Letterink-NibData" = {
AngleInDegrees = 270;
};
}),
(225,20,o),
(103,159,o),
(103,331,cs),
(103,497,o),
(224,669,o),
(406,669,cs,{
"Letterink-NibData" = {
AngleInDegrees = 90;
};
}),
(505,669,o),
(586,618,o),
(592,552,c,{
"Letterink-NibData" = {
AngleInDegrees = 90;
};
}),
(633,552,l,{
"Letterink-NibData" = {
AngleInDegrees = 355.69553;
};
}),
(626,645,o),
(535,709,o),
(411,709,cs,{
"Letterink-NibData" = {
AngleInDegrees = 270;
};
}),
(207,709,o),
(61,535,o),
(61,334,cs,{
"Letterink-NibData" = {
AngleInDegrees = 180;
};
}),
(61,132,o),
(201,-20,o),
(397,-20,cs,{
"Letterink-NibData" = {
AngleInDegrees = 90;
};
})
);
}
);
width = 706;
},
{
anchors = (
{
name = bottom;
pos = (377,-18);
},
{
name = top;
pos = (377,711);
}
);
associatedMasterId = "873CAA12-270D-4223-A88E-AE8E101FDBE8";
layerId = "9213DAB1-C864-45AE-B348-221432866101";
name = "3 Jan 22, 15:15";
shapes = (
{
closed = 1;
nodes = (
(505,-17,o),
(607,39,o),
(667,132,c,{
"Letterink-NibData" = {
AngleInDegrees = 304.75591;
};
}),
(618,166,l,{
"Letterink-NibData" = {
AngleInDegrees = 211.73352;
};
}),
(571,90,o),
(486,44,o),
(394,44,cs,{
"Letterink-NibData" = {
AngleInDegrees = 270;
};
}),
(230,44,o),
(115,168,o),
(115,323,cs),
(115,492,o),
(237,645,o),
(392,645,cs,{
"Letterink-NibData" = {
AngleInDegrees = 90;
};
}),
(496,645,o),
(569,599,o),
(572,531,c,{
"Letterink-NibData" = {
AngleInDegrees = 90;
};
}),
(632,531,l,{
"Letterink-NibData" = {
AngleInDegrees = 357.7974;
};
}),
(628,635,o),
(534,705,o),
(397,705,cs,{
"Letterink-NibData" = {
AngleInDegrees = 270;
};
}),
(208,705,o),
(55,533,o),
(55,326,cs,{
"Letterink-NibData" = {
AngleInDegrees = 180;
};
}),
(55,133,o),
(197,-17,o),
(393,-17,cs,{
"Letterink-NibData" = {
AngleInDegrees = 90;
};
})
);
}
);
width = 712;
},
{
anchors = (
{
name = bottom;
pos = (376,-7);
},
{
name = top;
pos = (376,701);
}
);
associatedMasterId = "0CAF3BED-C4AC-4024-B3E1-4C69D1EF7EC0";
layerId = "F3AD09C8-78E5-4679-83B5-5B942013D0D4";
name = "3 Jan 22, 15:21";
shapes = (
{
closed = 1;
nodes = (
(512,-17,o),
(616,40,o),
(678,139,c,{
"Letterink-NibData" = {
AngleInDegrees = 304.31509;
};
}),
(615,182,l,{
"Letterink-NibData" = {
AngleInDegrees = 211.07166;
};
}),
(568,104,o),
(488,59,o),
(393,59,cs,{
"Letterink-NibData" = {
AngleInDegrees = 270;
};
}),
(240,59,o),
(133,176,o),
(133,324,cs),
(133,494,o),
(248,631,o),
(391,631,cs,{
"Letterink-NibData" = {
AngleInDegrees = 90;
};
}),
(491,631,o),
(569,582,o),
(566,520,c,{
"Letterink-NibData" = {
AngleInDegrees = 90;
};
}),
(645,520,l,{
"Letterink-NibData" = {
AngleInDegrees = 1.06091;
};
}),
(647,628,o),
(542,707,o),
(396,707,cs,{
"Letterink-NibData" = {
AngleInDegrees = 270;
};
}),
(207,707,o),
(53,538,o),
(53,327,cs,{
"Letterink-NibData" = {
AngleInDegrees = 180;
};
}),
(53,132,o),
(197,-17,o),
(392,-17,cs,{
"Letterink-NibData" = {
AngleInDegrees = 90;
};
})
);
}
);
width = 716;
},
{
anchors = (
{
name = bottom;
pos = (387,-27);
},
{
name = top;
pos = (387,721);
}
);
associatedMasterId = "49C16FD3-6177-408B-A733-AEB3898BB77C";
layerId = "60C93F8E-5478-4CF7-8F44-AF3ED9540F66";
name = "5 Jan 22, 07:47";
shapes = (
{
attr = {
strokeHeight = 38;
strokeWidth = 42;
};
closed = 0;
nodes = (
(623,537,l,{
"Letterink-NibData" = {
AngleInDegrees = 356.78451;
};
}),
(618,626,o),
(520,691,o),
(396,685,cs,{
"Letterink-NibData" = {
AngleInDegrees = 267.08916;
};
}),
(219,676,o),
(84,532,o),
(84,330,cs,{
"Letterink-NibData" = {
AngleInDegrees = 180;
};
}),
(84,136,o),
(219,0,o),
(409,0,cs,{
"Letterink-NibData" = {
AngleInDegrees = 90;
};
}),
(507,0,o),
(602,52,o),
(648,130,c,{
"Letterink-NibData" = {
AngleInDegrees = 30.52971;
};
})
);
}
);
width = 712;
},
{
anchors = (
{
name = bottom;
pos = (377,-18);
},
{
name = top;
pos = (377,711);
}
);
associatedMasterId = "873CAA12-270D-4223-A88E-AE8E101FDBE8";
layerId = "EAB2A0FC-E10F-4042-B846-88A89CA1E4BF";
name = "5 Jan 22, 07:49";
shapes = (
{
attr = {
strokeHeight = 54;
strokeWidth = 60;
};
closed = 0;
nodes = (
(619,534,ls,{
"Letterink-NibData" = {
AngleInDegrees = 356.74805;
};
}),
(614,622,o),
(520,686,o),
(400,680,cs,{
"Letterink-NibData" = {
AngleInDegrees = 267.08916;
};
}),
(223,671,o),
(88,529,o),
(88,330,cs,{
"Letterink-NibData" = {
AngleInDegrees = 180;
};
}),
(88,139,o),
(221,5,o),
(408,5,cs,{
"Letterink-NibData" = {
AngleInDegrees = 90;
};
}),
(505,5,o),
(598,56,o),
(644,133,c,{
"Letterink-NibData" = {
AngleInDegrees = 30.8542;
};
})
);
}
);
width = 712;
},
{
anchors = (
{
name = bottom;
pos = (376,-7);
},
{
name = top;
pos = (376,701);
}
);
associatedMasterId = "0CAF3BED-C4AC-4024-B3E1-4C69D1EF7EC0";
layerId = "E3615987-2AFD-4696-A41C-F6163A2589A7";
name = "5 Jan 22, 07:50";
shapes = (
{
attr = {
strokeHeight = 74;
strokeWidth = 80;
};
closed = 0;
nodes = (
(614,525,ls,{
"Letterink-NibData" = {
AngleInDegrees = 356.63354;
};
}),
(609,610,o),
(516,671,o),
(399,665,cs,{
"Letterink-NibData" = {
AngleInDegrees = 267.02198;
};
}),
(226,656,o),
(94,521,o),
(94,331,cs,{
"Letterink-NibData" = {
AngleInDegrees = 180;
};
}),
(94,148,o),
(224,20,o),
(407,20,cs,{
"Letterink-NibData" = {
AngleInDegrees = 90;
};
}),
(502,20,o),
(593,68,o),
(638,142,c,{
"Letterink-NibData" = {
AngleInDegrees = 31.30412;
};
})
);
}
);
width = 716;
}
);
metricLeft = O;
userData = {
position = 570;
width = 54;
};
},
{
glyphname = C.swsh;
kernLeft = O;
kernRight = C;
layers = (
{
anchors = (
{
name = bottom;
pos = (360,0);
},
{
name = top;
pos = (360,684);
}
);
background = {
anchors = (
{
name = bottom;
pos = (401,0);
},
{
name = top;
pos = (392,684);
}
);
shapes = (
{
attr = {
strokeHeight = 54;
strokeWidth = 60;
};
closed = 0;
nodes = (
(481,524,l,{
"Letterink-NibData" = {
AngleInDegrees = 167.90524;
};
}),
(487,496,o),
(512,476,o),
(545,475,cs,{
"Letterink-NibData" = {
AngleInDegrees = 91.50744;
};
}),
(583,474,o),
(608,513,o),
(608,553,cs),
(608,626,o),
(519,685,o),
(399,679,cs,{
"Letterink-NibData" = {
AngleInDegrees = 267.08916;
};
}),
(222,670,o),
(87,529,o),
(87,330,cs,{
"Letterink-NibData" = {
AngleInDegrees = 180;
};
}),
(87,139,o),
(220,5,o),
(407,5,cs,{
"Letterink-NibData" = {
AngleInDegrees = 90;
};
}),
(504,5,o),
(597,56,o),
(643,133,c,{
"Letterink-NibData" = {
AngleInDegrees = 30.8542;
};
})
);
}
);
};
layerId = "873CAA12-270D-4223-A88E-AE8E101FDBE8";
shapes = (
{
closed = 0;
nodes = (
(461,514,l,{
"Letterink-NibData" = {
AngleInDegrees = "-45";
MainAxisWidth = "26";
MinorAxisWidth = "-15";
ValidForParentMainAxisWidth = "30";
ValidForParentMinorAxisWidth = "15";
};
"Letterink-NibStyleId" = "8";
}),
(471,477,o),
(507,451,o),
(544,451,cs,{
"Letterink-NibData" = {
AngleInDegrees = "-45";
MainAxisWidth = "26";
MinorAxisWidth = "-15";
ValidForParentMainAxisWidth = "30";
ValidForParentMinorAxisWidth = "15";
};
"Letterink-NibStyleId" = "8";
}),
(586,451,o),
(616,484,o),
(616,532,cs,{
"Letterink-NibData" = {
AngleInDegrees = "-45";
MainAxisWidth = "30";
MinorAxisWidth = "-15";
ValidForParentMainAxisWidth = "30";
ValidForParentMinorAxisWidth = "15";
};
"Letterink-NibStyleId" = "8";
}),
(616,604,o),
(531,672,o),
(404,672,cs,{
"Letterink-NibData" = {
AngleInDegrees = "-45";
MainAxisWidth = "26";
MinorAxisWidth = "-15";
ValidForParentMainAxisWidth = "30";
ValidForParentMinorAxisWidth = "15";
};
"Letterink-NibStyleId" = "8";
}),
(225,672,o),
(87,535,o),
(87,338,cs,{
"Letterink-NibData" = {
AngleInDegrees = "-45";
MainAxisWidth = "30";
MinorAxisWidth = "-15";
ValidForParentMainAxisWidth = "30";
ValidForParentMinorAxisWidth = "15";
};
"Letterink-NibStyleId" = "8";
}),
(87,138,o),
(229,14,o),
(406,14,cs,{
"Letterink-NibData" = {
AngleInDegrees = "-45";
MainAxisWidth = "26";
MinorAxisWidth = "-15";
ValidForParentMainAxisWidth = "30";
ValidForParentMinorAxisWidth = "15";
};
"Letterink-NibStyleId" = "8";
}),
(512,14,o),
(602,59,o),
(650,138,c,{
"Letterink-NibData" = {
AngleInDegrees = "-45";
MainAxisWidth = "26";
MinorAxisWidth = "-15";
ValidForParentMainAxisWidth = "30";
ValidForParentMinorAxisWidth = "15";
};
"Letterink-NibStyleId" = "8";
})
);
}
);
userData = {
"Letterink-ComputationAllowed" = YES;
};
width = 720;
},
{
anchors = (
{
name = bottom;
pos = (383,31);
},
{
name = top;
pos = (383,662);
}
);
background = {
shapes = (
{
closed = 1;
nodes = (
(593,-25,o),
(739,126,o),
(739,326,cs),
(739,355,ls),
(739,548,o),
(587,702,o),
(397,702,cs,{
"Letterink-NibData" = {
AngleInDegrees = "270";
};
}),
(207,702,o),
(56,548,o),
(56,355,cs,{
"Letterink-NibData" = {
AngleInDegrees = "180";
};
}),
(56,326,ls,{
"Letterink-NibData" = {
AngleInDegrees = "180";
};
}),
(56,126,o),
(200,-19,o),
(401,-22,cs,{
"Letterink-NibData" = {
AngleInDegrees = "90.89517371732774";
};
})
);
},
{
closed = 1;
nodes = (
(250,54,o),
(138,170,o),
(138,326,cs),
(138,355,ls),
(138,504,o),
(252,626,o),
(396,626,cs,{
"Letterink-NibData" = {
AngleInDegrees = "90";
};
}),
(542,626,o),
(657,504,o),
(657,355,cs,{
"Letterink-NibData" = {
AngleInDegrees = "180";
};
}),
(657,326,ls,{
"Letterink-NibData" = {
AngleInDegrees = "180";
};
}),
(657,170,o),
(545,54,o),
(398,54,cs,{
"Letterink-NibData" = {
AngleInDegrees = "270";
};
})
);
}
);
};
layerId = "0CAF3BED-C4AC-4024-B3E1-4C69D1EF7EC0";
shapes = (
{
closed = 0;
nodes = (
(462,507,l,{
"Letterink-NibData" = {
AngleInDegrees = -45;
MainAxisWidth = 46;
MinorAxisWidth = -15;
ValidForParentMainAxisWidth = 30;
ValidForParentMinorAxisWidth = 15;
};
"Letterink-NibStyleId" = 10;
}),
(473,470,o),
(507,445,o),
(544,445,cs,{
"Letterink-NibData" = {
AngleInDegrees = -45;
MainAxisWidth = 46;
MinorAxisWidth = -15;
ValidForParentMainAxisWidth = 30;
ValidForParentMinorAxisWidth = 15;
};
"Letterink-NibStyleId" = 10;
}),
(585,445,o),
(614,477,o),
(614,525,cs,{
"Letterink-NibData" = {
AngleInDegrees = -45;
MainAxisWidth = 50;
MinorAxisWidth = -15;
ValidForParentMainAxisWidth = 30;
ValidForParentMinorAxisWidth = 15;
};
"Letterink-NibStyleId" = 9;
}),
(614,595,o),
(531,662,o),
(407,662,cs,{
"Letterink-NibData" = {
AngleInDegrees = -45;
MainAxisWidth = 46;
MinorAxisWidth = -15;
ValidForParentMainAxisWidth = 30;
ValidForParentMinorAxisWidth = 15;
};
"Letterink-NibStyleId" = 10;
}),
(231,662,o),
(96,528,o),
(96,334,cs,{
"Letterink-NibData" = {
AngleInDegrees = -45;
MainAxisWidth = 50;
MinorAxisWidth = -15;
ValidForParentMainAxisWidth = 30;
ValidForParentMinorAxisWidth = 15;
};
"Letterink-NibStyleId" = 9;
}),
(96,139,o),
(235,16,o),
(409,16,cs,{
"Letterink-NibData" = {
AngleInDegrees = -45;
MainAxisWidth = 46;
MinorAxisWidth = -15;
ValidForParentMainAxisWidth = 30;
ValidForParentMinorAxisWidth = 15;
};
"Letterink-NibStyleId" = 10;
}),
(512,16,o),
(600,60,o),
(647,139,c,{
"Letterink-NibData" = {
AngleInDegrees = -45;
MainAxisWidth = 46;
MinorAxisWidth = -15;
ValidForParentMainAxisWidth = 30;
ValidForParentMinorAxisWidth = 15;
};
"Letterink-NibStyleId" = 10;
})
);
}
);
userData = {
"Letterink-ComputationAllowed" = YES;
};
width = 726;
},
{
anchors = (
{
name = bottom;
pos = (378,0);
},
{
name = top;
pos = (390,684);
}
);
background = {
shapes = (
{
closed = 1;
nodes = (
(607,-14,o),
(749,131,o),
(749,331,cs),
(749,350,ls),
(749,550,o),
(601,702,o),
(407,702,cs,{
"Letterink-NibData" = {
AngleInDegrees = "270";
};
}),
(213,702,o),
(67,551,o),
(67,350,cs,{
"Letterink-NibData" = {
AngleInDegrees = "180";
};
}),
(67,331,ls,{
"Letterink-NibData" = {
AngleInDegrees = "180";
};
}),
(67,133,o),
(214,-14,o),
(411,-14,cs,{
"Letterink-NibData" = {
AngleInDegrees = "90";
};
})
);
},
{
closed = 1;
nodes = (
(237,24,o),
(109,156,o),
(109,331,cs),
(109,350,ls),
(109,526,o),
(238,662,o),
(406,662,cs,{
"Letterink-NibData" = {
AngleInDegrees = "90";
};
}),
(575,662,o),
(707,526,o),
(707,350,cs,{
"Letterink-NibData" = {
AngleInDegrees = "180";
};
}),
(707,331,ls,{
"Letterink-NibData" = {
AngleInDegrees = "180";
};
}),
(707,156,o),
(578,24,o),
(408,24,cs,{
"Letterink-NibData" = {
AngleInDegrees = "270";
};
})
);
}
);
};
layerId = "49C16FD3-6177-408B-A733-AEB3898BB77C";
shapes = (
{
closed = 0;
nodes = (
(469,522,l,{
"Letterink-NibData" = {
AngleInDegrees = -45;
MainAxisWidth = 8;
MinorAxisWidth = -15;
ValidForParentMainAxisWidth = 30;
ValidForParentMinorAxisWidth = 15;
};
"Letterink-NibStyleId" = 6;
}),
(481,480,o),
(516,456,o),
(554,456,cs,{
"Letterink-NibData" = {
AngleInDegrees = -45;
MainAxisWidth = 8;
MinorAxisWidth = -15;
ValidForParentMainAxisWidth = 30;
ValidForParentMinorAxisWidth = 15;
};
"Letterink-NibStyleId" = 6;
}),
(598,456,o),
(628,492,o),
(628,538,cs,{
"Letterink-NibData" = {
AngleInDegrees = -45;
MainAxisWidth = 8;
MinorAxisWidth = -15;
ValidForParentMainAxisWidth = 30;
ValidForParentMinorAxisWidth = 15;
};
"Letterink-NibStyleId" = 6;
}),
(628,615,o),
(539,684,o),
(410,684,cs,{
"Letterink-NibData" = {
AngleInDegrees = -45;
MainAxisWidth = 8;
MinorAxisWidth = -15;
ValidForParentMainAxisWidth = 30;
ValidForParentMinorAxisWidth = 15;
};
"Letterink-NibStyleId" = 6;
}),
(226,684,o),
(84,543,o),
(84,340,cs,{
"Letterink-NibData" = {
AngleInDegrees = -45;
MainAxisWidth = 12;
MinorAxisWidth = -15;
ValidForParentMainAxisWidth = 30;
ValidForParentMinorAxisWidth = 15;
};
"Letterink-NibStyleId" = 7;
}),
(84,135,o),
(230,7,o),
(412,7,cs,{
"Letterink-NibData" = {
AngleInDegrees = -45;
MainAxisWidth = 8;
MinorAxisWidth = -15;
ValidForParentMainAxisWidth = 30;
ValidForParentMinorAxisWidth = 15;
};
"Letterink-NibStyleId" = 6;
}),
(521,7,o),
(614,53,o),
(663,135,c,{
"Letterink-NibData" = {
AngleInDegrees = -45;
MainAxisWidth = 8;
MinorAxisWidth = -15;
ValidForParentMainAxisWidth = 30;
ValidForParentMinorAxisWidth = 15;
};
"Letterink-NibStyleId" = 6;
})
);
}
);
userData = {
"Letterink-ComputationAllowed" = YES;
};
width = 725;
},
{
anchors = (
{
name = bottom;
pos = (371,0);
},
{
name = top;
pos = (383,684);
}
);
associatedMasterId = "49C16FD3-6177-408B-A733-AEB3898BB77C";
layerId = "3D02E95B-60B1-4244-8F26-D84725EF13C9";
name = "3 Jan 22, 15:07";
shapes = (
{
closed = 1;
nodes = (
(507,-21,o),
(630,33,o),
(680,140,c,{
"Letterink-NibData" = {
AngleInDegrees = 293.55226;
};
}),
(641,157,l,{
"Letterink-NibData" = {
AngleInDegrees = 204.62357;
};
}),
(608,85,o),
(527,18,o),
(390,19,cs,{
"Letterink-NibData" = {
AngleInDegrees = 270.40348;
};
}),
(248,20,o),
(102,149,o),
(102,343,cs),
(102,508,o),
(234,657,o),
(394,657,cs,{
"Letterink-NibData" = {
AngleInDegrees = 90;
};
}),
(475,657,o),
(572,621,o),
(572,548,cs,{
"Letterink-NibData" = {
AngleInDegrees = 180;
};
}),
(572,521,o),
(556,500,o),
(532,500,cs,{
"Letterink-NibData" = {
AngleInDegrees = 270;
};
}),
(519,500,o),
(502,510,o),
(495,523,c,{
"Letterink-NibData" = {
AngleInDegrees = 238.57043;
};
}),
(459,501,l,{
"Letterink-NibData" = {
AngleInDegrees = 149.03624;
};
}),
(477,471,o),
(504,458,o),
(531,458,cs,{
"Letterink-NibData" = {
AngleInDegrees = 90;
};
}),
(573,458,o),
(614,492,o),
(614,546,cs),
(614,639,o),
(506,697,o),
(395,697,cs,{
"Letterink-NibData" = {
AngleInDegrees = 270;
};
}),
(211,697,o),
(60,536,o),
(60,344,cs,{
"Letterink-NibData" = {
AngleInDegrees = 180;
};
}),
(60,159,o),
(191,-21,o),
(391,-21,cs,{
"Letterink-NibData" = {
AngleInDegrees = 90;
};
})
);
}
);
width = 718;
},
{
anchors = (
{
name = bottom;
pos = (402,0);
},
{
name = top;
pos = (393,684);
}
);
associatedMasterId = "873CAA12-270D-4223-A88E-AE8E101FDBE8";
layerId = "4600BD47-3F69-4DB6-A8A0-B943C0F8AB97";
name = "3 Jan 22, 15:16";
shapes = (
{
closed = 1;
nodes = (
(514,-22,o),
(637,36,o),
(688,145,c,{
"Letterink-NibData" = {
AngleInDegrees = 294.27444;
};
}),
(637,168,l,{
"Letterink-NibData" = {
AngleInDegrees = 204.02651;
};
}),
(600,85,o),
(503,32,o),
(401,32,cs,{
"Letterink-NibData" = {
AngleInDegrees = 270;
};
}),
(234,32,o),
(116,172,o),
(116,347,cs),
(116,504,o),
(238,652,o),
(392,652,cs,{
"Letterink-NibData" = {
AngleInDegrees = 90;
};
}),
(467,652,o),
(568,619,o),
(568,551,cs,{
"Letterink-NibData" = {
AngleInDegrees = 180;
};
}),
(568,527,o),
(553,508,o),
(534,508,cs,{
"Letterink-NibData" = {
AngleInDegrees = 270;
};
}),
(521,508,o),
(514,514,o),
(502,527,c,{
"Letterink-NibData" = {
AngleInDegrees = 239.21586;
};
}),
(455,499,l,{
"Letterink-NibData" = {
AngleInDegrees = 149.03624;
};
}),
(470,474,o),
(500,453,o),
(535,453,cs,{
"Letterink-NibData" = {
AngleInDegrees = 90;
};
}),
(584,453,o),
(622,496,o),
(622,550,cs),
(622,648,o),
(511,705,o),
(400,707,cs,{
"Letterink-NibData" = {
AngleInDegrees = 270.88595;
};
}),
(206,710,o),
(56,534,o),
(56,348,cs,{
"Letterink-NibData" = {
AngleInDegrees = 180;
};
}),
(56,144,o),
(195,-22,o),
(402,-22,cs,{
"Letterink-NibData" = {
AngleInDegrees = 90;
};
})
);
},
{
attr = {
strokeHeight = 38;
strokeWidth = 42;
};
closed = 0;
nodes = (
(484,527,l,{
"Letterink-NibData" = {
AngleInDegrees = 168.31063;
};
}),
(490,498,o),
(515,478,o),
(549,477,cs,{
"Letterink-NibData" = {
AngleInDegrees = 91.50744;
};
}),
(587,476,o),
(613,516,o),
(613,556,cs),
(613,630,o),
(522,690,o),
(401,684,cs,{
"Letterink-NibData" = {
AngleInDegrees = 267.13759;
};
}),
(221,675,o),
(84,532,o),
(84,330,cs,{
"Letterink-NibData" = {
AngleInDegrees = 180;
};
}),
(84,136,o),
(219,0,o),
(409,0,cs,{
"Letterink-NibData" = {
AngleInDegrees = 90;
};
}),
(507,0,o),
(602,52,o),
(648,130,c,{
"Letterink-NibData" = {
AngleInDegrees = 30.52971;
};
})
);
}
);
width = 721;
},
{
anchors = (
{
name = bottom;
pos = (378,-9);
},
{
name = top;
pos = (378,703);
}
);
associatedMasterId = "0CAF3BED-C4AC-4024-B3E1-4C69D1EF7EC0";
layerId = "430F94E4-6E0B-477D-BEA9-4D1159DC2E2A";
name = "3 Jan 22, 15:17";
shapes = (
{
closed = 1;
nodes = (
(505,-16,o),
(621,32,o),
(687,139,c,{
"Letterink-NibData" = {
AngleInDegrees = 303.88696;
};
}),
(620,184,l,{
"Letterink-NibData" = {
AngleInDegrees = 210.52971;
};
}),
(574,106,o),
(489,60,o),
(395,60,cs,{
"Letterink-NibData" = {
AngleInDegrees = 270;
};
}),
(243,60,o),
(133,184,o),
(133,337,cs),
(133,493,o),
(251,630,o),
(401,630,cs,{
"Letterink-NibData" = {
AngleInDegrees = 90;
};
}),
(464,630,o),
(558,604,o),
(558,552,cs,{
"Letterink-NibData" = {
AngleInDegrees = 180;
};
}),
(558,539,o),
(548,528,o),
(537,528,cs,{
"Letterink-NibData" = {
AngleInDegrees = 270;
};
}),
(530,528,o),
(520,532,o),
(515,539,c,{
"Letterink-NibData" = {
AngleInDegrees = 218.19868;
};
}),
(467,478,l,{
"Letterink-NibData" = {
AngleInDegrees = 135;
};
}),
(485,460,o),
(513,447,o),
(543,447,cs,{
"Letterink-NibData" = {
AngleInDegrees = 90;
};
}),
(594,447,o),
(638,494,o),
(638,551,cs),
(638,661,o),
(511,706,o),
(400,706,cs,{
"Letterink-NibData" = {
AngleInDegrees = 270;
};
}),
(207,706,o),
(53,536,o),
(53,337,cs,{
"Letterink-NibData" = {
AngleInDegrees = 180;
};
}),
(53,141,o),
(200,-16,o),
(394,-16,cs,{
"Letterink-NibData" = {
AngleInDegrees = 90;
};
})
);
}
);
width = 720;
},
{
anchors = (
{
name = bottom;
pos = (401,0);
},
{
name = top;
pos = (392,684);
}
);
associatedMasterId = "873CAA12-270D-4223-A88E-AE8E101FDBE8";
layerId = "4A3EEC79-1C4F-4806-8C6A-B2B50589AD5A";
name = "5 Jan 22, 07:54";
shapes = (
{
attr = {
strokeHeight = 54;
strokeWidth = 60;
};
closed = 0;
nodes = (
(481,524,l,{
"Letterink-NibData" = {
AngleInDegrees = 167.90524;
};
}),
(487,496,o),
(512,476,o),
(545,475,cs,{
"Letterink-NibData" = {
AngleInDegrees = 91.50744;
};
}),
(583,474,o),
(608,513,o),
(608,553,cs),
(608,626,o),
(519,685,o),
(399,679,cs,{
"Letterink-NibData" = {
AngleInDegrees = 267.08916;
};
}),
(222,670,o),
(87,529,o),
(87,330,cs,{
"Letterink-NibData" = {
AngleInDegrees = 180;
};
}),
(87,139,o),
(220,5,o),
(407,5,cs,{
"Letterink-NibData" = {
AngleInDegrees = 90;
};
}),
(504,5,o),
(597,56,o),
(643,133,c,{
"Letterink-NibData" = {
AngleInDegrees = 30.8542;
};
})
);
}
);
width = 720;
},
{
anchors = (
{
name = bottom;
pos = (377,0);
},
{
name = top;
pos = (389,684);
}
);
associatedMasterId = "49C16FD3-6177-408B-A733-AEB3898BB77C";
layerId = "BE458C1D-0A4B-40C4-BCF4-9649CDEB98A4";
name = "5 Jan 22, 08:01";
shapes = (
{
attr = {
strokeHeight = 38;
strokeWidth = 42;
};
closed = 0;
nodes = (
(484,527,l,{
"Letterink-NibData" = {
AngleInDegrees = 168.31063;
};
}),
(490,498,o),
(515,478,o),
(549,477,cs,{
"Letterink-NibData" = {
AngleInDegrees = 91.50744;
};
}),
(587,476,o),
(613,516,o),
(613,556,cs),
(613,630,o),
(520,690,o),
(396,684,cs,{
"Letterink-NibData" = {
AngleInDegrees = 267.08916;
};
}),
(219,675,o),
(84,532,o),
(84,330,cs,{
"Letterink-NibData" = {
AngleInDegrees = 180;
};
}),
(84,136,o),
(219,0,o),
(409,0,cs,{
"Letterink-NibData" = {
AngleInDegrees = 90;
};
}),
(507,0,o),
(602,52,o),
(648,130,c,{
"Letterink-NibData" = {
AngleInDegrees = 30.52971;
};
})
);
}
);
width = 724;
},
{
anchors = (
{
name = bottom;
pos = (377,31);
},
{
name = top;
pos = (377,662);
}
);
associatedMasterId = "0CAF3BED-C4AC-4024-B3E1-4C69D1EF7EC0";
layerId = "26DD77D8-93B1-4CFB-A5C5-84AD5242F402";
name = "5 Jan 22, 08:04";
shapes = (
{
attr = {
strokeHeight = 74;
strokeWidth = 80;
};
closed = 0;
nodes = (
(482,519,l,{
"Letterink-NibData" = {
AngleInDegrees = 169.50852;
};
}),
(487,492,o),
(511,472,o),
(540,471,cs,{
"Letterink-NibData" = {
AngleInDegrees = 91.33222;
};
}),
(583,470,o),
(608,508,o),
(608,546,cs),
(608,617,o),
(519,674,o),
(398,669,cs,{
"Letterink-NibData" = {
AngleInDegrees = 267.03906;
};
}),
(224,660,o),
(90,523,o),
(90,334,cs,{
"Letterink-NibData" = {
AngleInDegrees = 180;
};
}),
(90,145,o),
(222,15,o),
(396,15,cs,{
"Letterink-NibData" = {
AngleInDegrees = 90;
};
}),
(501,15,o),
(596,63,o),
(642,140,c,{
"Letterink-NibData" = {
AngleInDegrees = 30.8542;
};
})
);
}
);
width = 720;
}
);
metricLeft = O;
userData = {
position = 570;
width = 54;
};
},
{
glyphname = D;
kernLeft = E;
kernRight = O;
layers = (
{
anchors = (
{
name = bottom;
pos = (396,0);
},
{
name = center;
pos = (213,367);
},
{
name = top;
pos = (414,684);
}
);
hints = (
{
name = _corner.caps_left;
origin = (0,6);
type = Corner;
}
);
layerId = "873CAA12-270D-4223-A88E-AE8E101FDBE8";
shapes = (
{
closed = 1;
nodes = (
(595,-8,o),
(730,109,o),
(730,339,cs),
(730,540,o),
(599,685,o),
(413,689,c,{
"Letterink-NibData" = {
AngleInDegrees = 270.21785;
};
}),
(150,690,l,{
"Letterink-NibData" = {
AngleInDegrees = 180;
};
}),
(150,0,l,{
"Letterink-NibData" = {
AngleInDegrees = 96.07246;
};
}),
(197,-5,ls,{
"Letterink-NibData" = {
AngleInDegrees = 93.01279;
};
}),
(216,-6,o),
(296,-8,o),
(330,-8,cs,{
"Letterink-NibData" = {
AngleInDegrees = 90;
};
})
);
},
{
closed = 1;
nodes = (
(297,48,o),
(235,52,o),
(210,53,c),
(210,633,l,{
"Letterink-NibData" = {
AngleInDegrees = 90;
};
}),
(403,633,l,{
"Letterink-NibData" = {
AngleInDegrees = 90;
};
}),
(563,633,o),
(670,515,o),
(670,338,cs,{
"Letterink-NibData" = {
AngleInDegrees = 180;
};
}),
(670,149,o),
(552,48,o),
(332,48,cs,{
"Letterink-NibData" = {
AngleInDegrees = 270;
};
})
);
}
);
width = 787;
},
{
anchors = (
{
name = bottom;
pos = (406,0);
},
{
name = center;
pos = (239,367);
},
{
name = top;
pos = (424,675);
}
);
hints = (
{
name = _corner.caps_left;
origin = (0,6);
type = Corner;
}
);
layerId = "0CAF3BED-C4AC-4024-B3E1-4C69D1EF7EC0";
shapes = (
{
closed = 1;
nodes = (
(614,-9,o),
(742,106,o),
(742,342,cs),
(742,544,o),
(614,684,o),
(423,691,c,{
"Letterink-NibData" = {
AngleInDegrees = 270.21459;
};
}),
(156,692,l,{
"Letterink-NibData" = {
AngleInDegrees = 180;
};
}),
(156,1,l,{
"Letterink-NibData" = {
AngleInDegrees = 96.00901;
};
}),
(213,-5,ls,{
"Letterink-NibData" = {
AngleInDegrees = 93.01279;
};
}),
(232,-6,o),
(328,-9,o),
(352,-9,cs,{
"Letterink-NibData" = {
AngleInDegrees = 90;
};
})
);
},
{
closed = 1;
nodes = (
(331,66,o),
(266,69,o),
(238,71,c),
(238,615,l,{
"Letterink-NibData" = {
AngleInDegrees = 90;
};
}),
(412,615,l,{
"Letterink-NibData" = {
AngleInDegrees = 90;
};
}),
(564,615,o),
(660,509,o),
(660,342,cs,{
"Letterink-NibData" = {
AngleInDegrees = 180;
};
}),
(660,159,o),
(560,66,o),
(365,66,cs,{
"Letterink-NibData" = {
AngleInDegrees = 270;
};
})
);
}
);
width = 797;
},
{
anchors = (
{
name = bottom;
pos = (390,0);
},
{
name = center;
pos = (186,367);
},
{
name = top;
pos = (403,694);
}
);
hints = (
{
name = _corner.caps_left;
origin = (0,6);
type = Corner;
}
);
layerId = "49C16FD3-6177-408B-A733-AEB3898BB77C";
shapes = (
{
closed = 1;
nodes = (
(577,-8,o),
(717,100,o),
(717,331,cs),
(717,535,o),
(586,684,o),
(402,690,c,{
"Letterink-NibData" = {
AngleInDegrees = 270.22037;
};
}),
(142,691,l,{
"Letterink-NibData" = {
AngleInDegrees = 180;
};
}),
(142,0,l,{
"Letterink-NibData" = {
AngleInDegrees = 95.85601;
};
}),
(181,-4,ls,{
"Letterink-NibData" = {
AngleInDegrees = 93.81407;
};
}),
(211,-6,o),
(250,-8,o),
(277,-8,cs,{
"Letterink-NibData" = {
AngleInDegrees = 90;
};
})
);
},
{
closed = 1;
nodes = (
(251,32,o),
(227,33,o),
(184,36,c),
(184,650,l,{
"Letterink-NibData" = {
AngleInDegrees = 90;
};
}),
(392,650,l,{
"Letterink-NibData" = {
AngleInDegrees = 93.87852;
};
}),
(569,638,o),
(675,520,o),
(675,333,cs,{
"Letterink-NibData" = {
AngleInDegrees = 180;
};
}),
(675,132,o),
(549,32,o),
(295,32,cs,{
"Letterink-NibData" = {
AngleInDegrees = 270;
};
})
);
}
);
width = 779;
}
);
unicode = 68;
userData = {
position = 674;
width = 60;
};
},
{
glyphname = D.ss01;
kernLeft = L;
kernRight = O;
layers = (
{
anchors = (
{
name = bottom;
pos = (376,0);
},
{
name = center;
pos = (155,341);
},
{
name = top;
pos = (378,689);
}
);
layerId = "873CAA12-270D-4223-A88E-AE8E101FDBE8";
shapes = (
{
closed = 1;
nodes = (
(338,-10,ls,{
"Letterink-NibData" = {
AngleInDegrees = 90;
};
}),
(541,-10,o),
(680,132,o),
(680,341,cs),
(680,538,o),
(553,677,o),
(363,689,c,{
"Letterink-NibData" = {
AngleInDegrees = 270.21785;
};
}),
(100,690,l,{
"Letterink-NibData" = {
AngleInDegrees = 180;
};
}),
(100,633,l,{
"Letterink-NibData" = {
AngleInDegrees = 90;
};
}),
(353,633,l,{
"Letterink-NibData" = {
AngleInDegrees = 93.08481;
};
}),
(520,624,o),
(620,514,o),
(620,338,cs,{
"Letterink-NibData" = {
AngleInDegrees = 180;
};
}),
(620,150,o),
(506,45,o),
(300,45,cs,{
"Letterink-NibData" = {
AngleInDegrees = 270;
};
}),
(260,45,o),
(190,49,o),
(160,50,c),
(160,655,l,{
"Letterink-NibData" = {
AngleInDegrees = 270;
};
}),
(100,655,l,{
"Letterink-NibData" = {
AngleInDegrees = 180;
};
}),
(100,0,l,{
"Letterink-NibData" = {
AngleInDegrees = 94.86451;
};
}),
(147,-4,ls,{
"Letterink-NibData" = {
AngleInDegrees = 94.82077;
};
}),
(230,-11,o),
(233,-10,o),
(281,-10,cs,{
"Letterink-NibData" = {
AngleInDegrees = 90;
};
})
);
}
);
width = 737;
},
{
anchors = (
{
name = bottom;
pos = (349,-10);
},
{
name = center;
pos = (179,367);
},
{
name = top;
pos = (379,691);
}
);
layerId = "0CAF3BED-C4AC-4024-B3E1-4C69D1EF7EC0";
shapes = (
{
closed = 1;
nodes = (
(334,-10,ls,{
"Letterink-NibData" = {
AngleInDegrees = 90;
};
}),
(538,-10,o),
(682,136,o),
(682,342,cs),
(682,537,o),
(553,679,o),
(364,691,c,{
"Letterink-NibData" = {
AngleInDegrees = 270.21459;
};
}),
(97,692,l,{
"Letterink-NibData" = {
AngleInDegrees = 180;
};
}),
(97,615,l,{
"Letterink-NibData" = {
AngleInDegrees = 90;
};
}),
(353,615,l,{
"Letterink-NibData" = {
AngleInDegrees = 92.97373;
};
}),
(507,607,o),
(600,504,o),
(600,339,cs,{
"Letterink-NibData" = {
AngleInDegrees = 180;
};
}),
(600,163,o),
(494,65,o),
(302,65,cs,{
"Letterink-NibData" = {
AngleInDegrees = 270;
};
}),
(269,65,o),
(218,67,o),
(179,70,c),
(179,658,l,{
"Letterink-NibData" = {
AngleInDegrees = 270;
};
}),
(97,658,l,{
"Letterink-NibData" = {
AngleInDegrees = 180;
};
}),
(97,1,l,{
"Letterink-NibData" = {
AngleInDegrees = 95.10217;
};
}),
(153,-4,ls,{
"Letterink-NibData" = {
AngleInDegrees = 95.12819;
};
}),
(231,-11,o),
(241,-10,o),
(284,-10,cs,{
"Letterink-NibData" = {
AngleInDegrees = 90;
};
})
);
}
);
width = 735;
},
{
anchors = (
{
name = bottom;
pos = (285,-10);
},
{
name = center;
pos = (125,357);
},
{
name = top;
pos = (380,690);
}
);
layerId = "49C16FD3-6177-408B-A733-AEB3898BB77C";
shapes = (
{
closed = 1;
nodes = (
(344,-9,ls,{
"Letterink-NibData" = {
AngleInDegrees = 90;
};
}),
(547,-9,o),
(682,131,o),
(682,342,cs),
(682,541,o),
(557,678,o),
(365,690,c,{
"Letterink-NibData" = {
AngleInDegrees = 270.22037;
};
}),
(105,691,l,{
"Letterink-NibData" = {
AngleInDegrees = 180;
};
}),
(105,651,l,{
"Letterink-NibData" = {
AngleInDegrees = 90;
};
}),
(356,651,l,{
"Letterink-NibData" = {
AngleInDegrees = 93.25195;
};
}),
(532,641,o),
(639,523,o),
(639,339,cs,{
"Letterink-NibData" = {
AngleInDegrees = 180;
};
}),
(639,143,o),
(516,30,o),
(301,30,cs,{
"Letterink-NibData" = {
AngleInDegrees = 270;
};
}),
(256,30,o),
(167,35,o),
(147,35,c),
(147,655,l,{
"Letterink-NibData" = {
AngleInDegrees = 270;
};
}),
(105,655,l,{
"Letterink-NibData" = {
AngleInDegrees = 180;
};
}),
(105,0,l,{
"Letterink-NibData" = {
AngleInDegrees = 94.18492;
};
}),
(146,-3,ls,{
"Letterink-NibData" = {
AngleInDegrees = 94.20536;
};
}),
(214,-8,o),
(227,-9,o),
(282,-9,cs,{
"Letterink-NibData" = {
AngleInDegrees = 90;
};
})
);
}
);
width = 744;
}
);
userData = {
position = 674;
width = 60;
};
},
{
glyphname = D.swsh;
kernLeft = Swash;
kernRight = O;
layers = (
{
anchors = (
{
name = bottom;
pos = (407,0);
},
{
name = center;
pos = (428,0);
},
{
name = top;
pos = (428,0);
}
);
hints = (
{
name = _corner.caps_swash;
origin = (0,7);
type = Corner;
}
);
layerId = "873CAA12-270D-4223-A88E-AE8E101FDBE8";
shapes = (
{
closed = 1;
nodes = (
(397,-10,ls,{
"Letterink-NibData" = {
AngleInDegrees = 90;
};
}),
(602,-10,o),
(744,136,o),
(744,341,cs),
(744,533,o),
(620,689,o),
(427,689,c,{
"Letterink-NibData" = {
AngleInDegrees = 270.20174;
};
}),
(143,690,l,{
"Letterink-NibData" = {
AngleInDegrees = 180;
};
}),
(143,634,l,{
"Letterink-NibData" = {
AngleInDegrees = 90;
};
}),
(417,634,l,{
"Letterink-NibData" = {
AngleInDegrees = 90;
};
}),
(573,634,o),
(684,524,o),
(684,336,cs,{
"Letterink-NibData" = {
AngleInDegrees = 180;
};
}),
(684,157,o),
(583,45,o),
(357,45,cs,{
"Letterink-NibData" = {
AngleInDegrees = 270;
};
}),
(320,45,o),
(268,48,o),
(224,50,c),
(224,565,l,{
"Letterink-NibData" = {
AngleInDegrees = 270;
};
}),
(164,565,l,{
"Letterink-NibData" = {
AngleInDegrees = 180;
};
}),
(164,0,l,{
"Letterink-NibData" = {
AngleInDegrees = 94.86451;
};
}),
(211,-4,ls,{
"Letterink-NibData" = {
AngleInDegrees = 94.82077;
};
}),
(294,-11,o),
(297,-10,o),
(345,-10,cs,{
"Letterink-NibData" = {
AngleInDegrees = 90;
};
})
);
}
);
width = 800;
},
{
anchors = (
{
name = bottom;
pos = (409,0);
},
{
name = center;
pos = (434,11);
},
{
name = top;
pos = (434,11);
}
);
hints = (
{
name = _corner.caps_swash;
origin = (0,7);
type = Corner;
}
);
layerId = "0CAF3BED-C4AC-4024-B3E1-4C69D1EF7EC0";
shapes = (
{
closed = 1;
nodes = (
(403,-10,ls,{
"Letterink-NibData" = {
AngleInDegrees = 90;
};
}),
(607,-10,o),
(752,138,o),
(752,342,cs),
(752,532,o),
(625,678,o),
(433,690,c,{
"Letterink-NibData" = {
AngleInDegrees = 270.20033;
};
}),
(147,691,l,{
"Letterink-NibData" = {
AngleInDegrees = 180;
};
}),
(147,615,l,{
"Letterink-NibData" = {
AngleInDegrees = 90;
};
}),
(422,615,l,{
"Letterink-NibData" = {
AngleInDegrees = 93.55173;
};
}),
(567,606,o),
(670,517,o),
(670,342,cs,{
"Letterink-NibData" = {
AngleInDegrees = 180;
};
}),
(670,175,o),
(577,66,o),
(365,66,cs,{
"Letterink-NibData" = {
AngleInDegrees = 270;
};
}),
(332,66,o),
(290,69,o),
(248,71,c),
(248,559,l,{
"Letterink-NibData" = {
AngleInDegrees = 270;
};
}),
(166,559,l,{
"Letterink-NibData" = {
AngleInDegrees = 180;
};
}),
(166,1,l,{
"Letterink-NibData" = {
AngleInDegrees = 95.01311;
};
}),
(223,-4,ls,{
"Letterink-NibData" = {
AngleInDegrees = 94.93922;
};
}),
(304,-11,o),
(303,-10,o),
(353,-10,cs,{
"Letterink-NibData" = {
AngleInDegrees = 90;
};
})
);
}
);
width = 805;
},
{
anchors = (
{
name = bottom;
pos = (418,0);
},
{
name = center;
pos = (436,-8);
},
{
name = top;
pos = (436,-8);
}
);
hints = (
{
name = _corner.caps_swash;
origin = (0,7);
type = Corner;
}
);
layerId = "49C16FD3-6177-408B-A733-AEB3898BB77C";
shapes = (
{
closed = 1;
nodes = (
(415,-9,ls,{
"Letterink-NibData" = {
AngleInDegrees = 90;
};
}),
(603,-9,o),
(752,122,o),
(752,342,cs),
(752,535,o),
(637,690,o),
(435,690,c,{
"Letterink-NibData" = {
AngleInDegrees = 270.19689;
};
}),
(144,691,l,{
"Letterink-NibData" = {
AngleInDegrees = 180;
};
}),
(144,651,l,{
"Letterink-NibData" = {
AngleInDegrees = 90;
};
}),
(425,651,l,{
"Letterink-NibData" = {
AngleInDegrees = 90;
};
}),
(588,651,o),
(710,535,o),
(710,349,cs,{
"Letterink-NibData" = {
AngleInDegrees = 180;
};
}),
(710,161,o),
(601,30,o),
(387,30,cs,{
"Letterink-NibData" = {
AngleInDegrees = 270;
};
}),
(361,30,o),
(291,32,o),
(216,35,c),
(216,573,l,{
"Letterink-NibData" = {
AngleInDegrees = 270;
};
}),
(174,573,l,{
"Letterink-NibData" = {
AngleInDegrees = 180;
};
}),
(174,0,l,{
"Letterink-NibData" = {
AngleInDegrees = 94.28915;
};
}),
(214,-3,ls,{
"Letterink-NibData" = {
AngleInDegrees = 93.66779;
};
}),
(292,-8,o),
(304,-9,o),
(351,-9,cs,{
"Letterink-NibData" = {
AngleInDegrees = 90;
};
})
);
}
);
width = 814;
}
);
userData = {
position = 674;
width = 60;
};
},
{
glyphname = E;
kernLeft = E;
kernRight = E;
layers = (
{
anchors = (
{
name = bottom;
pos = (380,0);
},
{
name = ogonek;
pos = (588,0);
},
{
name = top;
pos = (369,684);
},
{
name = topleft;
pos = (32,684);
}
);
background = {
shapes = (
{
closed = 1;
nodes = (
(598,0,l),
(598,56,l),
(210,56,l),
(210,334,l),
(478,334,l),
(478,390,l),
(210,390,l),
(210,628,l),
(598,628,l),
(598,684,l),
(137,684,ls),
(107,684,o),
(83,671,o),
(64,652,cs),
(45,633,o),
(34,608,o),
(34,579,c),
(90,579,l),
(90,592,o),
(96,606,o),
(104,614,cs),
(114,624,o),
(124,628,o),
(150,628,c),
(150,0,l)
);
}
);
};
hints = (
{
name = _corner.caps_left;
origin = (0,10);
type = Corner;
}
);
layerId = "873CAA12-270D-4223-A88E-AE8E101FDBE8";
shapes = (
{
closed = 1;
nodes = (
(588,0,l),
(588,56,l,{
"Letterink-NibData" = {
AngleInDegrees = 270;
};
}),
(210,56,l),
(210,334,l,{
"Letterink-NibData" = {
AngleInDegrees = 90;
};
}),
(468,334,l),
(468,390,l,{
"Letterink-NibData" = {
AngleInDegrees = 270;
};
}),
(210,390,l),
(210,628,l,{
"Letterink-NibData" = {
AngleInDegrees = 90;
};
}),
(588,628,l),
(588,684,l,{
"Letterink-NibData" = {
AngleInDegrees = 270;
};
}),
(150,684,l,{
"Letterink-NibData" = {
AngleInDegrees = 180;
};
}),
(150,0,l,{
"Letterink-NibData" = {
AngleInDegrees = 90;
};
})
);
}
);
width = 634;
},
{
anchors = (
{
name = bottom;
pos = (391,11);
},
{
name = ogonek;
pos = (604,-1);
},
{
name = top;
pos = (381,684);
},
{
name = topleft;
pos = (40,684);
}
);
hints = (
{
name = _corner.caps_left;
origin = (0,10);
type = Corner;
}
);
layerId = "0CAF3BED-C4AC-4024-B3E1-4C69D1EF7EC0";
shapes = (
{
closed = 1;
nodes = (
(604,-1,l),
(604,75,l,{
"Letterink-NibData" = {
AngleInDegrees = 270;
};
}),
(238,75,l),
(238,325,l,{
"Letterink-NibData" = {
AngleInDegrees = 90;
};
}),
(488,325,l),
(488,401,l,{
"Letterink-NibData" = {
AngleInDegrees = 270;
};
}),
(238,401,l),
(238,610,l,{
"Letterink-NibData" = {
AngleInDegrees = 90;
};
}),
(604,610,l),
(604,686,l,{
"Letterink-NibData" = {
AngleInDegrees = 270;
};
}),
(156,686,l,{
"Letterink-NibData" = {
AngleInDegrees = 180;
};
}),
(156,-1,l,{
"Letterink-NibData" = {
AngleInDegrees = 90;
};
})
);
}
);
width = 651;
},
{
anchors = (
{
name = bottom;
pos = (369,-8);
},
{
name = ogonek;
pos = (571,1);
},
{
name = top;
pos = (358,693);
},
{
name = topleft;
pos = (40,684);
}
);
hints = (
{
name = _corner.caps_left;
origin = (0,10);
type = Corner;
}
);
layerId = "49C16FD3-6177-408B-A733-AEB3898BB77C";
shapes = (
{
closed = 1;
nodes = (
(571,1,l),
(571,41,l,{
"Letterink-NibData" = {
AngleInDegrees = 270;
};
}),
(185,41,l),
(185,344,l,{
"Letterink-NibData" = {
AngleInDegrees = 90;
};
}),
(448,344,l),
(448,384,l,{
"Letterink-NibData" = {
AngleInDegrees = 270;
};
}),
(185,384,l),
(185,645,l,{
"Letterink-NibData" = {
AngleInDegrees = 90;
};
}),
(571,645,l),
(571,685,l,{
"Letterink-NibData" = {
AngleInDegrees = 269.86613;
};
}),
(143,684,l,{
"Letterink-NibData" = {
AngleInDegrees = 180;
};
}),
(143,1,l,{
"Letterink-NibData" = {
AngleInDegrees = 90;
};
})
);
}
);
width = 619;
}
);
unicode = 69;
userData = {
position = 130;
width = 61;
};
},
{
glyphname = E.ss01;
kernLeft = L;
kernRight = E;
layers = (
{
anchors = (
{
name = bottom;
pos = (348,0);
},
{
name = ogonek;
pos = (558,0);
},
{
name = top;
pos = (343,684);
},
{
name = topleft;
pos = (34,684);
}
);
layerId = "873CAA12-270D-4223-A88E-AE8E101FDBE8";
shapes = (
{
closed = 1;
nodes = (
(558,0,l),
(558,56,l,{
"Letterink-NibData" = {
AngleInDegrees = 270;
};
}),
(159,56,l),
(159,334,l,{
"Letterink-NibData" = {
AngleInDegrees = 90;
};
}),
(438,334,l),
(438,390,l,{
"Letterink-NibData" = {
AngleInDegrees = 270;
};
}),
(159,390,l),
(159,628,l,{
"Letterink-NibData" = {
AngleInDegrees = 90;
};
}),
(538,628,l),
(538,684,l,{
"Letterink-NibData" = {
AngleInDegrees = 270;
};
}),
(99,684,l,{
"Letterink-NibData" = {
AngleInDegrees = 180;
};
}),
(99,0,l,{
"Letterink-NibData" = {
AngleInDegrees = 90;
};
})
);
}
);
width = 599;
},
{
anchors = (
{
name = bottom;
pos = (333,0);
},
{
name = ogonek;
pos = (564,-1);
},
{
name = top;
pos = (335,685);
},
{
name = topleft;
pos = (31,684);
}
);
layerId = "0CAF3BED-C4AC-4024-B3E1-4C69D1EF7EC0";
shapes = (
{
closed = 1;
nodes = (
(564,-1,l),
(564,75,l,{
"Letterink-NibData" = {
AngleInDegrees = 270;
};
}),
(177,75,l),
(177,325,l,{
"Letterink-NibData" = {
AngleInDegrees = 90;
};
}),
(448,325,l),
(448,401,l,{
"Letterink-NibData" = {
AngleInDegrees = 270;
};
}),
(177,401,l),
(177,610,l,{
"Letterink-NibData" = {
AngleInDegrees = 90;
};
}),
(545,610,l),
(545,686,l,{
"Letterink-NibData" = {
AngleInDegrees = 270;
};
}),
(97,686,l,{
"Letterink-NibData" = {
AngleInDegrees = 180;
};
}),
(97,-1,l,{
"Letterink-NibData" = {
AngleInDegrees = 90;
};
})
);
}
);
width = 607;
},
{
anchors = (
{
name = bottom;
pos = (301,-7);
},
{
name = ogonek;
pos = (556,1);
},
{
name = top;
pos = (348,687);
},
{
name = topleft;
pos = (38,684);
}
);
layerId = "49C16FD3-6177-408B-A733-AEB3898BB77C";
shapes = (
{
closed = 1;
nodes = (
(556,1,l),
(556,41,l,{
"Letterink-NibData" = {
AngleInDegrees = 270;
};
}),
(146,41,l),
(146,344,l,{
"Letterink-NibData" = {
AngleInDegrees = 90;
};
}),
(433,344,l),
(433,384,l,{
"Letterink-NibData" = {
AngleInDegrees = 270;
};
}),
(146,384,l),
(146,645,l,{
"Letterink-NibData" = {
AngleInDegrees = 90;
};
}),
(536,645,l),
(536,685,l,{
"Letterink-NibData" = {
AngleInDegrees = 270;
};
}),
(104,685,l,{
"Letterink-NibData" = {
AngleInDegrees = 180;
};
}),
(104,1,l,{
"Letterink-NibData" = {
AngleInDegrees = 90;
};
})
);
}
);
width = 600;
}
);
userData = {
position = 95;
width = 61;
};
},
{
glyphname = E.swsh;
kernLeft = Swash;
kernRight = E;
layers = (
{
anchors = (
{
name = bottom;
pos = (350,0);
},
{
name = ogonek;
pos = (604,0);
},
{
name = top;
pos = (350,0);
},
{
name = topleft;
pos = (33,684);
}
);
hints = (
{
name = _corner.caps_swash;
origin = (1,3);
type = Corner;
}
);
layerId = "873CAA12-270D-4223-A88E-AE8E101FDBE8";
shapes = (
{
closed = 1;
nodes = (
(594,0,l),
(594,56,l,{
"Letterink-NibData" = {
AngleInDegrees = 270;
};
}),
(216,56,l),
(216,334,l,{
"Letterink-NibData" = {
AngleInDegrees = 90;
};
}),
(474,334,l),
(474,390,l,{
"Letterink-NibData" = {
AngleInDegrees = 270;
};
}),
(216,390,l),
(216,572,l,{
"Letterink-NibData" = {
AngleInDegrees = 270;
};
}),
(156,572,l,{
"Letterink-NibData" = {
AngleInDegrees = 180;
};
}),
(156,0,l,{
"Letterink-NibData" = {
AngleInDegrees = 90;
};
})
);
},
{
closed = 1;
nodes = (
(143,628,l,{
"Letterink-NibData" = {
AngleInDegrees = 90;
};
}),
(594,628,l),
(594,684,l,{
"Letterink-NibData" = {
AngleInDegrees = 270;
};
}),
(143,684,l,{
"Letterink-NibData" = {
AngleInDegrees = 180;
};
})
);
}
);
width = 640;
},
{
anchors = (
{
name = bottom;
pos = (367,11);
},
{
name = ogonek;
pos = (625,-1);
},
{
name = top;
pos = (367,11);
},
{
name = topleft;
pos = (38,684);
}
);
hints = (
{
name = _corner.caps_swash;
origin = (1,3);
type = Corner;
}
);
layerId = "0CAF3BED-C4AC-4024-B3E1-4C69D1EF7EC0";
shapes = (
{
closed = 1;
nodes = (
(615,0,l),
(615,76,l,{
"Letterink-NibData" = {
AngleInDegrees = 270;
};
}),
(249,76,l),
(249,325,l,{
"Letterink-NibData" = {
AngleInDegrees = 90;
};
}),
(499,325,l),
(499,401,l,{
"Letterink-NibData" = {
AngleInDegrees = 270;
};
}),
(249,401,l),
(249,559,l,{
"Letterink-NibData" = {
AngleInDegrees = 270;
};
}),
(167,559,l,{
"Letterink-NibData" = {
AngleInDegrees = 180;
};
}),
(167,0,l,{
"Letterink-NibData" = {
AngleInDegrees = 90;
};
})
);
},
{
closed = 1;
nodes = (
(147,609,l,{
"Letterink-NibData" = {
AngleInDegrees = 90;
};
}),
(615,609,l),
(615,685,l,{
"Letterink-NibData" = {
AngleInDegrees = 270;
};
}),
(147,685,l,{
"Letterink-NibData" = {
AngleInDegrees = 180;
};
})
);
}
);
width = 663;
},
{
anchors = (
{
name = bottom;
pos = (363,-15);
},
{
name = ogonek;
pos = (607,1);
},
{
name = top;
pos = (363,-15);
},
{
name = topleft;
pos = (56,684);
}
);
hints = (
{
name = _corner.caps_swash;
origin = (1,3);
type = Corner;
}
);
layerId = "49C16FD3-6177-408B-A733-AEB3898BB77C";
shapes = (
{
closed = 1;
nodes = (
(597,0,l),
(597,40,l,{
"Letterink-NibData" = {
AngleInDegrees = 270;
};
}),
(208,40,l),
(208,344,l,{
"Letterink-NibData" = {
AngleInDegrees = 90;
};
}),
(474,344,l),
(474,384,l,{
"Letterink-NibData" = {
AngleInDegrees = 270;
};
}),
(208,384,l),
(208,570,l,{
"Letterink-NibData" = {
AngleInDegrees = 270;
};
}),
(166,570,l,{
"Letterink-NibData" = {
AngleInDegrees = 180;
};
}),
(166,0,l,{
"Letterink-NibData" = {
AngleInDegrees = 90;
};
})
);
},
{
closed = 1;
nodes = (
(144,644,l,{
"Letterink-NibData" = {
AngleInDegrees = 90;
};
}),
(597,644,l),
(597,684,l,{
"Letterink-NibData" = {
AngleInDegrees = 270;
};
}),
(144,684,l,{
"Letterink-NibData" = {
AngleInDegrees = 180;
};
})
);
}
);
width = 644;
}
);
userData = {
position = 130;
width = 61;
};
},
{
glyphname = Schwa;
kernLeft = O;
kernRight = O;
layers = (
{
anchors = (
{
name = bottom;
pos = (436,1004);
},
{
name = ogonek;
pos = (120,882);
},
{
name = top;
pos = (429,-29);
}
);
layerId = "49C16FD3-6177-408B-A733-AEB3898BB77C";
shapes = (
{
closed = 1;
nodes = (
(321,978,o),
(212,941,o),
(120,882,c,{
"Letterink-NibData" = {
AngleInDegrees = 150.25512;
};
}),
(136,854,l,{
"Letterink-NibData" = {
AngleInDegrees = 62.02053;
};
}),
(232,905,o),
(314,940,o),
(430,940,cs,{
"Letterink-NibData" = {
AngleInDegrees = 90;
};
}),
(758,940,o),
(788,620,o),
(788,509,cs,{
"Letterink-NibData" = {
AngleInDegrees = 180;
};
}),
(788,183,o),
(624,10,o),
(437,10,cs,{
"Letterink-NibData" = {
AngleInDegrees = 270;
};
}),
(262,10,o),
(118,162,o),
(118,367,cs),
(118,400,o),
(120,439,o),
(127,482,c,{
"Letterink-NibData" = {
AngleInDegrees = 270;
};
}),
(88,482,l,{
"Letterink-NibData" = {
AngleInDegrees = 185.85601;
};
}),
(84,443,o),
(82,411,o),
(82,373,cs,{
"Letterink-NibData" = {
AngleInDegrees = 180;
};
}),
(82,139,o),
(222,-19,o),
(436,-19,cs,{
"Letterink-NibData" = {
AngleInDegrees = 90;
};
}),
(693,-19,o),
(827,222,o),
(827,509,cs),
(827,792,o),
(693,978,o),
(437,978,cs,{
"Letterink-NibData" = {
AngleInDegrees = 270;
};
})
);
},
{
closed = 1;
nodes = (
(122,482,l,{
"Letterink-NibData" = {
AngleInDegrees = 180;
};
}),
(122,442,l,{
"Letterink-NibData" = {
AngleInDegrees = 90;
};
}),
(791,442,l),
(791,482,l,{
"Letterink-NibData" = {
AngleInDegrees = 270;
};
})
);
}
);
userData = {
RMXScaler = {
height = 140;
weight = -145;
width = 135;
};
};
width = 920;
},
{
anchors = (
{
name = bottom;
pos = (440,997);
},
{
name = ogonek;
pos = (116,882);
},
{
name = top;
pos = (436,-27);
}
);
layerId = "873CAA12-270D-4223-A88E-AE8E101FDBE8";
shapes = (
{
closed = 1;
nodes = (
(323,982,o),
(210,944,o),
(116,882,c,{
"Letterink-NibData" = {
AngleInDegrees = 149.03624;
};
}),
(140,842,l,{
"Letterink-NibData" = {
AngleInDegrees = 61.83747;
};
}),
(239,895,o),
(320,930,o),
(433,930,cs,{
"Letterink-NibData" = {
AngleInDegrees = 90;
};
}),
(751,930,o),
(778,620,o),
(778,511,cs,{
"Letterink-NibData" = {
AngleInDegrees = 180;
};
}),
(778,192,o),
(621,26,o),
(440,26,cs,{
"Letterink-NibData" = {
AngleInDegrees = 270;
};
}),
(271,26,o),
(133,171,o),
(133,371,cs),
(133,401,o),
(135,444,o),
(143,491,c,{
"Letterink-NibData" = {
AngleInDegrees = 270;
};
}),
(87,491,l,{
"Letterink-NibData" = {
AngleInDegrees = 186.07246;
};
}),
(82,444,o),
(80,408,o),
(80,376,cs,{
"Letterink-NibData" = {
AngleInDegrees = 180;
};
}),
(80,141,o),
(226,-20,o),
(439,-20,cs,{
"Letterink-NibData" = {
AngleInDegrees = 90;
};
}),
(697,-20,o),
(834,225,o),
(834,511,cs),
(834,792,o),
(697,982,o),
(440,982,cs,{
"Letterink-NibData" = {
AngleInDegrees = 270;
};
})
);
},
{
closed = 1;
nodes = (
(122,491,l,{
"Letterink-NibData" = {
AngleInDegrees = 180;
};
}),
(122,437,l,{
"Letterink-NibData" = {
AngleInDegrees = 90;
};
}),
(797,437,l),
(797,491,l,{
"Letterink-NibData" = {
AngleInDegrees = 270;
};
})
);
}
);
userData = {
RMXScaler = {
height = 140;
weight = -145;
width = 135;
};
};
width = 923;
},
{
anchors = (
{
name = bottom;
pos = (445,990);
},
{
name = ogonek;
pos = (111,882);
},
{
name = top;
pos = (445,-20);
}
);
layerId = "0CAF3BED-C4AC-4024-B3E1-4C69D1EF7EC0";
shapes = (
{
closed = 1;
nodes = (
(317,990,o),
(199,944,o),
(111,882,c,{
"Letterink-NibData" = {
AngleInDegrees = 149.03624;
};
}),
(147,822,l,{
"Letterink-NibData" = {
AngleInDegrees = 61.34817;
};
}),
(244,875,o),
(327,912,o),
(438,912,cs,{
"Letterink-NibData" = {
AngleInDegrees = 90;
};
}),
(740,912,o),
(761,621,o),
(761,515,cs,{
"Letterink-NibData" = {
AngleInDegrees = 180;
};
}),
(761,211,o),
(616,51,o),
(446,51,cs,{
"Letterink-NibData" = {
AngleInDegrees = 270;
};
}),
(287,51,o),
(157,189,o),
(157,377,cs),
(157,415,o),
(161,456,o),
(171,509,c,{
"Letterink-NibData" = {
AngleInDegrees = 270;
};
}),
(81,509,l,{
"Letterink-NibData" = {
AngleInDegrees = 185.07961;
};
}),
(77,464,o),
(73,418,o),
(73,382,cs,{
"Letterink-NibData" = {
AngleInDegrees = 180;
};
}),
(73,147,o),
(231,-20,o),
(444,-20,cs,{
"Letterink-NibData" = {
AngleInDegrees = 90;
};
}),
(706,-20,o),
(845,232,o),
(845,514,cs),
(845,795,o),
(704,990,o),
(446,990,cs,{
"Letterink-NibData" = {
AngleInDegrees = 270;
};
})
);
},
{
closed = 1;
nodes = (
(120,509,l,{
"Letterink-NibData" = {
AngleInDegrees = 180;
};
}),
(120,429,l,{
"Letterink-NibData" = {
AngleInDegrees = 90;
};
}),
(809,429,l),
(809,509,l,{
"Letterink-NibData" = {
AngleInDegrees = 270;
};
})
);
}
);
userData = {
RMXScaler = {
height = 140;
weight = -120;
width = 135;
};
};
width = 927;
}
);
unicode = 399;
userData = {
RMXScaler = {
source = e.ss01;
};
};
},
{
glyphname = F;
kernLeft = E;
kernRight = F;
layers = (
{
anchors = (
{
name = bottom;
pos = (317,0);
},
{
name = top;
pos = (317,684);
}
);
hints = (
{
name = _corner.caps_left;
origin = (0,8);
type = Corner;
}
);
layerId = "873CAA12-270D-4223-A88E-AE8E101FDBE8";
shapes = (
{
closed = 1;
nodes = (
(210,-1,l),
(210,333,l,{
"Letterink-NibData" = {
AngleInDegrees = 90;
};
}),
(468,333,l),
(468,389,l,{
"Letterink-NibData" = {
AngleInDegrees = 270;
};
}),
(210,389,l),
(210,627,l,{
"Letterink-NibData" = {
AngleInDegrees = 90;
};
}),
(568,627,l),
(568,683,l,{
"Letterink-NibData" = {
AngleInDegrees = 270;
};
}),
(150,683,l,{
"Letterink-NibData" = {
AngleInDegrees = 180;
};
}),
(150,-1,l,{
"Letterink-NibData" = {
AngleInDegrees = 90;
};
})
);
}
);
width = 622;
},
{
anchors = (
{
name = bottom;
pos = (330,0);
},
{
name = top;
pos = (330,684);
}
);
hints = (
{
name = _corner.caps_left;
origin = (0,8);
type = Corner;
}
);
layerId = "0CAF3BED-C4AC-4024-B3E1-4C69D1EF7EC0";
shapes = (
{
closed = 1;
nodes = (
(238,-1,l),
(238,323,l,{
"Letterink-NibData" = {
AngleInDegrees = 90;
};
}),
(488,323,l),
(488,400,l,{
"Letterink-NibData" = {
AngleInDegrees = 270;
};
}),
(238,400,l),
(238,609,l,{
"Letterink-NibData" = {
AngleInDegrees = 90;
};
}),
(584,609,l),
(584,685,l,{
"Letterink-NibData" = {
AngleInDegrees = 270;
};
}),
(155,685,l,{
"Letterink-NibData" = {
AngleInDegrees = 179.91648;
};
}),
(156,-1,l,{
"Letterink-NibData" = {
AngleInDegrees = 90;
};
})
);
}
);
width = 638;
},
{
anchors = (
{
name = bottom;
pos = (302,0);
},
{
name = top;
pos = (302,684);
}
);
hints = (
{
name = _corner.caps_left;
origin = (0,8);
type = Corner;
}
);
layerId = "49C16FD3-6177-408B-A733-AEB3898BB77C";
shapes = (
{
closed = 1;
nodes = (
(184,0,l),
(184,343,l,{
"Letterink-NibData" = {
AngleInDegrees = 90;
};
}),
(450,343,l),
(450,383,l,{
"Letterink-NibData" = {
AngleInDegrees = 270;
};
}),
(184,383,l),
(184,644,l,{
"Letterink-NibData" = {
AngleInDegrees = 90;
};
}),
(552,644,l),
(552,684,l,{
"Letterink-NibData" = {
AngleInDegrees = 270;
};
}),
(142,684,l,{
"Letterink-NibData" = {
AngleInDegrees = 180;
};
}),
(142,0,l,{
"Letterink-NibData" = {
AngleInDegrees = 90;
};
})
);
}
);
width = 609;
}
);
unicode = 70;
userData = {
position = 129;
width = 61;
};
},
{
glyphname = F.ss01;
kernLeft = L;
kernRight = F;
layers = (
{
anchors = (
{
name = bottom;
pos = (292,0);
},
{
name = top;
pos = (292,684);
}
);
layerId = "873CAA12-270D-4223-A88E-AE8E101FDBE8";
shapes = (
{
closed = 1;
nodes = (
(160,0,l),
(160,325,l,{
"Letterink-NibData" = {
AngleInDegrees = 90;
};
}),
(447,325,l),
(447,382,l,{
"Letterink-NibData" = {
AngleInDegrees = 270;
};
}),
(160,382,l),
(160,627,l,{
"Letterink-NibData" = {
AngleInDegrees = 90;
};
}),
(517,627,l),
(517,684,l,{
"Letterink-NibData" = {
AngleInDegrees = 270;
};
}),
(99,684,l,{
"Letterink-NibData" = {
AngleInDegrees = 180;
};
}),
(99,0,l,{
"Letterink-NibData" = {
AngleInDegrees = 90;
};
})
);
}
);
width = 571;
},
{
anchors = (
{
name = bottom;
pos = (296,0);
},
{
name = top;
pos = (296,684);
}
);
layerId = "0CAF3BED-C4AC-4024-B3E1-4C69D1EF7EC0";
shapes = (
{
closed = 1;
nodes = (
(179,-1,l),
(179,315,l,{
"Letterink-NibData" = {
AngleInDegrees = 90;
};
}),
(457,315,l),
(457,393,l,{
"Letterink-NibData" = {
AngleInDegrees = 270;
};
}),
(179,393,l),
(179,608,l,{
"Letterink-NibData" = {
AngleInDegrees = 90;
};
}),
(525,608,l),
(525,686,l,{
"Letterink-NibData" = {
AngleInDegrees = 270;
};
}),
(97,686,l,{
"Letterink-NibData" = {
AngleInDegrees = 180;
};
}),
(97,-1,l,{
"Letterink-NibData" = {
AngleInDegrees = 90;
};
})
);
}
);
width = 579;
},
{
anchors = (
{
name = bottom;
pos = (284,0);
},
{
name = top;
pos = (284,684);
}
);
layerId = "49C16FD3-6177-408B-A733-AEB3898BB77C";
shapes = (
{
closed = 1;
nodes = (
(149,1,l),
(149,335,l,{
"Letterink-NibData" = {
AngleInDegrees = 90;
};
}),
(444,335,l),
(444,374,l,{
"Letterink-NibData" = {
AngleInDegrees = 270;
};
}),
(149,374,l),
(149,644,l,{
"Letterink-NibData" = {
AngleInDegrees = 90;
};
}),
(516,644,l),
(516,685,l,{
"Letterink-NibData" = {
AngleInDegrees = 270;
};
}),
(104,685,l,{
"Letterink-NibData" = {
AngleInDegrees = 180;
};
}),
(104,1,l,{
"Letterink-NibData" = {
AngleInDegrees = 90;
};
})
);
}
);
width = 573;
}
);
userData = {
position = 95;
width = 61;
};
},
{
glyphname = F.swsh;
kernLeft = E.swsh;
kernRight = F;
layers = (
{
hints = (
{
name = _corner.caps_swash;
origin = (1,3);
type = Corner;
}
);
layerId = "873CAA12-270D-4223-A88E-AE8E101FDBE8";
shapes = (
{
closed = 1;
nodes = (
(217,-1,l),
(217,333,l,{
"Letterink-NibData" = {
AngleInDegrees = 90;
};
}),
(474,333,l),
(474,389,l,{
"Letterink-NibData" = {
AngleInDegrees = 270;
};
}),
(217,389,l),
(217,569,l,{
"Letterink-NibData" = {
AngleInDegrees = 270;
};
}),
(156,569,l,{
"Letterink-NibData" = {
AngleInDegrees = 180;
};
}),
(156,-1,l,{
"Letterink-NibData" = {
AngleInDegrees = 90;
};
})
);
},
{
closed = 1;
nodes = (
(143,627,l,{
"Letterink-NibData" = {
AngleInDegrees = 90;
};
}),
(574,627,l),
(574,683,l,{
"Letterink-NibData" = {
AngleInDegrees = 270;
};
}),
(143,683,l,{
"Letterink-NibData" = {
AngleInDegrees = 180;
};
})
);
}
);
width = 628;
},
{
hints = (
{
name = _corner.caps_swash;
origin = (1,3);
type = Corner;
}
);
layerId = "0CAF3BED-C4AC-4024-B3E1-4C69D1EF7EC0";
shapes = (
{
closed = 1;
nodes = (
(250,-1,l),
(250,324,l,{
"Letterink-NibData" = {
AngleInDegrees = 90;
};
}),
(499,324,l),
(499,400,l,{
"Letterink-NibData" = {
AngleInDegrees = 270;
};
}),
(250,400,l),
(250,559,l,{
"Letterink-NibData" = {
AngleInDegrees = 270;
};
}),
(167,559,l,{
"Letterink-NibData" = {
AngleInDegrees = 180;
};
}),
(167,-1,l,{
"Letterink-NibData" = {
AngleInDegrees = 90;
};
})
);
},
{
closed = 1;
nodes = (
(147,608,l,{
"Letterink-NibData" = {
AngleInDegrees = 90;
};
}),
(595,608,l),
(595,684,l,{
"Letterink-NibData" = {
AngleInDegrees = 270;
};
}),
(147,684,l,{
"Letterink-NibData" = {
AngleInDegrees = 180;
};
})
);
}
);
width = 649;
},
{
hints = (
{
name = _corner.caps_swash;
origin = (1,3);
type = Corner;
}
);
layerId = "49C16FD3-6177-408B-A733-AEB3898BB77C";
shapes = (
{
closed = 1;
nodes = (
(208,0,l),
(208,343,l,{
"Letterink-NibData" = {
AngleInDegrees = 90;
};
}),
(474,343,l),
(474,383,l,{
"Letterink-NibData" = {
AngleInDegrees = 270;
};
}),
(208,383,l),
(208,569,l,{
"Letterink-NibData" = {
AngleInDegrees = 270;
};
}),
(166,569,l,{
"Letterink-NibData" = {
AngleInDegrees = 180;
};
}),
(166,0,l,{
"Letterink-NibData" = {
AngleInDegrees = 90;
};
})
);
},
{
closed = 1;
nodes = (
(144,644,l,{
"Letterink-NibData" = {
AngleInDegrees = 90;
};
}),
(577,644,l),
(577,684,l,{
"Letterink-NibData" = {
AngleInDegrees = 270;
};
}),
(144,684,l,{
"Letterink-NibData" = {
AngleInDegrees = 180;
};
})
);
}
);
width = 634;
}
);
userData = {
position = 129;
width = 61;
};
},
{
glyphname = G;
kernLeft = O;
kernRight = O;
layers = (
{
anchors = (
{
name = bottom;
pos = (387,-22);
},
{
name = top;
pos = (391,694);
}
);
background = {
shapes = (
{
closed = 1;
nodes = (
(596,-17,o),
(740,130,o),
(740,330,cs),
(740,349,ls),
(740,548,o),
(592,700,o),
(398,700,cs,{
"Letterink-NibData" = {
AngleInDegrees = "270";
};
}),
(205,700,o),
(57,548,o),
(57,349,cs,{
"Letterink-NibData" = {
AngleInDegrees = "180";
};
}),
(57,330,ls,{
"Letterink-NibData" = {
AngleInDegrees = "180";
};
}),
(57,133,o),
(206,-17,o),
(402,-17,cs,{
"Letterink-NibData" = {
AngleInDegrees = "90";
};
})
);
},
{
closed = 1;
nodes = (
(238,39,o),
(117,163,o),
(117,330,cs),
(117,349,ls),
(117,516,o),
(239,644,o),
(397,644,cs,{
"Letterink-NibData" = {
AngleInDegrees = "90";
};
}),
(557,644,o),
(680,517,o),
(680,349,cs,{
"Letterink-NibData" = {
AngleInDegrees = "180";
};
}),
(680,330,ls,{
"Letterink-NibData" = {
AngleInDegrees = "180";
};
}),
(680,163,o),
(559,39,o),
(399,39,cs,{
"Letterink-NibData" = {
AngleInDegrees = "270";
};
})
);
}
);
};
layerId = "873CAA12-270D-4223-A88E-AE8E101FDBE8";
shapes = (
{
closed = 0;
nodes = (
(505,486,l,{
"Letterink-NibData" = {
AngleInDegrees = -45;
MainAxisWidth = 26;
MinorAxisWidth = -15;
ValidForParentMainAxisWidth = 30;
ValidForParentMinorAxisWidth = 15;
};
"Letterink-NibStyleId" = 8;
}),
(516,478,o),
(532,473,o),
(548,473,cs,{
"Letterink-NibData" = {
AngleInDegrees = -45;
MainAxisWidth = 26;
MinorAxisWidth = -15;
ValidForParentMainAxisWidth = 30;
ValidForParentMinorAxisWidth = 15;
};
"Letterink-NibStyleId" = 8;
}),
(583,473,o),
(611,505,o),
(611,544,cs,{
"Letterink-NibData" = {
AngleInDegrees = -45;
MainAxisWidth = 26;
MinorAxisWidth = -15;
ValidForParentMainAxisWidth = 30;
ValidForParentMinorAxisWidth = 15;
};
"Letterink-NibStyleId" = 8;
}),
(611,619,o),
(522,671,o),
(397,671,cs,{
"Letterink-NibData" = {
AngleInDegrees = -45;
MainAxisWidth = 26;
MinorAxisWidth = -15;
ValidForParentMainAxisWidth = 30;
ValidForParentMinorAxisWidth = 15;
};
"Letterink-NibStyleId" = 8;
}),
(221,671,o),
(86,538,o),
(86,328,cs,{
"Letterink-NibData" = {
AngleInDegrees = -45;
MainAxisWidth = 30;
MinorAxisWidth = -15;
ValidForParentMainAxisWidth = 30;
ValidForParentMinorAxisWidth = 15;
};
"Letterink-NibStyleId" = 8;
}),
(86,142,o),
(209,11,o),
(405,11,cs,{
"Letterink-NibData" = {
AngleInDegrees = -45;
MainAxisWidth = 26;
MinorAxisWidth = -15;
ValidForParentMainAxisWidth = 30;
ValidForParentMinorAxisWidth = 15;
};
"Letterink-NibStyleId" = 8;
}),
(583,11,o),
(672,132,o),
(672,303,c,{
"Letterink-NibData" = {
AngleInDegrees = -45;
MainAxisWidth = 26;
MinorAxisWidth = -15;
ValidForParentMainAxisWidth = 30;
ValidForParentMinorAxisWidth = 15;
};
"Letterink-NibStyleId" = 8;
}),
(400,303,l,{
"Letterink-NibData" = {
AngleInDegrees = -45;
MainAxisWidth = 26;
MinorAxisWidth = -15;
ValidForParentMainAxisWidth = 30;
ValidForParentMinorAxisWidth = 15;
};
"Letterink-NibStyleId" = 8;
})
);
}
);
userData = {
"Letterink-ComputationAllowed" = YES;
};
width = 728;
},
{
anchors = (
{
name = bottom;
pos = (390,-9);
},
{
name = top;
pos = (390,703);
}
);
background = {
shapes = (
{
closed = 1;
nodes = (
(593,-25,o),
(739,126,o),
(739,326,cs),
(739,355,ls),
(739,548,o),
(587,702,o),
(397,702,cs,{
"Letterink-NibData" = {
AngleInDegrees = "270";
};
}),
(207,702,o),
(56,548,o),
(56,355,cs,{
"Letterink-NibData" = {
AngleInDegrees = "180";
};
}),
(56,326,ls,{
"Letterink-NibData" = {
AngleInDegrees = "180";
};
}),
(56,126,o),
(200,-19,o),
(401,-22,cs,{
"Letterink-NibData" = {
AngleInDegrees = "90.89517371732774";
};
})
);
},
{
closed = 1;
nodes = (
(250,54,o),
(138,170,o),
(138,326,cs),
(138,355,ls),
(138,504,o),
(252,626,o),
(396,626,cs,{
"Letterink-NibData" = {
AngleInDegrees = "90";
};
}),
(542,626,o),
(657,504,o),
(657,355,cs,{
"Letterink-NibData" = {
AngleInDegrees = "180";
};
}),
(657,326,ls,{
"Letterink-NibData" = {
AngleInDegrees = "180";
};
}),
(657,170,o),
(545,54,o),
(398,54,cs,{
"Letterink-NibData" = {
AngleInDegrees = "270";
};
})
);
}
);
};
layerId = "0CAF3BED-C4AC-4024-B3E1-4C69D1EF7EC0";
shapes = (
{
closed = 0;
nodes = (
(513,484,l,{
"Letterink-NibData" = {
AngleInDegrees = -45;
MainAxisWidth = 42;
MinorAxisWidth = -15;
ValidForParentMainAxisWidth = 30;
ValidForParentMinorAxisWidth = 15;
};
"Letterink-NibStyleId" = "4";
}),
(528,474,o),
(544,471,o),
(556,471,cs,{
"Letterink-NibData" = {
AngleInDegrees = -45;
MainAxisWidth = 44;
MinorAxisWidth = -15;
ValidForParentMainAxisWidth = 30;
ValidForParentMinorAxisWidth = 15;
};
"Letterink-NibStyleId" = "4";
}),
(591,471,o),
(620,502,o),
(620,541,cs,{
"Letterink-NibData" = {
AngleInDegrees = -45;
MainAxisWidth = 50;
MinorAxisWidth = -15;
ValidForParentMainAxisWidth = 30;
ValidForParentMinorAxisWidth = 15;
};
"Letterink-NibStyleId" = "9";
}),
(620,614,o),
(531,665,o),
(409,665,cs,{
"Letterink-NibData" = {
AngleInDegrees = -45;
MainAxisWidth = 46;
MinorAxisWidth = -15;
ValidForParentMainAxisWidth = 30;
ValidForParentMinorAxisWidth = 15;
};
"Letterink-NibStyleId" = "10";
}),
(232,665,o),
(96,535,o),
(96,329,cs,{
"Letterink-NibData" = {
AngleInDegrees = -45;
MainAxisWidth = 50;
MinorAxisWidth = -15;
ValidForParentMainAxisWidth = 30;
ValidForParentMinorAxisWidth = 15;
};
"Letterink-NibStyleId" = "9";
}),
(96,146,o),
(230,18,o),
(418,18,cs,{
"Letterink-NibData" = {
AngleInDegrees = -45;
MainAxisWidth = 44;
MinorAxisWidth = -15;
ValidForParentMainAxisWidth = 30;
ValidForParentMinorAxisWidth = 15;
};
"Letterink-NibStyleId" = "4";
}),
(583,18,o),
(670,151,o),
(667,304,c,{
"Letterink-NibData" = {
AngleInDegrees = -45;
MainAxisWidth = 46;
MinorAxisWidth = -15;
ValidForParentMainAxisWidth = 30;
ValidForParentMinorAxisWidth = 15;
};
"Letterink-NibStyleId" = 10;
}),
(392,304,l,{
"Letterink-NibData" = {
AngleInDegrees = -45;
MainAxisWidth = 46;
MinorAxisWidth = -15;
ValidForParentMainAxisWidth = 30;
ValidForParentMinorAxisWidth = 15;
};
"Letterink-NibStyleId" = 10;
})
);
}
);
userData = {
"Letterink-ComputationAllowed" = YES;
};
width = 734;
},
{
anchors = (
{
name = bottom;
pos = (392,-35);
},
{
name = top;
pos = (402,683);
}
);
background = {
shapes = (
{
closed = 1;
nodes = (
(603,-14,o),
(745,131,o),
(745,331,cs),
(745,350,ls),
(745,550,o),
(597,702,o),
(403,702,cs,{
"Letterink-NibData" = {
AngleInDegrees = "270";
};
}),
(209,702,o),
(63,551,o),
(63,350,cs,{
"Letterink-NibData" = {
AngleInDegrees = "180";
};
}),
(63,331,ls,{
"Letterink-NibData" = {
AngleInDegrees = "180";
};
}),
(63,133,o),
(210,-14,o),
(407,-14,cs,{
"Letterink-NibData" = {
AngleInDegrees = "90";
};
})
);
},
{
closed = 1;
nodes = (
(233,24,o),
(105,156,o),
(105,331,cs),
(105,350,ls),
(105,526,o),
(234,662,o),
(402,662,cs,{
"Letterink-NibData" = {
AngleInDegrees = "90";
};
}),
(571,662,o),
(703,526,o),
(703,350,cs,{
"Letterink-NibData" = {
AngleInDegrees = "180";
};
}),
(703,331,ls,{
"Letterink-NibData" = {
AngleInDegrees = "180";
};
}),
(703,156,o),
(574,24,o),
(404,24,cs,{
"Letterink-NibData" = {
AngleInDegrees = "270";
};
})
);
}
);
};
layerId = "49C16FD3-6177-408B-A733-AEB3898BB77C";
shapes = (
{
closed = 0;
nodes = (
(510,493,l,{
"Letterink-NibData" = {
AngleInDegrees = -45;
MainAxisWidth = 12;
MinorAxisWidth = -15;
ValidForParentMainAxisWidth = 30;
ValidForParentMinorAxisWidth = 15;
};
"Letterink-NibStyleId" = 7;
}),
(524,483,o),
(541,480,o),
(553,480,cs,{
"Letterink-NibData" = {
AngleInDegrees = -45;
MainAxisWidth = 12;
MinorAxisWidth = -15;
ValidForParentMainAxisWidth = 30;
ValidForParentMinorAxisWidth = 15;
};
"Letterink-NibStyleId" = 7;
}),
(588,480,o),
(616,513,o),
(616,552,cs,{
"Letterink-NibData" = {
AngleInDegrees = -45;
MainAxisWidth = 12;
MinorAxisWidth = -15;
ValidForParentMainAxisWidth = 30;
ValidForParentMinorAxisWidth = 15;
};
"Letterink-NibStyleId" = 7;
}),
(616,610,o),
(532,684,o),
(397,684,cs,{
"Letterink-NibData" = {
AngleInDegrees = -45;
MainAxisWidth = 12;
MinorAxisWidth = -15;
ValidForParentMainAxisWidth = 30;
ValidForParentMinorAxisWidth = 15;
};
"Letterink-NibStyleId" = 7;
}),
(221,684,o),
(86,548,o),
(86,334,cs,{
"Letterink-NibData" = {
AngleInDegrees = -45;
MainAxisWidth = 12;
MinorAxisWidth = -15;
ValidForParentMainAxisWidth = 30;
ValidForParentMinorAxisWidth = 15;
};
"Letterink-NibStyleId" = 7;
}),
(86,145,o),
(209,11,o),
(405,11,cs,{
"Letterink-NibData" = {
AngleInDegrees = -45;
MainAxisWidth = 12;
MinorAxisWidth = -15;
ValidForParentMainAxisWidth = 30;
ValidForParentMinorAxisWidth = 15;
};
"Letterink-NibStyleId" = 7;
}),
(570,11,o),
(672,134,o),
(672,309,c,{
"Letterink-NibData" = {
AngleInDegrees = -45;
MainAxisWidth = 12;
MinorAxisWidth = -15;
ValidForParentMainAxisWidth = 30;
ValidForParentMinorAxisWidth = 15;
};
"Letterink-NibStyleId" = 7;
}),
(400,309,l,{
"Letterink-NibData" = {
AngleInDegrees = -45;
MainAxisWidth = 12;
MinorAxisWidth = -15;
ValidForParentMainAxisWidth = 30;
ValidForParentMinorAxisWidth = 15;
};
"Letterink-NibStyleId" = 7;
})
);
}
);
userData = {
"Letterink-ComputationAllowed" = YES;
};
width = 735;
},
{
anchors = (
{
name = bottom;
pos = (392,-35);
},
{
name = top;
pos = (402,683);
}
);
associatedMasterId = "49C16FD3-6177-408B-A733-AEB3898BB77C";
layerId = "D0E3D1AC-81E4-4FC2-A1B9-BDF5A86A417E";
name = "3 Jan 22, 15:37";
shapes = (
{
closed = 1;
nodes = (
(537,-20,o),
(678,85,o),
(678,253,c),
(678,296,l,{
"Letterink-NibData" = {
AngleInDegrees = 270;
};
}),
(636,296,l,{
"Letterink-NibData" = {
AngleInDegrees = 180;
};
}),
(636,251,l,{
"Letterink-NibData" = {
AngleInDegrees = 180;
};
}),
(636,124,o),
(523,20,o),
(392,20,cs,{
"Letterink-NibData" = {
AngleInDegrees = 270;
};
}),
(227,20,o),
(103,157,o),
(103,329,cs),
(103,504,o),
(232,658,o),
(402,658,cs,{
"Letterink-NibData" = {
AngleInDegrees = 90;
};
}),
(466,658,o),
(587,637,o),
(587,563,cs,{
"Letterink-NibData" = {
AngleInDegrees = 180;
};
}),
(587,537,o),
(570,514,o),
(547,514,cs,{
"Letterink-NibData" = {
AngleInDegrees = 270;
};
}),
(537,514,o),
(529,518,o),
(524,524,c,{
"Letterink-NibData" = {
AngleInDegrees = 218.23383;
};
}),
(498,491,l,{
"Letterink-NibData" = {
AngleInDegrees = 138.36646;
};
}),
(506,482,o),
(524,473,o),
(546,473,cs,{
"Letterink-NibData" = {
AngleInDegrees = 90;
};
}),
(594,473,o),
(628,509,o),
(628,563,cs),
(628,669,o),
(486,698,o),
(401,698,cs,{
"Letterink-NibData" = {
AngleInDegrees = 270;
};
}),
(203,698,o),
(61,531,o),
(61,330,cs,{
"Letterink-NibData" = {
AngleInDegrees = 180;
};
}),
(61,138,o),
(198,-20,o),
(392,-20,cs,{
"Letterink-NibData" = {
AngleInDegrees = 90;
};
})
);
},
{
closed = 1;
nodes = (
(678,293,l),
(678,335,l,{
"Letterink-NibData" = {
AngleInDegrees = 270;
};
}),
(387,335,l,{
"Letterink-NibData" = {
AngleInDegrees = 180;
};
}),
(387,293,l,{
"Letterink-NibData" = {
AngleInDegrees = 90;
};
})
);
}
);
width = 735;
},
{
anchors = (
{
name = bottom;
pos = (387,-28);
},
{
name = top;
pos = (391,699);
}
);
associatedMasterId = "873CAA12-270D-4223-A88E-AE8E101FDBE8";
layerId = "A8D2BE40-FE6F-4311-8DB9-F135910EEEAF";
name = "3 Jan 22, 15:45";
shapes = (
{
closed = 1;
nodes = (
(534,-21,o),
(675,91,o),
(675,261,c),
(675,303,l,{
"Letterink-NibData" = {
AngleInDegrees = 270;
};
}),
(618,303,l,{
"Letterink-NibData" = {
AngleInDegrees = 180;
};
}),
(618,254,l,{
"Letterink-NibData" = {
AngleInDegrees = 180;
};
}),
(618,131,o),
(513,38,o),
(387,35,cs,{
"Letterink-NibData" = {
AngleInDegrees = 268.86182;
};
}),
(236,32,o),
(116,172,o),
(116,328,cs),
(116,497,o),
(236,641,o),
(396,643,cs,{
"Letterink-NibData" = {
AngleInDegrees = 89.07595;
};
}),
(458,644,o),
(572,622,o),
(572,555,cs,{
"Letterink-NibData" = {
AngleInDegrees = 180;
};
}),
(572,532,o),
(558,513,o),
(539,513,cs,{
"Letterink-NibData" = {
AngleInDegrees = 270;
};
}),
(533,513,o),
(521,516,o),
(516,521,c,{
"Letterink-NibData" = {
AngleInDegrees = 214.33022;
};
}),
(488,480,l,{
"Letterink-NibData" = {
AngleInDegrees = 135;
};
}),
(500,468,o),
(519,460,o),
(538,460,cs,{
"Letterink-NibData" = {
AngleInDegrees = 90;
};
}),
(588,460,o),
(626,499,o),
(626,555,cs),
(626,664,o),
(480,699,o),
(396,699,cs,{
"Letterink-NibData" = {
AngleInDegrees = 270;
};
}),
(199,699,o),
(56,529,o),
(56,329,cs,{
"Letterink-NibData" = {
AngleInDegrees = 180;
};
}),
(56,139,o),
(194,-21,o),
(387,-21,cs,{
"Letterink-NibData" = {
AngleInDegrees = 90;
};
})
);
},
{
closed = 1;
nodes = (
(675,286,l),
(675,342,l,{
"Letterink-NibData" = {
AngleInDegrees = 270;
};
}),
(375,342,l,{
"Letterink-NibData" = {
AngleInDegrees = 180;
};
}),
(375,286,l,{
"Letterink-NibData" = {
AngleInDegrees = 90;
};
})
);
}
);
width = 728;
},
{
anchors = (
{
name = bottom;
pos = (390,-16);
},
{
name = top;
pos = (393,684);
}
);
associatedMasterId = "0CAF3BED-C4AC-4024-B3E1-4C69D1EF7EC0";
layerId = "801CC91F-0C96-44A6-9720-FE52325A0B43";
name = "3 Jan 22, 15:45";
shapes = (
{
closed = 1;
nodes = (
(541,-13,o),
(683,104,o),
(683,271,cs),
(683,319,l,{
"Letterink-NibData" = {
AngleInDegrees = 270;
};
}),
(600,319,l,{
"Letterink-NibData" = {
AngleInDegrees = 178.85424;
};
}),
(601,269,l,{
"Letterink-NibData" = {
AngleInDegrees = 180.96286;
};
}),
(599,150,o),
(504,63,o),
(390,63,cs,{
"Letterink-NibData" = {
AngleInDegrees = 270;
};
}),
(245,63,o),
(135,176,o),
(135,342,cs),
(135,497,o),
(245,620,o),
(399,620,cs,{
"Letterink-NibData" = {
AngleInDegrees = 90;
};
}),
(456,620,o),
(558,599,o),
(558,544,cs,{
"Letterink-NibData" = {
AngleInDegrees = 180;
};
}),
(558,530,o),
(551,518,o),
(537,517,cs,{
"Letterink-NibData" = {
AngleInDegrees = 264.28941;
};
}),
(527,516,o),
(517,523,o),
(511,528,c,{
"Letterink-NibData" = {
AngleInDegrees = 218.90414;
};
}),
(465,471,l,{
"Letterink-NibData" = {
AngleInDegrees = 136.54816;
};
}),
(483,452,o),
(511,442,o),
(536,442,cs,{
"Letterink-NibData" = {
AngleInDegrees = 90;
};
}),
(591,442,o),
(635,488,o),
(635,547,cs),
(635,656,o),
(481,696,o),
(398,696,cs,{
"Letterink-NibData" = {
AngleInDegrees = 270;
};
}),
(205,696,o),
(53,539,o),
(53,343,cs,{
"Letterink-NibData" = {
AngleInDegrees = 180;
};
}),
(53,141,o),
(196,-13,o),
(390,-13,cs,{
"Letterink-NibData" = {
AngleInDegrees = 90;
};
})
);
},
{
closed = 1;
nodes = (
(683,280,l),
(683,356,l,{
"Letterink-NibData" = {
AngleInDegrees = 270;
};
}),
(364,356,l,{
"Letterink-NibData" = {
AngleInDegrees = 180;
};
}),
(364,280,l,{
"Letterink-NibData" = {
AngleInDegrees = 90;
};
})
);
}
);
width = 734;
},
{
anchors = (
{
name = bottom;
pos = (390,-16);
},
{
name = top;
pos = (393,684);
}
);
associatedMasterId = "0CAF3BED-C4AC-4024-B3E1-4C69D1EF7EC0";
layerId = "F3CD14B1-1EDD-434D-B368-A4692BE06C00";
name = "5 Jan 22, 08:08";
shapes = (
{
attr = {
strokeHeight = 74;
strokeWidth = 80;
};
closed = 0;
nodes = (
(515,478,l,{
"Letterink-NibData" = {
AngleInDegrees = 116.56505;
};
}),
(525,473,o),
(534,471,o),
(543,471,cs,{
"Letterink-NibData" = {
AngleInDegrees = 90;
};
}),
(587,471,o),
(608,511,o),
(608,546,cs),
(608,617,o),
(519,674,o),
(391,668,cs,{
"Letterink-NibData" = {
AngleInDegrees = 267.25739;
};
}),
(224,660,o),
(90,522,o),
(90,334,cs,{
"Letterink-NibData" = {
AngleInDegrees = 180;
};
}),
(90,144,o),
(227,4,o),
(408,15,cs,{
"Letterink-NibData" = {
AngleInDegrees = 86.30861;
};
}),
(563,25,o),
(648,137,o),
(648,281,c,{
"Letterink-NibData" = {
AngleInDegrees = 358.26429;
};
}),
(647,314,l,{
"Letterink-NibData" = {
AngleInDegrees = 270.21221;
};
}),
(377,315,l,{
"Letterink-NibData" = {
AngleInDegrees = 270.21221;
};
})
);
}
);
width = 734;
},
{
anchors = (
{
name = bottom;
pos = (387,-22);
},
{
name = top;
pos = (391,694);
}
);
associatedMasterId = "873CAA12-270D-4223-A88E-AE8E101FDBE8";
layerId = "47FC1324-84EB-4E8F-B0F2-D2229600AA22";
name = "5 Jan 22, 08:15";
shapes = (
{
attr = {
strokeHeight = 54;
strokeWidth = 60;
};
closed = 0;
nodes = (
(516,482,l,{
"Letterink-NibData" = {
AngleInDegrees = 116.56505;
};
}),
(526,477,o),
(534,475,o),
(544,475,cs,{
"Letterink-NibData" = {
AngleInDegrees = 90;
};
}),
(588,475,o),
(609,516,o),
(609,553,cs),
(609,626,o),
(520,685,o),
(391,678,cs,{
"Letterink-NibData" = {
AngleInDegrees = 267.27369;
};
}),
(223,670,o),
(88,527,o),
(88,334,cs,{
"Letterink-NibData" = {
AngleInDegrees = 180;
};
}),
(88,138,o),
(226,-7,o),
(408,5,cs,{
"Letterink-NibData" = {
AngleInDegrees = 86.33221;
};
}),
(564,15,o),
(650,130,o),
(650,279,c,{
"Letterink-NibData" = {
AngleInDegrees = 358.31532;
};
}),
(649,313,l,{
"Letterink-NibData" = {
AngleInDegrees = 270.21065;
};
}),
(377,314,l,{
"Letterink-NibData" = {
AngleInDegrees = 270.21065;
};
})
);
}
);
width = 728;
},
{
anchors = (
{
name = bottom;
pos = (392,-35);
},
{
name = top;
pos = (402,683);
}
);
associatedMasterId = "49C16FD3-6177-408B-A733-AEB3898BB77C";
background = {
shapes = (
{
closed = 1;
nodes = (
(540,-19,o),
(678,85,o),
(678,253,c),
(678,296,l),
(636,296,l),
(636,251,l),
(636,124,o),
(523,20,o),
(392,20,cs),
(227,20,o),
(103,157,o),
(103,329,cs),
(103,504,o),
(232,658,o),
(402,658,cs),
(466,658,o),
(587,637,o),
(587,563,cs),
(587,537,o),
(570,514,o),
(547,514,cs),
(537,514,o),
(529,518,o),
(524,524,c),
(498,491,l),
(506,482,o),
(524,473,o),
(546,473,cs),
(594,473,o),
(628,509,o),
(628,563,cs),
(628,669,o),
(486,698,o),
(401,698,cs),
(203,698,o),
(61,531,o),
(61,330,cs),
(61,138,o),
(198,-21,o),
(392,-20,cs)
);
}
);
};
layerId = "F0F46AC2-3B0D-4489-B32E-B81CEA10F2A9";
name = "5 Jan 22, 08:18";
shapes = (
{
attr = {
strokeHeight = 38;
strokeWidth = 42;
};
closed = 0;
nodes = (
(518,484,l,{
"Letterink-NibData" = {
AngleInDegrees = 116.56505;
};
}),
(528,479,o),
(537,477,o),
(547,477,cs,{
"Letterink-NibData" = {
AngleInDegrees = 90;
};
}),
(591,477,o),
(613,519,o),
(613,556,cs),
(613,630,o),
(522,690,o),
(391,683,cs,{
"Letterink-NibData" = {
AngleInDegrees = 267.30572;
};
}),
(221,675,o),
(84,530,o),
(84,334,cs,{
"Letterink-NibData" = {
AngleInDegrees = 180;
};
}),
(84,135,o),
(224,-12,o),
(404,0,cs,{
"Letterink-NibData" = {
AngleInDegrees = 86.48932;
};
}),
(567,10,o),
(654,127,o),
(654,278,c,{
"Letterink-NibData" = {
AngleInDegrees = 358.36342;
};
}),
(653,313,l,{
"Letterink-NibData" = {
AngleInDegrees = 270.20759;
};
}),
(377,314,l,{
"Letterink-NibData" = {
AngleInDegrees = 270.20759;
};
})
);
}
);
width = 735;
}
);
note = "Bold: 98/95.5%";
unicode = 71;
userData = {
position = 593;
width = 57;
};
},
{
glyphname = G.ss01;
kernLeft = O;
kernRight = O;
layers = (
{
anchors = (
{
name = bottom;
pos = (388,-22);
},
{
name = top;
pos = (402,679);
}
);
background = {
shapes = (
{
closed = 0;
nodes = (
(637,522,l,{
"Letterink-NibData" = {
AngleInDegrees = "-45";
MainAxisWidth = "24";
MinorAxisWidth = "-15";
ValidForParentMainAxisWidth = "30";
ValidForParentMinorAxisWidth = "15";
};
"Letterink-NibStyleId" = "8";
}),
(614,604,o),
(527,673,o),
(394,673,cs,{
"Letterink-NibData" = {
AngleInDegrees = "-45";
MainAxisWidth = "24";
MinorAxisWidth = "-15";
ValidForParentMainAxisWidth = "30";
ValidForParentMinorAxisWidth = "15";
};
"Letterink-NibStyleId" = "8";
}),
(222,673,o),
(87,534,o),
(87,336,cs,{
"Letterink-NibData" = {
AngleInDegrees = "-45";
MainAxisWidth = "30";
MinorAxisWidth = "-15";
ValidForParentMainAxisWidth = "30";
ValidForParentMinorAxisWidth = "15";
};
"Letterink-NibStyleId" = "8";
}),
(87,136,o),
(224,9,o),
(398,9,cs,{
"Letterink-NibData" = {
AngleInDegrees = "-45";
MainAxisWidth = "24";
MinorAxisWidth = "-15";
ValidForParentMainAxisWidth = "30";
ValidForParentMinorAxisWidth = "15";
};
"Letterink-NibStyleId" = "8";
}),
(506,9,o),
(597,54,o),
(645,134,c,{
"Letterink-NibData" = {
AngleInDegrees = "-45";
MainAxisWidth = "24";
MinorAxisWidth = "-15";
ValidForParentMainAxisWidth = "30";
ValidForParentMinorAxisWidth = "15";
};
"Letterink-NibStyleId" = "8";
})
);
},
{
closed = 1;
nodes = (
(596,-17,o),
(740,130,o),
(740,330,cs),
(740,349,ls),
(740,548,o),
(592,700,o),
(398,700,cs,{
"Letterink-NibData" = {
AngleInDegrees = "270";
};
}),
(205,700,o),
(57,548,o),
(57,349,cs,{
"Letterink-NibData" = {
AngleInDegrees = "180";
};
}),
(57,330,ls,{
"Letterink-NibData" = {
AngleInDegrees = "180";
};
}),
(57,133,o),
(206,-17,o),
(402,-17,cs,{
"Letterink-NibData" = {
AngleInDegrees = "90";
};
})
);
},
{
closed = 1;
nodes = (
(238,39,o),
(117,163,o),
(117,330,cs),
(117,349,ls),
(117,516,o),
(239,644,o),
(397,644,cs,{
"Letterink-NibData" = {
AngleInDegrees = "90";
};
}),
(557,644,o),
(680,517,o),
(680,349,cs,{
"Letterink-NibData" = {
AngleInDegrees = "180";
};
}),
(680,330,ls,{
"Letterink-NibData" = {
AngleInDegrees = "180";
};
}),
(680,163,o),
(559,39,o),
(399,39,cs,{
"Letterink-NibData" = {
AngleInDegrees = "270";
};
})
);
}
);
};
layerId = "873CAA12-270D-4223-A88E-AE8E101FDBE8";
shapes = (
{
closed = 0;
nodes = (
(640,522,l,{
"Letterink-NibData" = {
AngleInDegrees = "-45";
MainAxisWidth = "26";
MinorAxisWidth = "-15";
ValidForParentMainAxisWidth = "30";
ValidForParentMinorAxisWidth = "15";
};
"Letterink-NibStyleId" = "8";
}),
(619,599,o),
(527,671,o),
(397,671,cs,{
"Letterink-NibData" = {
AngleInDegrees = "-45";
MainAxisWidth = "26";
MinorAxisWidth = "-15";
ValidForParentMainAxisWidth = "30";
ValidForParentMinorAxisWidth = "15";
};
"Letterink-NibStyleId" = "8";
}),
(221,671,o),
(86,538,o),
(86,328,cs,{
"Letterink-NibData" = {
AngleInDegrees = "-45";
MainAxisWidth = "30";
MinorAxisWidth = "-15";
ValidForParentMainAxisWidth = "30";
ValidForParentMinorAxisWidth = "15";
};
"Letterink-NibStyleId" = "8";
}),
(86,142,o),
(209,11,o),
(405,11,cs,{
"Letterink-NibData" = {
AngleInDegrees = "-45";
MainAxisWidth = "26";
MinorAxisWidth = "-15";
ValidForParentMainAxisWidth = "30";
ValidForParentMinorAxisWidth = "15";
};
"Letterink-NibStyleId" = "8";
}),
(583,11,o),
(675,156,o),
(675,313,c,{
"Letterink-NibData" = {
AngleInDegrees = "-45";
MainAxisWidth = "26";
MinorAxisWidth = "-15";
ValidForParentMainAxisWidth = "30";
ValidForParentMinorAxisWidth = "15";
};
"Letterink-NibStyleId" = "8";
}),
(403,313,l,{
"Letterink-NibData" = {
AngleInDegrees = "-45";
MainAxisWidth = "26";
MinorAxisWidth = "-15";
ValidForParentMainAxisWidth = "30";
ValidForParentMinorAxisWidth = "15";
};
"Letterink-NibStyleId" = "8";
})
);
}
);
userData = {
"Letterink-ComputationAllowed" = YES;
};
width = 728;
},
{
anchors = (
{
name = bottom;
pos = (387,0);
},
{
name = top;
pos = (401,684);
}
);
background = {
shapes = (
{
closed = 1;
nodes = (
(593,-25,o),
(739,126,o),
(739,326,cs),
(739,355,ls),
(739,548,o),
(587,702,o),
(397,702,cs,{
"Letterink-NibData" = {
AngleInDegrees = "270";
};
}),
(207,702,o),
(56,548,o),
(56,355,cs,{
"Letterink-NibData" = {
AngleInDegrees = "180";
};
}),
(56,326,ls,{
"Letterink-NibData" = {
AngleInDegrees = "180";
};
}),
(56,126,o),
(200,-19,o),
(401,-22,cs,{
"Letterink-NibData" = {
AngleInDegrees = "90.89517371732774";
};
})
);
},
{
closed = 1;
nodes = (
(250,54,o),
(138,170,o),
(138,326,cs),
(138,355,ls),
(138,504,o),
(252,626,o),
(396,626,cs,{
"Letterink-NibData" = {
AngleInDegrees = "90";
};
}),
(542,626,o),
(657,504,o),
(657,355,cs,{
"Letterink-NibData" = {
AngleInDegrees = "180";
};
}),
(657,326,ls,{
"Letterink-NibData" = {
AngleInDegrees = "180";
};
}),
(657,170,o),
(545,54,o),
(398,54,cs,{
"Letterink-NibData" = {
AngleInDegrees = "270";
};
})
);
}
);
};
layerId = "0CAF3BED-C4AC-4024-B3E1-4C69D1EF7EC0";
shapes = (
{
closed = 0;
nodes = (
(647,524,l,{
"Letterink-NibData" = {
AngleInDegrees = -45;
MainAxisWidth = 46;
MinorAxisWidth = -15;
ValidForParentMainAxisWidth = 30;
ValidForParentMinorAxisWidth = 15;
};
"Letterink-NibStyleId" = 10;
}),
(624,601,o),
(538,671,o),
(409,671,cs,{
"Letterink-NibData" = {
AngleInDegrees = -45;
MainAxisWidth = 46;
MinorAxisWidth = -15;
ValidForParentMainAxisWidth = 30;
ValidForParentMinorAxisWidth = 15;
};
"Letterink-NibStyleId" = 10;
}),
(234,671,o),
(99,540,o),
(99,333,cs,{
"Letterink-NibData" = {
AngleInDegrees = -45;
MainAxisWidth = 50;
MinorAxisWidth = -15;
ValidForParentMainAxisWidth = 30;
ValidForParentMinorAxisWidth = 15;
};
"Letterink-NibStyleId" = 9;
}),
(99,150,o),
(222,21,o),
(416,21,cs,{
"Letterink-NibData" = {
AngleInDegrees = -45;
MainAxisWidth = 46;
MinorAxisWidth = -15;
ValidForParentMainAxisWidth = 30;
ValidForParentMinorAxisWidth = 15;
};
"Letterink-NibStyleId" = 10;
}),
(593,21,o),
(682,164,o),
(682,320,c,{
"Letterink-NibData" = {
AngleInDegrees = -45;
MainAxisWidth = 46;
MinorAxisWidth = -15;
ValidForParentMainAxisWidth = 30;
ValidForParentMinorAxisWidth = 15;
};
"Letterink-NibStyleId" = 10;
}),
(412,320,l,{
"Letterink-NibData" = {
AngleInDegrees = -45;
MainAxisWidth = 46;
MinorAxisWidth = -15;
ValidForParentMainAxisWidth = 30;
ValidForParentMinorAxisWidth = 15;
};
"Letterink-NibStyleId" = 10;
})
);
}
);
userData = {
"Letterink-ComputationAllowed" = YES;
};
width = 730;
},
{
anchors = (
{
name = bottom;
pos = (387,-27);
},
{
name = top;
pos = (387,721);
}
);
background = {
shapes = (
{
closed = 1;
nodes = (
(603,-14,o),
(745,131,o),
(745,331,cs),
(745,350,ls),
(745,550,o),
(597,702,o),
(403,702,cs,{
"Letterink-NibData" = {
AngleInDegrees = "270";
};
}),
(209,702,o),
(63,551,o),
(63,350,cs,{
"Letterink-NibData" = {
AngleInDegrees = "180";
};
}),
(63,331,ls,{
"Letterink-NibData" = {
AngleInDegrees = "180";
};
}),
(63,133,o),
(210,-14,o),
(407,-14,cs,{
"Letterink-NibData" = {
AngleInDegrees = "90";
};
})
);
},
{
closed = 1;
nodes = (
(233,24,o),
(105,156,o),
(105,331,cs),
(105,350,ls),
(105,526,o),
(234,662,o),
(402,662,cs,{
"Letterink-NibData" = {
AngleInDegrees = "90";
};
}),
(571,662,o),
(703,526,o),
(703,350,cs,{
"Letterink-NibData" = {
AngleInDegrees = "180";
};
}),
(703,331,ls,{
"Letterink-NibData" = {
AngleInDegrees = "180";
};
}),
(703,156,o),
(574,24,o),
(404,24,cs,{
"Letterink-NibData" = {
AngleInDegrees = "270";
};
})
);
}
);
};
layerId = "49C16FD3-6177-408B-A733-AEB3898BB77C";
shapes = (
{
closed = 0;
nodes = (
(665,526,l,{
"Letterink-NibData" = {
AngleInDegrees = -45;
MainAxisWidth = 8;
MinorAxisWidth = -15;
ValidForParentMainAxisWidth = 30;
ValidForParentMinorAxisWidth = 15;
};
"Letterink-NibStyleId" = 6;
}),
(641,605,o),
(549,678,o),
(413,678,cs,{
"Letterink-NibData" = {
AngleInDegrees = -45;
MainAxisWidth = 8;
MinorAxisWidth = -15;
ValidForParentMainAxisWidth = 30;
ValidForParentMinorAxisWidth = 15;
};
"Letterink-NibStyleId" = 6;
}),
(228,678,o),
(86,542,o),
(86,327,cs,{
"Letterink-NibData" = {
AngleInDegrees = -45;
MainAxisWidth = 12;
MinorAxisWidth = -15;
ValidForParentMainAxisWidth = 30;
ValidForParentMinorAxisWidth = 15;
};
"Letterink-NibStyleId" = 7;
}),
(86,138,o),
(215,4,o),
(421,4,cs,{
"Letterink-NibData" = {
AngleInDegrees = -45;
MainAxisWidth = 8;
MinorAxisWidth = -15;
ValidForParentMainAxisWidth = 30;
ValidForParentMinorAxisWidth = 15;
};
"Letterink-NibStyleId" = 6;
}),
(608,4,o),
(702,152,o),
(702,312,c,{
"Letterink-NibData" = {
AngleInDegrees = -45;
MainAxisWidth = 8;
MinorAxisWidth = -15;
ValidForParentMainAxisWidth = 30;
ValidForParentMinorAxisWidth = 15;
};
"Letterink-NibStyleId" = 6;
}),
(416,312,l,{
"Letterink-NibData" = {
AngleInDegrees = -45;
MainAxisWidth = 8;
MinorAxisWidth = -15;
ValidForParentMainAxisWidth = 30;
ValidForParentMinorAxisWidth = 15;
};
"Letterink-NibStyleId" = 6;
})
);
}
);
userData = {
"Letterink-ComputationAllowed" = YES;
};
width = 730;
},
{
anchors = (
{
name = bottom;
pos = (386,0);
},
{
name = top;
pos = (401,684);
}
);
associatedMasterId = "49C16FD3-6177-408B-A733-AEB3898BB77C";
layerId = "96951EB1-18FB-4FDF-9014-B6300BAB0AB6";
name = "3 Jan 22, 15:40";
shapes = (
{
closed = 1;
nodes = (
(542,-15,o),
(675,97,o),
(675,285,cs),
(675,343,l,{
"Letterink-NibData" = {
AngleInDegrees = 270;
};
}),
(633,343,l,{
"Letterink-NibData" = {
AngleInDegrees = 180;
};
}),
(633,273,ls,{
"Letterink-NibData" = {
AngleInDegrees = 180;
};
}),
(633,127,o),
(512,25,o),
(391,25,cs,{
"Letterink-NibData" = {
AngleInDegrees = 270;
};
}),
(209,25,o),
(104,154,o),
(104,331,cs),
(104,508,o),
(231,656,o),
(401,656,cs,{
"Letterink-NibData" = {
AngleInDegrees = 90;
};
}),
(470,656,o),
(577,625,o),
(584,557,c,{
"Letterink-NibData" = {
AngleInDegrees = 88.60282;
};
}),
(625,558,l,{
"Letterink-NibData" = {
AngleInDegrees = 356.1432;
};
}),
(619,647,o),
(507,696,o),
(403,696,cs,{
"Letterink-NibData" = {
AngleInDegrees = 270;
};
}),
(207,696,o),
(62,537,o),
(62,332,cs,{
"Letterink-NibData" = {
AngleInDegrees = 180;
};
}),
(62,131,o),
(179,-15,o),
(387,-15,cs,{
"Letterink-NibData" = {
AngleInDegrees = 90;
};
})
);
},
{
closed = 1;
nodes = (
(675,303,l),
(675,343,l,{
"Letterink-NibData" = {
AngleInDegrees = 270;
};
}),
(384,343,l,{
"Letterink-NibData" = {
AngleInDegrees = 180;
};
}),
(384,303,l,{
"Letterink-NibData" = {
AngleInDegrees = 90;
};
})
);
}
);
width = 730;
},
{
anchors = (
{
name = bottom;
pos = (388,-28);
},
{
name = top;
pos = (403,684);
}
);
associatedMasterId = "873CAA12-270D-4223-A88E-AE8E101FDBE8";
layerId = "CCC80A6F-3C96-44BD-ACCE-4C0B144EABD0";
name = "3 Jan 22, 15:47";
shapes = (
{
closed = 1;
nodes = (
(542,-11,o),
(677,103,o),
(677,276,cs),
(677,352,l,{
"Letterink-NibData" = {
AngleInDegrees = 270;
};
}),
(620,352,l,{
"Letterink-NibData" = {
AngleInDegrees = 180;
};
}),
(620,264,ls,{
"Letterink-NibData" = {
AngleInDegrees = 180;
};
}),
(620,139,o),
(507,45,o),
(391,45,cs,{
"Letterink-NibData" = {
AngleInDegrees = 270;
};
}),
(215,45,o),
(117,160,o),
(117,330,cs),
(117,501,o),
(238,641,o),
(401,641,cs,{
"Letterink-NibData" = {
AngleInDegrees = 90;
};
}),
(470,641,o),
(574,611,o),
(574,545,c,{
"Letterink-NibData" = {
AngleInDegrees = 88.93909;
};
}),
(628,546,l),
(628,642,o),
(509,697,o),
(403,697,cs,{
"Letterink-NibData" = {
AngleInDegrees = 270;
};
}),
(208,697,o),
(57,538,o),
(57,330,cs,{
"Letterink-NibData" = {
AngleInDegrees = 180;
};
}),
(57,127,o),
(180,-11,o),
(387,-11,cs,{
"Letterink-NibData" = {
AngleInDegrees = 90;
};
})
);
},
{
closed = 1;
nodes = (
(677,296,l),
(677,352,l,{
"Letterink-NibData" = {
AngleInDegrees = 270;
};
}),
(377,352,l,{
"Letterink-NibData" = {
AngleInDegrees = 180;
};
}),
(377,296,l,{
"Letterink-NibData" = {
AngleInDegrees = 90;
};
})
);
},
{
attr = {
strokeHeight = 38;
strokeWidth = 42;
};
closed = 0;
nodes = (
(623,537,ls,{
"Letterink-NibData" = {
AngleInDegrees = 356.78451;
};
}),
(618,626,o),
(522,691,o),
(391,684,cs,{
"Letterink-NibData" = {
AngleInDegrees = 267.30572;
};
}),
(221,676,o),
(84,532,o),
(84,330,cs,{
"Letterink-NibData" = {
AngleInDegrees = 180;
};
}),
(84,136,o),
(219,0,o),
(409,0,c,{
"Letterink-NibData" = {
AngleInDegrees = 86.37852;
};
}),
(567,10,o),
(654,127,o),
(654,278,c,{
"Letterink-NibData" = {
AngleInDegrees = 358.36342;
};
}),
(653,313,l,{
"Letterink-NibData" = {
AngleInDegrees = 270.20759;
};
}),
(377,314,l,{
"Letterink-NibData" = {
AngleInDegrees = 270.20759;
};
})
);
}
);
width = 728;
},
{
anchors = (
{
name = bottom;
pos = (388,-22);
},
{
name = top;
pos = (402,679);
}
);
associatedMasterId = "873CAA12-270D-4223-A88E-AE8E101FDBE8";
background = {
shapes = (
{
closed = 0;
nodes = (
(637,522,l,{
"Letterink-NibData" = {
AngleInDegrees = "-45";
MainAxisWidth = "24";
MinorAxisWidth = "-15";
ValidForParentMainAxisWidth = "30";
ValidForParentMinorAxisWidth = "15";
};
"Letterink-NibStyleId" = "8";
}),
(614,604,o),
(527,673,o),
(394,673,cs,{
"Letterink-NibData" = {
AngleInDegrees = "-45";
MainAxisWidth = "24";
MinorAxisWidth = "-15";
ValidForParentMainAxisWidth = "30";
ValidForParentMinorAxisWidth = "15";
};
"Letterink-NibStyleId" = "8";
}),
(222,673,o),
(87,534,o),
(87,336,cs,{
"Letterink-NibData" = {
AngleInDegrees = "-45";
MainAxisWidth = "30";
MinorAxisWidth = "-15";
ValidForParentMainAxisWidth = "30";
ValidForParentMinorAxisWidth = "15";
};
"Letterink-NibStyleId" = "8";
}),
(87,136,o),
(224,9,o),
(398,9,cs,{
"Letterink-NibData" = {
AngleInDegrees = "-45";
MainAxisWidth = "24";
MinorAxisWidth = "-15";
ValidForParentMainAxisWidth = "30";
ValidForParentMinorAxisWidth = "15";
};
"Letterink-NibStyleId" = "8";
}),
(506,9,o),
(597,54,o),
(645,134,c,{
"Letterink-NibData" = {
AngleInDegrees = "-45";
MainAxisWidth = "24";
MinorAxisWidth = "-15";
ValidForParentMainAxisWidth = "30";
ValidForParentMinorAxisWidth = "15";
};
"Letterink-NibStyleId" = "8";
})
);
}
);
};
layerId = "24A7CAA8-9519-4BC9-B6EF-3A301BEBEDC9";
name = "5 Jan 22, 08:22";
shapes = (
{
attr = {
strokeHeight = 54;
strokeWidth = 60;
};
closed = 0;
nodes = (
(619,534,l,{
"Letterink-NibData" = {
AngleInDegrees = 356.74805;
};
}),
(614,622,o),
(520,686,o),
(391,679,cs,{
"Letterink-NibData" = {
AngleInDegrees = 267.27369;
};
}),
(223,671,o),
(88,529,o),
(88,330,cs,{
"Letterink-NibData" = {
AngleInDegrees = 180;
};
}),
(88,139,o),
(221,5,o),
(403,5,c,{
"Letterink-NibData" = {
AngleInDegrees = 86.44582;
};
}),
(564,15,o),
(650,130,o),
(650,279,c,{
"Letterink-NibData" = {
AngleInDegrees = 358.31532;
};
}),
(649,313,l,{
"Letterink-NibData" = {
AngleInDegrees = 270.21065;
};
}),
(377,314,l,{
"Letterink-NibData" = {
AngleInDegrees = 270.21065;
};
})
);
}
);
width = 728;
},
{
anchors = (
{
name = bottom;
pos = (387,0);
},
{
name = top;
pos = (401,684);
}
);
associatedMasterId = "0CAF3BED-C4AC-4024-B3E1-4C69D1EF7EC0";
layerId = "B969E5E4-86DE-47F2-A424-5DC87FFFE71B";
name = "5 Jan 22, 08:26";
shapes = (
{
attr = {
strokeHeight = 74;
strokeWidth = 80;
};
closed = 0;
nodes = (
(618,528,ls,{
"Letterink-NibData" = {
AngleInDegrees = 356.63354;
};
}),
(613,613,o),
(519,675,o),
(391,669,cs,{
"Letterink-NibData" = {
AngleInDegrees = 267.25739;
};
}),
(224,661,o),
(90,523,o),
(90,331,cs,{
"Letterink-NibData" = {
AngleInDegrees = 180;
};
}),
(90,145,o),
(222,15,o),
(403,15,c,{
"Letterink-NibData" = {
AngleInDegrees = 86.42367;
};
}),
(563,25,o),
(648,137,o),
(648,281,c,{
"Letterink-NibData" = {
AngleInDegrees = 358.26429;
};
}),
(647,314,l,{
"Letterink-NibData" = {
AngleInDegrees = 270.21221;
};
}),
(377,315,l,{
"Letterink-NibData" = {
AngleInDegrees = 270.21221;
};
})
);
}
);
width = 730;
},
{
anchors = (
{
name = bottom;
pos = (387,-27);
},
{
name = top;
pos = (387,721);
}
);
associatedMasterId = "49C16FD3-6177-408B-A733-AEB3898BB77C";
background = {
shapes = (
{
closed = 1;
nodes = (
(542,-15,o),
(675,97,o),
(675,285,cs),
(675,343,l),
(633,343,l),
(633,273,ls),
(633,127,o),
(512,25,o),
(391,25,cs),
(209,25,o),
(104,154,o),
(104,331,cs),
(104,508,o),
(231,656,o),
(401,656,cs),
(470,656,o),
(577,625,o),
(584,557,c),
(625,558,l),
(619,647,o),
(507,696,o),
(403,696,cs),
(207,696,o),
(62,537,o),
(62,332,cs),
(62,131,o),
(179,-15,o),
(387,-15,cs)
);
},
{
closed = 1;
nodes = (
(675,303,l),
(675,343,l),
(384,343,l),
(384,303,l)
);
}
);
};
layerId = "AFEECE5E-BFEE-4508-863A-E5AFB845FDE7";
name = "5 Jan 22, 08:33";
shapes = (
{
attr = {
strokeHeight = 38;
strokeWidth = 42;
};
closed = 0;
nodes = (
(623,537,ls,{
"Letterink-NibData" = {
AngleInDegrees = 356.78451;
};
}),
(618,626,o),
(522,691,o),
(391,684,cs,{
"Letterink-NibData" = {
AngleInDegrees = 267.30572;
};
}),
(221,676,o),
(84,532,o),
(84,330,cs,{
"Letterink-NibData" = {
AngleInDegrees = 180;
};
}),
(84,136,o),
(219,0,o),
(409,0,c,{
"Letterink-NibData" = {
AngleInDegrees = 86.37852;
};
}),
(567,10,o),
(654,127,o),
(654,278,c,{
"Letterink-NibData" = {
AngleInDegrees = 358.36342;
};
}),
(653,313,l,{
"Letterink-NibData" = {
AngleInDegrees = 270.20759;
};
}),
(377,314,l,{
"Letterink-NibData" = {
AngleInDegrees = 270.20759;
};
})
);
}
);
width = 730;
}
);
userData = {
position = 593;
width = 57;
};
},
{
glyphname = G.swsh;
kernLeft = O;
kernRight = j;
layers = (
{
anchors = (
{
name = bottom;
pos = (391,0);
},
{
name = top;
pos = (400,696);
}
);
layerId = "873CAA12-270D-4223-A88E-AE8E101FDBE8";
shapes = (
{
ref = G;
},
{
closed = 0;
nodes = (
(478,-188,l,{
"Letterink-NibData" = {
AngleInDegrees = -45;
MainAxisWidth = 24;
MinorAxisWidth = -15;
ValidForParentMainAxisWidth = 30;
ValidForParentMinorAxisWidth = 15;
};
"Letterink-NibStyleId" = 8;
}),
(497,-225,o),
(532,-247,o),
(569,-247,cs,{
"Letterink-NibData" = {
AngleInDegrees = -45;
MainAxisWidth = 24;
MinorAxisWidth = -15;
ValidForParentMainAxisWidth = 30;
ValidForParentMinorAxisWidth = 15;
};
"Letterink-NibStyleId" = 8;
}),
(625,-247,o),
(670,-205,o),
(670,-128,c,{
"Letterink-NibData" = {
AngleInDegrees = -45;
MainAxisWidth = 30;
MinorAxisWidth = -15;
ValidForParentMainAxisWidth = 30;
ValidForParentMinorAxisWidth = 15;
};
"Letterink-NibStyleId" = 8;
}),
(670,331,l,{
"Letterink-NibData" = {
AngleInDegrees = -45;
MainAxisWidth = 30;
MinorAxisWidth = -15;
ValidForParentMainAxisWidth = 30;
ValidForParentMinorAxisWidth = 15;
};
"Letterink-NibStyleId" = 8;
})
);
}
);
userData = {
"Letterink-ComputationAllowed" = YES;
};
width = 746;
},
{
anchors = (
{
name = bottom;
pos = (391,0);
},
{
name = top;
pos = (400,696);
}
);
layerId = "0CAF3BED-C4AC-4024-B3E1-4C69D1EF7EC0";
shapes = (
{
ref = G;
},
{
closed = 0;
nodes = (
(476,-170,l,{
"Letterink-NibData" = {
AngleInDegrees = -45;
MainAxisWidth = 46;
MinorAxisWidth = -15;
ValidForParentMainAxisWidth = 30;
ValidForParentMinorAxisWidth = 15;
};
"Letterink-NibStyleId" = 10;
}),
(494,-206,o),
(529,-228,o),
(565,-228,cs,{
"Letterink-NibData" = {
AngleInDegrees = -45;
MainAxisWidth = 46;
MinorAxisWidth = -15;
ValidForParentMainAxisWidth = 30;
ValidForParentMinorAxisWidth = 15;
};
"Letterink-NibStyleId" = 10;
}),
(621,-228,o),
(665,-186,o),
(665,-110,c,{
"Letterink-NibData" = {
AngleInDegrees = -45;
MainAxisWidth = 50;
MinorAxisWidth = -15;
ValidForParentMainAxisWidth = 30;
ValidForParentMinorAxisWidth = 15;
};
"Letterink-NibStyleId" = 9;
}),
(665,342,l,{
"Letterink-NibData" = {
AngleInDegrees = -45;
MainAxisWidth = 50;
MinorAxisWidth = -15;
ValidForParentMainAxisWidth = 30;
ValidForParentMinorAxisWidth = 15;
};
"Letterink-NibStyleId" = 9;
})
);
}
);
userData = {
"Letterink-ComputationAllowed" = YES;
};
width = 749;
},
{
anchors = (
{
name = bottom;
pos = (392,-35);
},
{
name = top;
pos = (402,683);
}
);
layerId = "49C16FD3-6177-408B-A733-AEB3898BB77C";
shapes = (
{
ref = G;
},
{
closed = 0;
nodes = (
(476,-198,l,{
"Letterink-NibData" = {
AngleInDegrees = -45;
MainAxisWidth = 12;
MinorAxisWidth = -15;
ValidForParentMainAxisWidth = 30;
ValidForParentMinorAxisWidth = 15;
};
"Letterink-NibStyleId" = 7;
}),
(495,-235,o),
(530,-257,o),
(568,-257,cs,{
"Letterink-NibData" = {
AngleInDegrees = -45;
MainAxisWidth = 12;
MinorAxisWidth = -15;
ValidForParentMainAxisWidth = 30;
ValidForParentMinorAxisWidth = 15;
};
"Letterink-NibStyleId" = 7;
}),
(624,-257,o),
(670,-215,o),
(670,-137,c,{
"Letterink-NibData" = {
AngleInDegrees = -45;
MainAxisWidth = 12;
MinorAxisWidth = -15;
ValidForParentMainAxisWidth = 30;
ValidForParentMinorAxisWidth = 15;
};
"Letterink-NibStyleId" = 7;
}),
(670,328,l,{
"Letterink-NibData" = {
AngleInDegrees = -45;
MainAxisWidth = 12;
MinorAxisWidth = -15;
ValidForParentMainAxisWidth = 30;
ValidForParentMinorAxisWidth = 15;
};
"Letterink-NibStyleId" = 7;
})
);
}
);
userData = {
"Letterink-ComputationAllowed" = YES;
};
width = 745;
},
{
anchors = (
{
name = bottom;
pos = (393,0);
},
{
name = top;
pos = (402,684);
}
);
associatedMasterId = "49C16FD3-6177-408B-A733-AEB3898BB77C";
layerId = "99324C05-2E3B-491C-BB33-A281431388C0";
name = "3 Jan 22, 15:43";
shapes = (
{
closed = 1;
nodes = (
(632,-275,o),
(677,-247,o),
(677,-188,cs),
(677,296,l,{
"Letterink-NibData" = {
AngleInDegrees = 270;
};
}),
(635,296,l,{
"Letterink-NibData" = {
AngleInDegrees = 180;
};
}),
(635,231,l,{
"Letterink-NibData" = {
AngleInDegrees = 189.05072;
};
}),
(617,118,o),
(524,19,o),
(389,19,cs,{
"Letterink-NibData" = {
AngleInDegrees = 270;
};
}),
(229,19,o),
(103,157,o),
(103,331,cs),
(103,504,o),
(226,661,o),
(399,661,cs,{
"Letterink-NibData" = {
AngleInDegrees = 90;
};
}),
(467,661,o),
(588,637,o),
(588,563,cs,{
"Letterink-NibData" = {
AngleInDegrees = 180;
};
}),
(588,537,o),
(571,514,o),
(548,514,cs,{
"Letterink-NibData" = {
AngleInDegrees = 270;
};
}),
(542,514,o),
(535,516,o),
(528,519,c,{
"Letterink-NibData" = {
AngleInDegrees = 218.23383;
};
}),
(502,486,l,{
"Letterink-NibData" = {
AngleInDegrees = 122.73523;
};
}),
(516,477,o),
(531,473,o),
(547,473,cs,{
"Letterink-NibData" = {
AngleInDegrees = 90;
};
}),
(595,473,o),
(629,509,o),
(629,562,cs),
(629,670,o),
(485,701,o),
(402,701,cs,{
"Letterink-NibData" = {
AngleInDegrees = 270;
};
}),
(204,701,o),
(61,530,o),
(61,333,cs,{
"Letterink-NibData" = {
AngleInDegrees = 180;
};
}),
(61,137,o),
(202,-21,o),
(385,-21,cs,{
"Letterink-NibData" = {
AngleInDegrees = 90;
};
}),
(490,-21,o),
(597,31,o),
(635,124,c,{
"Letterink-NibData" = {
AngleInDegrees = 180;
};
}),
(635,-188,l,{
"Letterink-NibData" = {
AngleInDegrees = 186.00901;
};
}),
(633,-207,o),
(619,-229,o),
(592,-229,cs,{
"Letterink-NibData" = {
AngleInDegrees = 270;
};
}),
(579,-229,o),
(569,-224,o),
(562,-217,c,{
"Letterink-NibData" = {
AngleInDegrees = 236.65929;
};
}),
(524,-242,l,{
"Letterink-NibData" = {
AngleInDegrees = 142.69605;
};
}),
(540,-263,o),
(563,-275,o),
(591,-275,cs,{
"Letterink-NibData" = {
AngleInDegrees = 90;
};
})
);
}
);
width = 745;
},
{
anchors = (
{
name = bottom;
pos = (391,0);
},
{
name = top;
pos = (400,696);
}
);
associatedMasterId = "873CAA12-270D-4223-A88E-AE8E101FDBE8";
layerId = "431AC455-96C8-400E-BD31-9019305891A8";
name = "3 Jan 22, 15:47";
shapes = (
{
closed = 1;
nodes = (
(629,-263,o),
(680,-231,o),
(680,-168,cs),
(680,315,l,{
"Letterink-NibData" = {
AngleInDegrees = 270;
};
}),
(620,315,l,{
"Letterink-NibData" = {
AngleInDegrees = 180;
};
}),
(620,234,l,{
"Letterink-NibData" = {
AngleInDegrees = 188.50458;
};
}),
(604,127,o),
(516,40,o),
(391,40,cs,{
"Letterink-NibData" = {
AngleInDegrees = 270;
};
}),
(235,40,o),
(116,173,o),
(116,341,cs),
(116,506,o),
(231,645,o),
(398,645,cs,{
"Letterink-NibData" = {
AngleInDegrees = 90;
};
}),
(464,645,o),
(574,623,o),
(574,558,cs,{
"Letterink-NibData" = {
AngleInDegrees = 180;
};
}),
(574,536,o),
(561,519,o),
(543,519,cs,{
"Letterink-NibData" = {
AngleInDegrees = 270;
};
}),
(537,519,o),
(530,521,o),
(522,527,c,{
"Letterink-NibData" = {
AngleInDegrees = 218.81139;
};
}),
(485,481,l,{
"Letterink-NibData" = {
AngleInDegrees = 127.40536;
};
}),
(502,468,o),
(522,461,o),
(542,461,cs,{
"Letterink-NibData" = {
AngleInDegrees = 90;
};
}),
(594,461,o),
(632,502,o),
(632,558,cs),
(632,669,o),
(484,701,o),
(397,701,cs,{
"Letterink-NibData" = {
AngleInDegrees = 270;
};
}),
(203,701,o),
(56,543,o),
(56,341,cs,{
"Letterink-NibData" = {
AngleInDegrees = 180;
};
}),
(56,143,o),
(198,-16,o),
(387,-16,cs,{
"Letterink-NibData" = {
AngleInDegrees = 90;
};
}),
(488,-16,o),
(574,29,o),
(620,106,c,{
"Letterink-NibData" = {
AngleInDegrees = 180;
};
}),
(620,-168,l,{
"Letterink-NibData" = {
AngleInDegrees = 180;
};
}),
(620,-185,o),
(608,-201,o),
(586,-201,cs,{
"Letterink-NibData" = {
AngleInDegrees = 270;
};
}),
(573,-201,o),
(564,-195,o),
(559,-185,c,{
"Letterink-NibData" = {
AngleInDegrees = 236.82149;
};
}),
(507,-219,l,{
"Letterink-NibData" = {
AngleInDegrees = 147.80427;
};
}),
(524,-246,o),
(553,-263,o),
(585,-263,cs,{
"Letterink-NibData" = {
AngleInDegrees = 90;
};
})
);
}
);
width = 746;
},
{
anchors = (
{
name = bottom;
pos = (392,-35);
},
{
name = top;
pos = (402,683);
}
);
associatedMasterId = "49C16FD3-6177-408B-A733-AEB3898BB77C";
layerId = "993784D9-67C7-4A50-9317-88BF6374F3F5";
name = "5 Jan 22, 08:42";
shapes = (
{
closed = 1;
nodes = (
(632,-188,l,{
"Letterink-NibData" = {
AngleInDegrees = 186.00901;
};
}),
(630,-207,o),
(616,-229,o),
(589,-229,cs,{
"Letterink-NibData" = {
AngleInDegrees = 270;
};
}),
(576,-229,o),
(566,-224,o),
(559,-217,c,{
"Letterink-NibData" = {
AngleInDegrees = 236.65929;
};
}),
(521,-242,l,{
"Letterink-NibData" = {
AngleInDegrees = 142.69605;
};
}),
(537,-263,o),
(560,-275,o),
(588,-275,cs,{
"Letterink-NibData" = {
AngleInDegrees = 90;
};
}),
(629,-275,o),
(674,-247,o),
(674,-188,cs),
(674,296,l,{
"Letterink-NibData" = {
AngleInDegrees = 270;
};
}),
(632,296,l,{
"Letterink-NibData" = {
AngleInDegrees = 180;
};
})
);
},
{
ref = G;
}
);
width = 745;
},
{
anchors = (
{
name = bottom;
pos = (392,-35);
},
{
name = top;
pos = (402,683);
}
);
associatedMasterId = "49C16FD3-6177-408B-A733-AEB3898BB77C";
hints = (
{
name = _corner.caps_swash;
options = 1;
origin = (0,2);
scale = (-1,1);
type = Corner;
}
);
layerId = "A1B0A753-5F1E-49B0-BC7C-F65043380999";
name = "5 Jan 22, 08:46";
shapes = (
{
closed = 1;
nodes = (
(651,330,l,{
"Letterink-NibData" = {
AngleInDegrees = 270;
};
}),
(651,-154,l),
(693,-154,l,{
"Letterink-NibData" = {
AngleInDegrees = 186.00901;
};
}),
(693,330,l,{
"Letterink-NibData" = {
AngleInDegrees = 180;
};
})
);
},
{
ref = G;
},
{
closed = 0;
nodes = (
(344,-192,l),
(363,-228,o),
(402,-253,o),
(446,-253,cs),
(509,-253,o),
(561,-202,o),
(561,-139,cs),
(561,-139,o),
(561,-139,o),
(561,-138,cs),
(561,308,l)
);
}
);
width = 745;
},
{
anchors = (
{
name = bottom;
pos = (391,0);
},
{
name = top;
pos = (400,696);
}
);
associatedMasterId = "873CAA12-270D-4223-A88E-AE8E101FDBE8";
layerId = "E73BAE60-7EDE-44ED-9E8E-025C0EC812FB";
name = "5 Jan 22, 08:49";
shapes = (
{
closed = 1;
nodes = (
(620,-168,l,{
"Letterink-NibData" = {
AngleInDegrees = 180;
};
}),
(620,-185,o),
(608,-201,o),
(586,-201,cs,{
"Letterink-NibData" = {
AngleInDegrees = 270;
};
}),
(573,-201,o),
(564,-195,o),
(559,-185,c,{
"Letterink-NibData" = {
AngleInDegrees = 236.82149;
};
}),
(507,-219,l,{
"Letterink-NibData" = {
AngleInDegrees = 147.80427;
};
}),
(524,-246,o),
(553,-263,o),
(585,-263,cs,{
"Letterink-NibData" = {
AngleInDegrees = 90;
};
}),
(629,-263,o),
(680,-231,o),
(680,-168,cs),
(680,315,l,{
"Letterink-NibData" = {
AngleInDegrees = 270;
};
}),
(620,315,l,{
"Letterink-NibData" = {
AngleInDegrees = 180;
};
})
);
},
{
attr = {
strokeHeight = 54;
strokeWidth = 60;
};
closed = 0;
nodes = (
(516,482,l,{
"Letterink-NibData" = {
AngleInDegrees = 116.56505;
};
}),
(526,477,o),
(534,475,o),
(544,475,cs,{
"Letterink-NibData" = {
AngleInDegrees = 90;
};
}),
(588,475,o),
(609,516,o),
(609,553,cs),
(609,626,o),
(520,685,o),
(391,678,cs,{
"Letterink-NibData" = {
AngleInDegrees = 267.27369;
};
}),
(223,670,o),
(88,527,o),
(88,334,cs,{
"Letterink-NibData" = {
AngleInDegrees = 180;
};
}),
(88,138,o),
(226,-7,o),
(408,5,cs,{
"Letterink-NibData" = {
AngleInDegrees = 86.33221;
};
}),
(564,15,o),
(650,130,o),
(650,279,c,{
"Letterink-NibData" = {
AngleInDegrees = 358.31532;
};
}),
(649,313,l,{
"Letterink-NibData" = {
AngleInDegrees = 270.21065;
};
}),
(377,314,l,{
"Letterink-NibData" = {
AngleInDegrees = 270.21065;
};
})
);
}
);
width = 746;
},
{
anchors = (
{
name = bottom;
pos = (393,-16);
},
{
name = top;
pos = (396,689);
}
);
associatedMasterId = "0CAF3BED-C4AC-4024-B3E1-4C69D1EF7EC0";
layerId = "14C1AB9A-2353-4380-971D-F4E2C0A0EA14";
name = "5 Jan 22, 08:50";
shapes = (
{
closed = 1;
nodes = (
(605,-161,l,{
"Letterink-NibData" = {
AngleInDegrees = 180;
};
}),
(605,-174,o),
(595,-183,o),
(582,-183,cs,{
"Letterink-NibData" = {
AngleInDegrees = 270;
};
}),
(569,-183,o),
(563,-178,o),
(556,-165,c,{
"Letterink-NibData" = {
AngleInDegrees = 235.68491;
};
}),
(493,-208,l,{
"Letterink-NibData" = {
AngleInDegrees = 154.88516;
};
}),
(508,-240,o),
(544,-263,o),
(581,-263,cs,{
"Letterink-NibData" = {
AngleInDegrees = 90;
};
}),
(626,-263,o),
(685,-228,o),
(685,-162,cs),
(685,317,l,{
"Letterink-NibData" = {
AngleInDegrees = 270;
};
}),
(605,317,l,{
"Letterink-NibData" = {
AngleInDegrees = 180;
};
})
);
},
{
attr = {
strokeHeight = 74;
strokeWidth = 80;
};
closed = 0;
nodes = (
(515,478,l,{
"Letterink-NibData" = {
AngleInDegrees = 116.56505;
};
}),
(525,473,o),
(534,471,o),
(543,471,cs,{
"Letterink-NibData" = {
AngleInDegrees = 90;
};
}),
(587,471,o),
(608,511,o),
(608,546,cs),
(608,617,o),
(519,674,o),
(391,668,cs,{
"Letterink-NibData" = {
AngleInDegrees = 267.25739;
};
}),
(224,660,o),
(90,522,o),
(90,334,cs,{
"Letterink-NibData" = {
AngleInDegrees = 180;
};
}),
(90,144,o),
(227,4,o),
(408,15,cs,{
"Letterink-NibData" = {
AngleInDegrees = 86.30861;
};
}),
(563,25,o),
(648,137,o),
(648,281,c,{
"Letterink-NibData" = {
AngleInDegrees = 358.26429;
};
}),
(647,314,l,{
"Letterink-NibData" = {
AngleInDegrees = 270.21221;
};
}),
(377,315,l,{
"Letterink-NibData" = {
AngleInDegrees = 270.21221;
};
})
);
}
);
width = 749;
}
);
userData = {
position = 593;
width = 57;
};
},
{
glyphname = H;
kernLeft = E;
layers = (
{
anchors = (
{
name = bottom;
pos = (380,0);
},
{
name = center;
pos = (419,500);
},
{
name = top;
pos = (409,684);
},
{
name = topleft;
pos = (47,684);
}
);
hints = (
{
name = _corner.caps_vert;
origin = (0,9);
type = Corner;
}
);
layerId = "873CAA12-270D-4223-A88E-AE8E101FDBE8";
shapes = (
{
closed = 1;
nodes = (
(211,0,l),
(211,328,l,{
"Letterink-NibData" = {
AngleInDegrees = 90;
};
}),
(590,328,l,{
"Letterink-NibData" = {
AngleInDegrees = 180;
};
}),
(590,0,l,{
"Letterink-NibData" = {
AngleInDegrees = 90;
};
}),
(650,0,l),
(650,684,l,{
"Letterink-NibData" = {
AngleInDegrees = 270;
};
}),
(590,684,l,{
"Letterink-NibData" = {
AngleInDegrees = 180;
};
}),
(590,384,l,{
"Letterink-NibData" = {
AngleInDegrees = 270;
};
}),
(211,384,l),
(211,569,l,{
"Letterink-NibData" = {
AngleInDegrees = 270;
};
}),
(151,569,l,{
"Letterink-NibData" = {
AngleInDegrees = 180;
};
}),
(151,0,l,{
"Letterink-NibData" = {
AngleInDegrees = 90;
};
})
);
}
);
width = 728;
},
{
anchors = (
{
name = bottom;
pos = (383,0);
},
{
name = center;
pos = (406,500);
},
{
name = top;
pos = (413,675);
},
{
name = topleft;
pos = (46,684);
}
);
hints = (
{
name = _corner.caps_vert;
origin = (0,9);
type = Corner;
}
);
layerId = "0CAF3BED-C4AC-4024-B3E1-4C69D1EF7EC0";
shapes = (
{
closed = 1;
nodes = (
(232,-1,l),
(232,319,l,{
"Letterink-NibData" = {
AngleInDegrees = 90;
};
}),
(577,319,l,{
"Letterink-NibData" = {
AngleInDegrees = 180;
};
}),
(577,-1,l,{
"Letterink-NibData" = {
AngleInDegrees = 90;
};
}),
(659,-1,l),
(659,686,l,{
"Letterink-NibData" = {
AngleInDegrees = 270;
};
}),
(577,686,l,{
"Letterink-NibData" = {
AngleInDegrees = 180;
};
}),
(577,395,l,{
"Letterink-NibData" = {
AngleInDegrees = 270;
};
}),
(232,395,l),
(232,559,l,{
"Letterink-NibData" = {
AngleInDegrees = 269.30131;
};
}),
(150,558,l,{
"Letterink-NibData" = {
AngleInDegrees = 180;
};
}),
(150,-1,l,{
"Letterink-NibData" = {
AngleInDegrees = 90;
};
})
);
}
);
width = 734;
},
{
anchors = (
{
name = bottom;
pos = (376,0);
},
{
name = center;
pos = (379,491);
},
{
name = top;
pos = (376,684);
},
{
name = topleft;
pos = (46,684);
}
);
hints = (
{
name = _corner.caps_vert;
origin = (0,9);
type = Corner;
}
);
layerId = "49C16FD3-6177-408B-A733-AEB3898BB77C";
shapes = (
{
closed = 1;
nodes = (
(180,1,l),
(180,338,l,{
"Letterink-NibData" = {
AngleInDegrees = 90;
};
}),
(575,338,l,{
"Letterink-NibData" = {
AngleInDegrees = 180;
};
}),
(575,1,l,{
"Letterink-NibData" = {
AngleInDegrees = 90;
};
}),
(617,1,l),
(617,685,l,{
"Letterink-NibData" = {
AngleInDegrees = 270;
};
}),
(575,685,l,{
"Letterink-NibData" = {
AngleInDegrees = 180;
};
}),
(575,378,l,{
"Letterink-NibData" = {
AngleInDegrees = 270;
};
}),
(180,378,l),
(180,569,l,{
"Letterink-NibData" = {
AngleInDegrees = 270;
};
}),
(138,569,l,{
"Letterink-NibData" = {
AngleInDegrees = 180;
};
}),
(138,1,l,{
"Letterink-NibData" = {
AngleInDegrees = 90;
};
})
);
}
);
width = 721;
}
);
unicode = 72;
userData = {
position = 554;
width = 61;
};
},
{
glyphname = H.ss01;
layers = (
{
anchors = (
{
name = bottom;
pos = (344,0);
},
{
name = center;
pos = (359,513);
},
{
name = top;
pos = (349,684);
},
{
name = topleft;
pos = (32,684);
}
);
layerId = "873CAA12-270D-4223-A88E-AE8E101FDBE8";
shapes = (
{
closed = 1;
nodes = (
(159,0,l),
(159,328,l,{
"Letterink-NibData" = {
AngleInDegrees = 90;
};
}),
(528,328,l,{
"Letterink-NibData" = {
AngleInDegrees = 180;
};
}),
(528,0,l,{
"Letterink-NibData" = {
AngleInDegrees = 90;
};
}),
(588,0,l),
(588,684,l,{
"Letterink-NibData" = {
AngleInDegrees = 270;
};
}),
(528,684,l,{
"Letterink-NibData" = {
AngleInDegrees = 180;
};
}),
(528,384,l,{
"Letterink-NibData" = {
AngleInDegrees = 270;
};
}),
(159,384,l),
(159,684,l,{
"Letterink-NibData" = {
AngleInDegrees = 270;
};
}),
(99,684,l,{
"Letterink-NibData" = {
AngleInDegrees = 180;
};
}),
(99,0,l,{
"Letterink-NibData" = {
AngleInDegrees = 90;
};
})
);
}
);
width = 687;
},
{
anchors = (
{
name = bottom;
pos = (347,0);
},
{
name = center;
pos = (336,512);
},
{
name = top;
pos = (334,684);
},
{
name = topleft;
pos = (27,684);
}
);
layerId = "0CAF3BED-C4AC-4024-B3E1-4C69D1EF7EC0";
shapes = (
{
closed = 1;
nodes = (
(179,-1,l),
(179,317,l,{
"Letterink-NibData" = {
AngleInDegrees = 90;
};
}),
(514,317,l,{
"Letterink-NibData" = {
AngleInDegrees = 180;
};
}),
(514,-1,l,{
"Letterink-NibData" = {
AngleInDegrees = 90;
};
}),
(596,-1,l),
(596,686,l,{
"Letterink-NibData" = {
AngleInDegrees = 270;
};
}),
(514,686,l,{
"Letterink-NibData" = {
AngleInDegrees = 180;
};
}),
(514,395,l,{
"Letterink-NibData" = {
AngleInDegrees = 270;
};
}),
(179,395,l),
(179,686,l,{
"Letterink-NibData" = {
AngleInDegrees = 270;
};
}),
(97,686,l,{
"Letterink-NibData" = {
AngleInDegrees = 180;
};
}),
(97,-1,l,{
"Letterink-NibData" = {
AngleInDegrees = 90;
};
})
);
}
);
width = 693;
},
{
anchors = (
{
name = bottom;
pos = (342,0);
},
{
name = center;
pos = (345,500);
},
{
name = top;
pos = (343,684);
},
{
name = topleft;
pos = (32,684);
}
);
layerId = "49C16FD3-6177-408B-A733-AEB3898BB77C";
shapes = (
{
closed = 1;
nodes = (
(146,1,l),
(146,338,l,{
"Letterink-NibData" = {
AngleInDegrees = 90;
};
}),
(542,338,l,{
"Letterink-NibData" = {
AngleInDegrees = 180;
};
}),
(542,1,l,{
"Letterink-NibData" = {
AngleInDegrees = 90;
};
}),
(584,1,l),
(584,685,l,{
"Letterink-NibData" = {
AngleInDegrees = 270;
};
}),
(542,685,l,{
"Letterink-NibData" = {
AngleInDegrees = 180;
};
}),
(542,378,l,{
"Letterink-NibData" = {
AngleInDegrees = 270;
};
}),
(146,378,l),
(146,685,l,{
"Letterink-NibData" = {
AngleInDegrees = 270;
};
}),
(104,685,l,{
"Letterink-NibData" = {
AngleInDegrees = 180;
};
}),
(104,1,l,{
"Letterink-NibData" = {
AngleInDegrees = 90;
};
})
);
}
);
width = 688;
}
);
userData = {
position = 525;
width = 61;
};
},
{
glyphname = H.swsh;
kernLeft = Swash;
layers = (
{
anchors = (
{
name = bottom;
pos = (381,0);
},
{
name = center;
pos = (412,355);
},
{
name = top;
pos = (410,684);
},
{
name = topleft;
pos = (48,684);
},
{
name = topswash;
pos = (218,500);
}
);
hints = (
{
name = _corner.caps_swash_vert;
origin = (0,9);
type = Corner;
}
);
layerId = "873CAA12-270D-4223-A88E-AE8E101FDBE8";
shapes = (
{
closed = 1;
nodes = (
(217,0,l),
(217,328,l,{
"Letterink-NibData" = {
AngleInDegrees = 90;
};
}),
(586,328,l,{
"Letterink-NibData" = {
AngleInDegrees = 180;
};
}),
(586,0,l,{
"Letterink-NibData" = {
AngleInDegrees = 90;
};
}),
(646,0,l),
(646,684,l,{
"Letterink-NibData" = {
AngleInDegrees = 270;
};
}),
(586,684,l,{
"Letterink-NibData" = {
AngleInDegrees = 180;
};
}),
(586,384,l,{
"Letterink-NibData" = {
AngleInDegrees = 270;
};
}),
(217,384,l),
(217,569,l,{
"Letterink-NibData" = {
AngleInDegrees = 270;
};
}),
(157,569,l,{
"Letterink-NibData" = {
AngleInDegrees = 180;
};
}),
(157,0,l,{
"Letterink-NibData" = {
AngleInDegrees = 90;
};
})
);
}
);
width = 745;
},
{
anchors = (
{
name = bottom;
pos = (379,0);
},
{
name = center;
pos = (402,355);
},
{
name = top;
pos = (409,675);
},
{
name = topleft;
pos = (42,684);
},
{
name = topswash;
pos = (231,500);
}
);
hints = (
{
name = _corner.caps_swash_vert;
origin = (0,9);
type = Corner;
}
);
layerId = "0CAF3BED-C4AC-4024-B3E1-4C69D1EF7EC0";
shapes = (
{
closed = 1;
nodes = (
(233,-1,l),
(233,317,l,{
"Letterink-NibData" = {
AngleInDegrees = 90;
};
}),
(568,317,l,{
"Letterink-NibData" = {
AngleInDegrees = 180;
};
}),
(568,-1,l,{
"Letterink-NibData" = {
AngleInDegrees = 90;
};
}),
(650,-1,l),
(650,686,l,{
"Letterink-NibData" = {
AngleInDegrees = 270;
};
}),
(568,686,l,{
"Letterink-NibData" = {
AngleInDegrees = 180;
};
}),
(568,395,l,{
"Letterink-NibData" = {
AngleInDegrees = 270;
};
}),
(233,395,l),
(233,569,l,{
"Letterink-NibData" = {
AngleInDegrees = 270;
};
}),
(151,569,l,{
"Letterink-NibData" = {
AngleInDegrees = 180;
};
}),
(151,-1,l,{
"Letterink-NibData" = {
AngleInDegrees = 90;
};
})
);
}
);
width = 747;
},
{
anchors = (
{
name = bottom;
pos = (385,0);
},
{
name = center;
pos = (408,356);
},
{
name = top;
pos = (405,694);
},
{
name = topleft;
pos = (65,684);
},
{
name = topswash;
pos = (199,500);
}
);
hints = (
{
name = _corner.caps_swash_vert;
origin = (0,9);
type = Corner;
}
);
layerId = "49C16FD3-6177-408B-A733-AEB3898BB77C";
shapes = (
{
closed = 1;
nodes = (
(199,1,l),
(199,338,l,{
"Letterink-NibData" = {
AngleInDegrees = 90;
};
}),
(594,338,l,{
"Letterink-NibData" = {
AngleInDegrees = 180;
};
}),
(594,1,l,{
"Letterink-NibData" = {
AngleInDegrees = 90;
};
}),
(636,1,l),
(636,685,l,{
"Letterink-NibData" = {
AngleInDegrees = 270;
};
}),
(594,685,l,{
"Letterink-NibData" = {
AngleInDegrees = 180;
};
}),
(594,378,l,{
"Letterink-NibData" = {
AngleInDegrees = 270;
};
}),
(199,378,l),
(199,569,l,{
"Letterink-NibData" = {
AngleInDegrees = 270;
};
}),
(157,569,l,{
"Letterink-NibData" = {
AngleInDegrees = 180;
};
}),
(157,1,l,{
"Letterink-NibData" = {
AngleInDegrees = 90;
};
})
);
}
);
width = 740;
}
);
userData = {
position = 554;
width = 61;
};
},
{
glyphname = I;
layers = (
{
anchors = (
{
name = bottom;
pos = (131,-1);
},
{
name = center;
pos = (133,386);
},
{
name = ogonek;
pos = (161,0);
},
{
name = top;
pos = (128,674);
},
{
name = topleft;
pos = (34,684);
}
);
layerId = "873CAA12-270D-4223-A88E-AE8E101FDBE8";
shapes = (
{
closed = 1;
nodes = (
(161,0,l),
(161,684,l,{
"Letterink-NibData" = {
AngleInDegrees = 270;
};
}),
(100,684,l,{
"Letterink-NibData" = {
AngleInDegrees = 180;
};
}),
(100,0,l,{
"Letterink-NibData" = {
AngleInDegrees = 90;
};
})
);
}
);
width = 261;
},
{
anchors = (
{
name = bottom;
pos = (138,0);
},
{
name = center;
pos = (137,386);
},
{
name = ogonek;
pos = (179,-1);
},
{
name = top;
pos = (136,675);
},
{
name = topleft;
pos = (31,684);
}
);
layerId = "0CAF3BED-C4AC-4024-B3E1-4C69D1EF7EC0";
shapes = (
{
closed = 1;
nodes = (
(179,-1,l),
(179,686,l,{
"Letterink-NibData" = {
AngleInDegrees = 270;
};
}),
(97,686,l,{
"Letterink-NibData" = {
AngleInDegrees = 180;
};
}),
(97,-1,l,{
"Letterink-NibData" = {
AngleInDegrees = 90;
};
})
);
}
);
width = 276;
},
{
anchors = (
{
name = bottom;
pos = (128,0);
},
{
name = center;
pos = (127,386);
},
{
name = ogonek;
pos = (150,1);
},
{
name = top;
pos = (125,686);
},
{
name = topleft;
pos = (39,684);
}
);
layerId = "49C16FD3-6177-408B-A733-AEB3898BB77C";
shapes = (
{
closed = 1;
nodes = (
(150,1,l),
(150,685,l,{
"Letterink-NibData" = {
AngleInDegrees = 270;
};
}),
(105,685,l,{
"Letterink-NibData" = {
AngleInDegrees = 180;
};
}),
(105,1,l,{
"Letterink-NibData" = {
AngleInDegrees = 90;
};
})
);
}
);
width = 255;
}
);
unicode = 73;
userData = {
position = 54;
width = 61;
};
},
{
glyphname = I.swsh;
kernLeft = Swash;
layers = (
{
anchors = (
{
name = bottom;
pos = (212,-1);
},
{
name = center;
pos = (214,386);
},
{
name = ogonek;
pos = (242,0);
},
{
name = top;
pos = (209,684);
},
{
name = topleft;
pos = (115,684);
}
);
hints = (
{
name = _corner.caps_swash;
origin = (1,3);
type = Corner;
}
);
layerId = "873CAA12-270D-4223-A88E-AE8E101FDBE8";
shapes = (
{
closed = 1;
nodes = (
(241,0,l),
(241,684,l,{
"Letterink-NibData" = {
AngleInDegrees = 270;
};
}),
(181,684,l,{
"Letterink-NibData" = {
AngleInDegrees = 180;
};
}),
(181,0,l,{
"Letterink-NibData" = {
AngleInDegrees = 90;
};
})
);
},
{
closed = 1;
nodes = (
(147,628,l),
(190,628,l),
(190,684,l),
(147,684,l)
);
}
);
width = 317;
},
{
anchors = (
{
name = bottom;
pos = (216,0);
},
{
name = center;
pos = (215,386);
},
{
name = ogonek;
pos = (257,-1);
},
{
name = top;
pos = (217,684);
},
{
name = topleft;
pos = (109,684);
}
);
hints = (
{
name = _corner.caps_swash;
origin = (1,3);
type = Corner;
}
);
layerId = "0CAF3BED-C4AC-4024-B3E1-4C69D1EF7EC0";
shapes = (
{
closed = 1;
nodes = (
(257,-1,l),
(257,684,l,{
"Letterink-NibData" = {
AngleInDegrees = 270;
};
}),
(175,684,l,{
"Letterink-NibData" = {
AngleInDegrees = 180;
};
}),
(175,-1,l,{
"Letterink-NibData" = {
AngleInDegrees = 90;
};
})
);
},
{
closed = 1;
nodes = (
(150,608,l),
(215,608,l),
(215,684,l),
(150,684,l)
);
}
);
width = 302;
},
{
anchors = (
{
name = bottom;
pos = (191,0);
},
{
name = center;
pos = (190,386);
},
{
name = ogonek;
pos = (214,1);
},
{
name = top;
pos = (188,684);
},
{
name = topleft;
pos = (100,684);
}
);
hints = (
{
name = _corner.caps_swash;
origin = (1,3);
type = Corner;
}
);
layerId = "49C16FD3-6177-408B-A733-AEB3898BB77C";
shapes = (
{
closed = 1;
nodes = (
(210,1,l),
(210,684,l,{
"Letterink-NibData" = {
AngleInDegrees = 270;
};
}),
(168,684,l,{
"Letterink-NibData" = {
AngleInDegrees = 180;
};
}),
(168,1,l,{
"Letterink-NibData" = {
AngleInDegrees = 90;
};
})
);
},
{
closed = 1;
nodes = (
(133,643,l),
(176,643,l),
(176,683,l),
(133,683,l)
);
}
);
width = 287;
},
{
anchors = (
{
name = bottom;
pos = (179,0);
},
{
name = center;
pos = (178,386);
},
{
name = ogonek;
pos = (202,1);
},
{
name = top;
pos = (176,684);
},
{
name = topleft;
pos = (88,684);
}
);
associatedMasterId = "49C16FD3-6177-408B-A733-AEB3898BB77C";
hints = (
{
name = _corner.caps_swash_vert;
options = 1;
origin = (0,1);
type = Corner;
}
);
layerId = "AE169FFE-AC8B-4E8A-9035-7F809B0493BD";
name = "5 Jan 22, 09:48";
shapes = (
{
closed = 1;
nodes = (
(198,1,l),
(198,576,l,{
"Letterink-NibData" = {
AngleInDegrees = 270;
};
}),
(156,576,l,{
"Letterink-NibData" = {
AngleInDegrees = 180;
};
}),
(156,1,l,{
"Letterink-NibData" = {
AngleInDegrees = 90;
};
})
);
}
);
width = 301;
},
{
anchors = (
{
name = bottom;
pos = (188,-1);
},
{
name = center;
pos = (190,386);
},
{
name = ogonek;
pos = (218,0);
},
{
name = top;
pos = (185,684);
},
{
name = topleft;
pos = (91,684);
}
);
associatedMasterId = "873CAA12-270D-4223-A88E-AE8E101FDBE8";
hints = (
{
name = _corner.caps_swash_vert;
options = 1;
origin = (0,1);
type = Corner;
}
);
layerId = "3371C301-BE15-409D-9B62-CF3BC4452A16";
name = "5 Jan 22, 09:51";
shapes = (
{
closed = 1;
nodes = (
(217,0,l),
(217,569,l,{
"Letterink-NibData" = {
AngleInDegrees = 270;
};
}),
(157,569,l,{
"Letterink-NibData" = {
AngleInDegrees = 180;
};
}),
(157,0,l,{
"Letterink-NibData" = {
AngleInDegrees = 90;
};
})
);
}
);
width = 314;
}
);
userData = {
position = 54;
width = 61;
};
},
{
glyphname = I.swsh.001;
kernLeft = Swash;
layers = (
{
anchors = (
{
name = bottom;
pos = (212,-1);
},
{
name = center;
pos = (214,386);
},
{
name = ogonek;
pos = (242,0);
},
{
name = top;
pos = (209,684);
},
{
name = topleft;
pos = (115,684);
}
);
hints = (
{
name = _corner.caps_swash;
origin = (1,3);
type = Corner;
}
);
layerId = "873CAA12-270D-4223-A88E-AE8E101FDBE8";
shapes = (
{
closed = 1;
nodes = (
(241,0,l),
(241,684,l,{
"Letterink-NibData" = {
AngleInDegrees = 270;
};
}),
(181,684,l,{
"Letterink-NibData" = {
AngleInDegrees = 180;
};
}),
(181,0,l,{
"Letterink-NibData" = {
AngleInDegrees = 90;
};
})
);
},
{
closed = 1;
nodes = (
(142,628,l),
(185,628,l),
(185,684,l),
(142,684,l)
);
}
);
width = 317;
},
{
anchors = (
{
name = bottom;
pos = (216,0);
},
{
name = center;
pos = (215,386);
},
{
name = ogonek;
pos = (257,-1);
},
{
name = top;
pos = (217,684);
},
{
name = topleft;
pos = (109,684);
}
);
hints = (
{
name = _corner.caps_swash;
origin = (1,3);
type = Corner;
}
);
layerId = "0CAF3BED-C4AC-4024-B3E1-4C69D1EF7EC0";
shapes = (
{
closed = 1;
nodes = (
(257,-1,l),
(257,684,l,{
"Letterink-NibData" = {
AngleInDegrees = 270;
};
}),
(175,684,l,{
"Letterink-NibData" = {
AngleInDegrees = 180;
};
}),
(175,-1,l,{
"Letterink-NibData" = {
AngleInDegrees = 90;
};
})
);
},
{
closed = 1;
nodes = (
(150,608,l),
(215,608,l),
(215,684,l),
(150,684,l)
);
}
);
width = 302;
},
{
anchors = (
{
name = bottom;
pos = (191,0);
},
{
name = center;
pos = (190,386);
},
{
name = ogonek;
pos = (214,1);
},
{
name = top;
pos = (188,684);
},
{
name = topleft;
pos = (100,684);
}
);
hints = (
{
name = _corner.caps_swash;
origin = (1,3);
type = Corner;
}
);
layerId = "49C16FD3-6177-408B-A733-AEB3898BB77C";
shapes = (
{
closed = 1;
nodes = (
(210,1,l),
(210,684,l,{
"Letterink-NibData" = {
AngleInDegrees = 270;
};
}),
(168,684,l,{
"Letterink-NibData" = {
AngleInDegrees = 180;
};
}),
(168,1,l,{
"Letterink-NibData" = {
AngleInDegrees = 90;
};
})
);
},
{
closed = 1;
nodes = (
(133,643,l),
(176,643,l),
(176,683,l),
(133,683,l)
);
}
);
width = 287;
},
{
anchors = (
{
name = bottom;
pos = (179,0);
},
{
name = center;
pos = (178,386);
},
{
name = ogonek;
pos = (202,1);
},
{
name = top;
pos = (176,684);
},
{
name = topleft;
pos = (88,684);
}
);
associatedMasterId = "49C16FD3-6177-408B-A733-AEB3898BB77C";
hints = (
{
name = _corner.caps_swash_vert;
options = 1;
origin = (0,1);
type = Corner;
}
);
layerId = "AE169FFE-AC8B-4E8A-9035-7F809B0493BD";
name = "5 Jan 22, 09:48";
shapes = (
{
closed = 1;
nodes = (
(198,1,l),
(198,576,l,{
"Letterink-NibData" = {
AngleInDegrees = 270;
};
}),
(156,576,l,{
"Letterink-NibData" = {
AngleInDegrees = 180;
};
}),
(156,1,l,{
"Letterink-NibData" = {
AngleInDegrees = 90;
};
})
);
}
);
width = 301;
},
{
anchors = (
{
name = bottom;
pos = (188,-1);
},
{
name = center;
pos = (190,386);
},
{
name = ogonek;
pos = (218,0);
},
{
name = top;
pos = (185,684);
},
{
name = topleft;
pos = (91,684);
}
);
associatedMasterId = "873CAA12-270D-4223-A88E-AE8E101FDBE8";
hints = (
{
name = _corner.caps_swash_vert;
options = 1;
origin = (0,1);
type = Corner;
}
);
layerId = "3371C301-BE15-409D-9B62-CF3BC4452A16";
name = "5 Jan 22, 09:51";
shapes = (
{
closed = 1;
nodes = (
(217,0,l),
(217,569,l,{
"Letterink-NibData" = {
AngleInDegrees = 270;
};
}),
(157,569,l,{
"Letterink-NibData" = {
AngleInDegrees = 180;
};
}),
(157,0,l,{
"Letterink-NibData" = {
AngleInDegrees = 90;
};
})
);
}
);
width = 314;
}
);
userData = {
position = 54;
width = 61;
};
},
{
glyphname = J;
kernLeft = J;
kernRight = J;
layers = (
{
anchors = (
{
name = bottom;
pos = (239,0);
},
{
name = top;
pos = (259,682);
}
);
layerId = "873CAA12-270D-4223-A88E-AE8E101FDBE8";
shapes = (
{
closed = 1;
nodes = (
(372,-7,o),
(425,89,o),
(425,188,cs),
(425,687,l,{
"Letterink-NibData" = {
AngleInDegrees = 270;
};
}),
(366,687,l,{
"Letterink-NibData" = {
AngleInDegrees = 180;
};
}),
(366,680,o),
(330,660,o),
(312,660,cs,{
"Letterink-NibData" = {
AngleInDegrees = 270;
};
}),
(298,660,o),
(282,662,o),
(259,672,cs,{
"Letterink-NibData" = {
AngleInDegrees = 293.96249;
};
}),
(223,688,o),
(185,696,o),
(169,696,cs,{
"Letterink-NibData" = {
AngleInDegrees = 270;
};
}),
(143,696,o),
(124,691,o),
(65,667,c,{
"Letterink-NibData" = {
AngleInDegrees = 153.43495;
};
}),
(90,617,l,{
"Letterink-NibData" = {
AngleInDegrees = 66.25051;
};
}),
(115,628,o),
(143,641,o),
(169,641,cs,{
"Letterink-NibData" = {
AngleInDegrees = 90;
};
}),
(189,641,o),
(207,633,o),
(226,625,cs,{
"Letterink-NibData" = {
AngleInDegrees = 113.42869;
};
}),
(256,612,o),
(276,605,o),
(310,605,cs,{
"Letterink-NibData" = {
AngleInDegrees = 90;
};
}),
(329,605,o),
(349,608,o),
(365,618,c,{
"Letterink-NibData" = {
AngleInDegrees = 180;
};
}),
(365,191,ls,{
"Letterink-NibData" = {
AngleInDegrees = 180;
};
}),
(365,127,o),
(339,49,o),
(232,49,cs,{
"Letterink-NibData" = {
AngleInDegrees = 270;
};
}),
(145,49,o),
(100,99,o),
(100,171,c,{
"Letterink-NibData" = {
AngleInDegrees = 275.01311;
};
}),
(43,176,l,{
"Letterink-NibData" = {
AngleInDegrees = 178.71267;
};
}),
(45,87,o),
(91,-7,o),
(229,-7,cs,{
"Letterink-NibData" = {
AngleInDegrees = 90;
};
})
);
}
);
width = 516;
},
{
anchors = (
{
name = bottom;
pos = (249,0);
},
{
name = top;
pos = (249,684);
}
);
layerId = "0CAF3BED-C4AC-4024-B3E1-4C69D1EF7EC0";
shapes = (
{
closed = 1;
nodes = (
(382,-7,o),
(438,94,o),
(438,193,cs),
(438,689,l,{
"Letterink-NibData" = {
AngleInDegrees = 270;
};
}),
(369,689,l,{
"Letterink-NibData" = {
AngleInDegrees = 211.6075;
};
}),
(361,676,o),
(331,663,o),
(317,663,cs,{
"Letterink-NibData" = {
AngleInDegrees = 270;
};
}),
(305,663,o),
(291,664,o),
(269,673,cs,{
"Letterink-NibData" = {
AngleInDegrees = 291.54098;
};
}),
(231,688,o),
(204,698,o),
(178,698,cs,{
"Letterink-NibData" = {
AngleInDegrees = 270;
};
}),
(150,698,o),
(128,692,o),
(61,664,c,{
"Letterink-NibData" = {
AngleInDegrees = 153.09391;
};
}),
(95,597,l,{
"Letterink-NibData" = {
AngleInDegrees = 67.52057;
};
}),
(124,609,o),
(153,620,o),
(178,620,cs,{
"Letterink-NibData" = {
AngleInDegrees = 90;
};
}),
(193,620,o),
(207,615,o),
(223,609,cs,{
"Letterink-NibData" = {
AngleInDegrees = 111.80141;
};
}),
(253,597,o),
(285,587,o),
(315,587,cs,{
"Letterink-NibData" = {
AngleInDegrees = 90;
};
}),
(328,587,o),
(343,589,o),
(356,594,c,{
"Letterink-NibData" = {
AngleInDegrees = 180;
};
}),
(356,196,ls,{
"Letterink-NibData" = {
AngleInDegrees = 180;
};
}),
(356,138,o),
(333,69,o),
(239,69,cs,{
"Letterink-NibData" = {
AngleInDegrees = 270;
};
}),
(157,69,o),
(118,118,o),
(122,188,c,{
"Letterink-NibData" = {
AngleInDegrees = 274.39871;
};
}),
(44,194,l,{
"Letterink-NibData" = {
AngleInDegrees = 181.88819;
};
}),
(41,103,o),
(88,-7,o),
(236,-7,cs,{
"Letterink-NibData" = {
AngleInDegrees = 90;
};
})
);
}
);
width = 526;
},
{
anchors = (
{
name = bottom;
pos = (241,0);
},
{
name = top;
pos = (242,684);
}
);
layerId = "49C16FD3-6177-408B-A733-AEB3898BB77C";
shapes = (
{
closed = 1;
nodes = (
(364,-6,o),
(418,86,o),
(418,185,cs),
(418,688,l,{
"Letterink-NibData" = {
AngleInDegrees = 270;
};
}),
(371,688,l,{
"Letterink-NibData" = {
AngleInDegrees = 209.35776;
};
}),
(362,672,o),
(334,660,o),
(312,660,cs,{
"Letterink-NibData" = {
AngleInDegrees = 270;
};
}),
(294,660,o),
(274,666,o),
(254,674,cs,{
"Letterink-NibData" = {
AngleInDegrees = 291.57131;
};
}),
(211,691,o),
(181,697,o),
(166,697,cs,{
"Letterink-NibData" = {
AngleInDegrees = 270;
};
}),
(140,697,o),
(122,691,o),
(71,672,c,{
"Letterink-NibData" = {
AngleInDegrees = 153.43495;
};
}),
(89,636,l,{
"Letterink-NibData" = {
AngleInDegrees = 70.82099;
};
}),
(112,644,o),
(137,658,o),
(166,658,cs,{
"Letterink-NibData" = {
AngleInDegrees = 90;
};
}),
(187,658,o),
(205,651,o),
(223,643,cs,{
"Letterink-NibData" = {
AngleInDegrees = 113.42869;
};
}),
(253,630,o),
(277,621,o),
(310,621,cs,{
"Letterink-NibData" = {
AngleInDegrees = 90;
};
}),
(331,621,o),
(357,625,o),
(376,644,c,{
"Letterink-NibData" = {
AngleInDegrees = 180;
};
}),
(376,188,ls,{
"Letterink-NibData" = {
AngleInDegrees = 180;
};
}),
(376,121,o),
(346,34,o),
(230,34,cs,{
"Letterink-NibData" = {
AngleInDegrees = 270;
};
}),
(141,34,o),
(89,86,o),
(87,159,c,{
"Letterink-NibData" = {
AngleInDegrees = 275.5722;
};
}),
(46,163,l,{
"Letterink-NibData" = {
AngleInDegrees = 176.71075;
};
}),
(51,76,o),
(97,-6,o),
(227,-6,cs,{
"Letterink-NibData" = {
AngleInDegrees = 90;
};
})
);
}
);
width = 514;
}
);
unicode = 74;
userData = {
position = 333;
width = 53;
};
},
{
glyphname = J.ss01;
kernLeft = Jtext;
kernRight = J;
layers = (
{
anchors = (
{
name = bottom;
pos = (238,0);
},
{
name = top;
pos = (384,684);
}
);
layerId = "873CAA12-270D-4223-A88E-AE8E101FDBE8";
shapes = (
{
closed = 1;
nodes = (
(366,-7,o),
(419,94,o),
(419,193,cs),
(419,684,l,{
"Letterink-NibData" = {
AngleInDegrees = 270;
};
}),
(357,684,l,{
"Letterink-NibData" = {
AngleInDegrees = 177.91744;
};
}),
(359,629,l,{
"Letterink-NibData" = {
AngleInDegrees = 180;
};
}),
(359,196,ls,{
"Letterink-NibData" = {
AngleInDegrees = 180;
};
}),
(359,132,o),
(333,49,o),
(226,49,cs,{
"Letterink-NibData" = {
AngleInDegrees = 270;
};
}),
(139,49,o),
(94,99,o),
(94,171,c,{
"Letterink-NibData" = {
AngleInDegrees = 275.01311;
};
}),
(37,176,l,{
"Letterink-NibData" = {
AngleInDegrees = 178.71267;
};
}),
(39,87,o),
(85,-7,o),
(223,-7,cs,{
"Letterink-NibData" = {
AngleInDegrees = 90;
};
})
);
}
);
width = 509;
},
{
anchors = (
{
name = bottom;
pos = (241,0);
},
{
name = top;
pos = (387,684);
}
);
layerId = "0CAF3BED-C4AC-4024-B3E1-4C69D1EF7EC0";
shapes = (
{
closed = 1;
nodes = (
(374,-9,o),
(430,97,o),
(430,196,cs),
(430,684,l,{
"Letterink-NibData" = {
AngleInDegrees = 270;
};
}),
(348,684,l,{
"Letterink-NibData" = {
AngleInDegrees = 180;
};
}),
(348,606,l,{
"Letterink-NibData" = {
AngleInDegrees = 180;
};
}),
(348,199,ls,{
"Letterink-NibData" = {
AngleInDegrees = 180;
};
}),
(348,141,o),
(325,67,o),
(231,67,cs,{
"Letterink-NibData" = {
AngleInDegrees = 270;
};
}),
(149,67,o),
(110,116,o),
(114,186,c,{
"Letterink-NibData" = {
AngleInDegrees = 274.39871;
};
}),
(36,192,l,{
"Letterink-NibData" = {
AngleInDegrees = 181.88819;
};
}),
(33,101,o),
(80,-9,o),
(228,-9,cs,{
"Letterink-NibData" = {
AngleInDegrees = 90;
};
})
);
}
);
width = 517;
},
{
anchors = (
{
name = bottom;
pos = (238,0);
},
{
name = top;
pos = (393,684);
}
);
layerId = "49C16FD3-6177-408B-A733-AEB3898BB77C";
shapes = (
{
closed = 1;
nodes = (
(362,-6,o),
(414,92,o),
(414,191,cs),
(414,685,l,{
"Letterink-NibData" = {
AngleInDegrees = 268.5679;
};
}),
(374,684,l,{
"Letterink-NibData" = {
AngleInDegrees = 184.66686;
};
}),
(370,635,l,{
"Letterink-NibData" = {
AngleInDegrees = 179.61024;
};
}),
(373,194,ls,{
"Letterink-NibData" = {
AngleInDegrees = 180;
};
}),
(373,125,o),
(337,34,o),
(224,34,cs,{
"Letterink-NibData" = {
AngleInDegrees = 270;
};
}),
(135,34,o),
(88,89,o),
(86,162,c,{
"Letterink-NibData" = {
AngleInDegrees = 275.19443;
};
}),
(42,166,l,{
"Letterink-NibData" = {
AngleInDegrees = 178.68309;
};
}),
(44,79,o),
(92,-6,o),
(224,-6,cs,{
"Letterink-NibData" = {
AngleInDegrees = 90;
};
})
);
}
);
width = 510;
}
);
userData = {
position = 333;
width = 53;
};
},
